/* XPM */
static char *result[] = {
/* columns rows colors chars-per-pixel */
"64 64 128 2 ",
"   c #375D3E",
".  c #385E3E",
"X  c #39603F",
"o  c #237F31",
"O  c #287C32",
"+  c #7D4A3A",
"@  c #645937",
"#  c #486F38",
"$  c #3B6241",
"%  c #5E5343",
"&  c #7C5245",
"*  c #785943",
"=  c #7B5648",
"-  c #436244",
";  c #4C6147",
":  c #4E674B",
">  c #54644C",
",  c #45744D",
"<  c #4A724C",
"1  c #487A4F",
"2  c #477750",
"3  c #477851",
"4  c #497B51",
"5  c #73624C",
"6  c #6C744F",
"7  c #686C5A",
"8  c #786F50",
"9  c #6A7752",
"0  c #667950",
"q  c #67745C",
"w  c #757253",
"e  c #797C5A",
"r  c #7E6F60",
"t  c #AF1F39",
"y  c #962E3A",
"u  c #8D3A3E",
"i  c #94363D",
"p  c #953D3C",
"a  c #AB253C",
"s  c #A8283D",
"d  c #B2213B",
"f  c #BB223E",
"g  c #B7293F",
"h  c #C1223F",
"j  c #85453A",
"k  c #8F403B",
"l  c #B62E43",
"z  c #BC2942",
"x  c #B43143",
"c  c #BC3C4E",
"v  c #C12340",
"b  c #C22A44",
"n  c #C32F48",
"m  c #C5334B",
"M  c #C63A4F",
"N  c #C63C52",
"B  c #C93E57",
"V  c #844A44",
"C  c #9F4648",
"Z  c #8E5A4B",
"A  c #975451",
"S  c #A54046",
"D  c #A6424B",
"F  c #A34A55",
"G  c #A25654",
"H  c #84624C",
"J  c #8A6152",
"K  c #946358",
"L  c #83725B",
"P  c #8D735D",
"I  c #BE6769",
"U  c #B8716B",
"Y  c #B2796E",
"T  c #C64053",
"R  c #C94B5A",
"E  c #C5525D",
"W  c #CA505E",
"Q  c #CA4C61",
"!  c #CB5460",
"~  c #C75C64",
"^  c #CC5B65",
"/  c #CE636A",
"(  c #CE696E",
")  c #D66C7C",
"_  c #C47370",
"`  c #168630",
"'  c #1A8632",
"]  c #1E8835",
"[  c #218937",
"{  c #258A38",
"}  c #2C8C3D",
"|  c #318D3F",
" . c #358E41",
".. c #398F45",
"X. c #3B9046",
"o. c #3E9148",
"O. c #45934B",
"+. c #4C954F",
"@. c #579D4F",
"#. c #4E8356",
"$. c #4E8358",
"%. c #5D8757",
"&. c #5D8D57",
"*. c #5C8659",
"=. c #548D5E",
"-. c #5B8B5A",
";. c #4E9551",
":. c #569756",
">. c #599156",
",. c #579A52",
"<. c #56925C",
"1. c #5A9359",
"2. c #618353",
"3. c #698154",
"4. c #678259",
"5. c #648B5E",
"6. c #6A8D5D",
"7. c #558E62",
"8. c #738660",
"9. c #A38480",
"0. c #A28A83",
"q. c #A8968B",
"w. c #CC8088",
"e. c #C4A6A1",
"r. c #DEADAF",
"t. c #DCB5B5",
"y. c #EAB7BA",
"u. c #EABABD",
/* pixels */
"@.@.@.@.@.@.@.@.@.@.@.@.@.@.@.@.@.@.@.@.@.@.@.@.@.@.@.@.@.@.@.@.@.@.@.@.@.@.@.@.@.@.@.@.@.@.@.@.@.@.@.@.@.@.@.@.@.@.@.@.@.@.@.@.",
"@.@.@.@.@.@.@.@.@.@.@.@.@.@.@.@.@.@.@.@.@.@.@.@.@.@.@.@.@.@.@.@.@.@.@.@.@.@.@.@.@.@.@.@.@.@.@.@.@.@.@.@.@.@.@.@.@.@.@.@.@.@.@.@.",
"@.@.@.@.@.,.@.,.@.@.@.@.@.@.@.@.@.@.@.@.@.@.@.@.@.@.@.@.@.,.@.,.@.@.@.@.@.@.@.@.@.@.@.@.@.@.@.@.@.@.@.@.,.@.@.,.@.@.@.@.@.@.@.@.",
"@.@.@.@.@.@.@.@.@.@.@.@.@.@.@.@.@.@.@.@.@.@.@.@.@.@.@.@.@.@.@.@.@.@.@.@.@.@.@.@.@.@.@.@.@.@.@.@.@.@.@.@.@.@.@.@.@.@.@.@.@.@.@.@.",
",.@.@.@.@.@.@.@.@.,.@.@.@.@.@.@.@.@.,.@.,.,.,.@.@.@.@.@.@.@.@.@.@.,.@.@.@.@.@.@.,.@.@.,.@.,.,.@.@.@.@.@.@.,.@.@.@.@.@.,.@.@.@.@.",
"@.,.@.@.@.,.@.@.@.@.,.,.@.@.@.,.,.@.@.,.,.@.@.@.@.,.,.@.@.,.@.@.@.@.@.@.@.@.@.@.@.@.,.@.@.@.@.@.@.,.@.,.@.@.@.@.@.,.@.@.@.@.@.@.",
"@.@.@.@.,.@.,.,.,.@.@.@.,.@.,.@.@.@.@.@.,.,.@.,.,.@.,.@.,.@.,.,.,.,.@.,.,.@.,.@.@.,.@.,.,.@.@.,.@.@.@.@.,.,.@.,.,.@.@.,.@.,.,.,.",
",.,.,.,.@.,.,.@.,.,.,.@.,.@.,.,.,.,.,.,.,.@.,.@.@.,.@.,.@.,.,.@.,.@.,.@.,.,.@.,.@.,.,.@.,.,.,.@.,.,.,.,.@.,.,.@.,.,.@.,.,.,.,.,.",
",.@.@.,.,.,.@.,.@.,.,.@.,.,.,.@.@.,.@.,.,.@.@.,.,.,.@.,.@.,.,.,.@.,.,.@.,.,.@.@.,.,.,.@.@.,.,.,.@.,.,.@.,.@.,.@.@.,.,.,.@.@.,.@.",
"@.,.,.@.@.@.,.@.@.,.,.@.,.@.,.,.,.,.,.@.@.,.,.,.@.@.,.,.,.@.,.,.,.@.@.,.@.,.,.,.,.@.,.,.,.@.@.,.,.,.@.@.,.,.@.,.,.@.@.,.,.,.@.,.",
",.,.,.,.,.,.,.,.,.,.@.,.@.,.@.,.,.,.,.,.,.,.@.@.,.,.,.@.,.,.,.,.,.,.,.,.@.,.,.,.@.,.@.,.,.,.@.,.,.,.,.,.,.,.,.,.,.,.,.@.,.,.,.,.",
",.,.,.,.,.,.,.,.,.,.,.,.,.,.,.,.,.,.,.,.,.,.,.,.@.@.,.,.,.,.,.,.,.,.,.,.,.,.,.,.,.,.,.,.,.,.,.,.,.,.,.,.,.,.,.,.,.,.,.,.,.,.,.,.",
",.,.,.,.,.,.,.,.,.,.,.,.,.,.,.,.,.,.,.,.,.,.,.,.,.,.,.,.,.,.,.,.,.,.,.,.,.,.,.,.,.,.,.,.,.,.,.,.,.,.,.,.,.,.,.,.,.,.,.,.,.,.,.,.",
",.,.,.,.,.,.,.:.,.,.,.,.,.,.,.,.:.,.,.,.,.:.,.,.:.,.:.,.,.,.,.,.,.,.,.,.,.,.,.:.,.,.,.,.:.,.:.,.,.,.,.,.,.,.,.,.,.,.,.,.,.,.,.,.",
",.:.,.:.,.,.,.,.,.,.1.,.,.:.:.,.,.,.>.,.,.,.,.,.>.@.,.,.,.:.,.,.,.1.,.,.:.,.:.,.,.,.,.,.,.,.:.,.,.,.,.,.,.1.,.,.,.,.1.,.,.,.,.,.",
",.,.,.,.1.,.,.:.,.,.,.,.,.,.,.,.,.,.@.,.:.,.,.,.,.:.,.,.,.,.:.,.,.,.,.,.,.,.,.,.,.1.,.,.,.,.,.,.,.,.1.,.,.,.,.,.1.,.,.,.,.,.,.,.",
",.:.,.,.,.,.,.,.,.,.,.:.,.,.,.:.,.,.,.,.,.:.,.,.,.,.:.,.1.,.,.,.,.@.,.:.:.:.:.,.,.:.:.,.:.,.,.,.,.,.,.,.:.,.,.:.,.:.,.,.,.:.,.:.",
":.,.:.,.1.,.,.:.,.,.,.1.,.:.:.,.,.:.1.,.:.,.,.1.:.,.,.:.,.,...[ [ O.:.,.O.O.;.,.,.:.:.,.,.,.:.,.1.,.:.,.,.:.:.,.:.,.1.,.:.,.:.,.",
":.,.:.:.,.1.:.,.,.:.:.,.,.,.,.,.:.:.,.,.:.,.,.,...| ..+.,.+.] ` `  .,. .' `  .O.:.,.,.:.:.:.:.,.,.,.:.,.,.,.,.,.,.,.,.,.,.,.,.,.",
",.:.,.:.:.,.,.1.:.,.:.:.:.:.:.:.:.,.:.:.:.:.:.;.] ` ` [ O.O.] ` ` { X.` ` ` `  .,.:.:.,.:.,.,.:.,.1.,.:.:.:.:.:.:.:.:.:.:.:.:.:.",
":.,.:.,.:.:.,.:.:.,.:.,.:.,.:.:.:.,.:.,.,.:.:.X.` ` ` ` ' } ' ` ` [ ] ` ` ` ` ] :.:.:.,.,.:.,.:.1.:.,.:.:.,.,.:.:.,.:.,.:.,.:.:.",
":.:.:.:.:.:.:.:.:.:.:.:.:.:.:.:.:.:.:.:.:.:.,.X.` ` ` ` ` ' ` ` ` ` ` ` ` ` `  .:.,.:.:.:.:.:.:.:.:.:.:.:.:.:.:.:.:.:.:.:.:.:.:.",
":.:.:.:.:.:.:.,.:.:.:.:.:.:.:.:.:.:.:.:.:.:.:.+.] ` ` ` ` ` ` ` ` ` ` ` ` `  .,.:.:.:.:.:.:.:.:.:.:.:.,.:.:.,.:.:.:.,.:.:.:.:.:.",
":.:.:.,.:.:.:.:.:.,.:.:.:.:.:.:.,.:.:.:.:.:.:.:...[ ' ` ` ` ` ` ` ` ` ` { o.;.,.:.:.:.:.:.:.:.:.:.:.:.:.:.:.:.:.:.,.:.:.:.:.:.,.",
":.:.:.:.:.:.:.:.:.:.:.:.:.:.:.:.,.,.<.,.:.:.:.:.:.;...] ` ` ` ` ` ` ` X.;.:.:.:.:.:.:.:.:.:.:.:.:.:.:.:.:.:.:.:.:.:.:.:.:.:.:.:.",
":.:.:.:.:.:.:.:.:.:.:.:.:.:.:.:.,.<.,.<.<.:.:.:.:.:.:.O.[ ` ` ` ` `  .:.:.:.:.:.:.:.1.:.:.:.:.:.:.:.:.:.:.:.:.1.:.:.:.:.:.:.:.:.",
":.:.:.:.:.:.:.:.:.:.:.:.:.:.<.:.:.:.:.:.:.:.:.:.:.:.:.<...` ` ` ` ` o.:.:.:.:.<.:.:.:.<.:.:.<.:.:.:.:.:.:.:.:.:.:.:.:.<.:.<.:.:.",
":.:.:.:.<.:.:.:.:.<.:.:.:.:.:.:.:.:.,.<.:.:.:.:.:.:.:.:.;.] ` ` ` ] O.:.:.:.:.:.:.:.:.:.:.:.:.:.:.:.<.:.:.:.:.:.:.:.:.:.:.:.:.:.",
":.:.:.:.:.:.:.:.:.:.:.:.:.:.:.:.:.<.:.:.<.,.:.<.<.:.:.3.H # ` ` ` O * 6 1.<.:.:.:.:.<.:.<.:.:.:.<.:.:.<.:.<.:.:.:.<.:.<.:.:.1.:.",
":.<.<.:.:.<.<.:.:.<.:.1.:.<.:.<.:.:.<.:.:.<.:.:.:.5.Z x v j [ ` o @ f l V 2.<.:.<.:.:.:.:.:.<.<.:.<.:.:.:.<.:.<.:.:.:.:.<.:.:.<.",
":.:.:.:.:.:.:.:.<.:.<.:.<.:.<.:.<.<.<.:.<.:.:.:.3.x l h v f p j u g h h f i 0 :.<.:.<.:.:.<.:.:.:.1.:.<.:.:.:.:.<.:.<.:.<.:.:.<.",
"<.<.<.<.<.<.<.<.:.<.:.<.<.:.<.:.:.<.:.<.:.<.<.<.C v z h v v v v v f h h z f i 2.:.<.:.:.<.:.:.<.<.:.<.:.<.:.<.<.:.<.:.<.:.:.<.:.",
":.:.:.:.:.:.:.1.<.:.:.<.:.<.<.:.<.:.:.<.:.<.:.8 z v v v v v v v z h v v v m c J 1.<.:.:.<.:.:.<.:.:.:.<.:.:.:.:.:.<.:.:.:.:.<.:.",
"<.<.<.<.<.<.<.<.:.<.<.:.<.:.1.<.<.<.<.:.<.<.1.G b v h v v v v v v h v v v b D x 9 :.<.<.<.<.<.<.<.<.:.<.<.<.<.<.:.<.<.<.<.<.<.<.",
"<.<.:.<.<.<.:.<.<.<.:.<.<.:.<.:.1.:.<.<.<.<.6._ / R N n b v v v v v v v h h b f & <.1.<.:.<.:.:.:.<.<.<.<.:.:.<.<.:.<.:.<.<.<.:.",
"<.<.<.<.:.<.<.:.:.<.<.<.<.<.:.<.<.<.:.<.<.:.e ~ / / ^ W N n v v v v v v h h z f u -.:.<.<.<.<.<.<.<.:.<.<.<.<.:.<.<.<.<.<.:.<.<.",
":.<.<.<.<.<.<.<.<.<.<.<.<.<.<.<.<.:.<.<.<.<.w z b b b v v v v v v v v v v v v f y %.<.<.<.<.<.<.<.<.1.<.:.<.<.<.<.<.<.:.<.<.<.<.",
"<.<.<.<.<.<.<.<.<.<.<.<.<.<.<.<.<.<.<.<.:.<.w z v v v v v h v v v v v v v h h f y %.<.:.<.<.<.<.<.<.<.<.<.<.<.<.<.<.<.<.:.<.<.<.",
"<.<.:.<.<.<.<.<.<.<.:.<.<.<.<.<.<.<.<.<.<.<.w z v v v v v v v v v v v v h z b c A -.1.<.:.<.<.:.<.<.<.<.<.<.<.<.<.<.<.<.<.<.<.<.",
"<.<.<.<.<.<.<.<.<.<.<.<.<.<.<.<.<.<.<.<.<.<.4.l v v v v v v v v v h h b n R ~ / L <.7.<.<.<.7.<.<.<.<.<.<.<.<.<.<.<.<.<.<.<.<.<.",
"<.<.<.<.<.<.<.<.<.7.<.<.<.<.<.<.<.<.7.<.<.<.-.D z v v v v v v v v v v n N R Q A 4.<.<.<.<.<.<.<.1.7.<.<.<.<.<.<.<.<.<.<.7.<.<.<.",
"<.<.<.<.<.7.<.<.<.<.<.<.<.<.<.<.<.<.<.<.1.<.<.P T v h v v h v v v v v v h h a 5 <.<.7.<.<.<.<.<.<.<.<.<.<.<.<.1.<.<.<.<.<.<.<.<.",
"<.<.<.<.<.<.<.<.<.<.<.<.<.<.<.<.<.<.<.<.7.<.<.5.U ^ M b v h v h v h v v f t V -.<.<.<.<.<.<.<.<.<.<.<.<.<.7.<.<.<.<.<.<.<.<.<.<.",
"7.<.7.<.7.<.7.1.<.<.7.<.7.1.7.<.7.<.<.<.<.1.<.7.8.Y ( ! N m b v v h h z l V *.<.7.1.=.<.<.7.1.7.7.<.<.7.<.<.7.<.<.7.<.<.7.<.<.7.",
"<.<.<.<.<.<.<.7.<.<.<.<.<.<.<.<.<.<.<.<.<.<.7.<.<.5.K T m v v v h h h s = *.<.<.<.<.7.<.<.<.<.<.<.<.<.7.<.7.<.<.<.<.<.<.1.<.7.<.",
"7.7.<.7.1.7.<.<.7.<.7.<.7.<.7.7.7.<.7.7.7.<.<.<.<.$.< r w.) Q N B Q F % , $.=.<.<.7.<.<.<.7.<.7.<.7.<.<.<.<.<.7.7.7.<.7.7.<.<.<.",
"<.<.7.<.<.<.7.<.7.<.7.<.<.7.7.<.<.7.<.<.<.<.7.<.4 X . . q e.u.y.r.9.> X . $ 4 <.7.7.<.7.7.7.<.<.<.7.<.7.<.7.<.1.<.<.<.<.<.<.7.<.",
"<.7.1.<.7.7.<.7.<.7.1.7.<.<.1.7.<.<.7.<.7.7.<.#.. . . . . : q.t.0.;     . . X #.<.<.7.1.<.<.7.<.7.<.7.<.<.7.7.7.<.7.7.<.7.7.<.7.",
"7.<.7.<.<.7.<.7.<.7.7.<.7.7.1.7.7.7.7.7.7.7.7.3     $     X $ 7 ;         X X 4 7.7.7.7.7.7.7.7.1.7.<.7.<.7.<.7.<.7.<.7.<.7.<.7.",
"<.7.<.7.7.<.7.<.<.7.<.7.<.7.7.<.7.7.7.7.7.7.7.7.$         X   $ X   X X X   $ =.7.7.7.7.7.7.7.7.7.<.7.<.7.<.7.<.7.<.7.<.7.<.7.<.",
"7.<.7.<.<.7.<.7.7.7.<.<.7.<.<.7.7.7.7.7.7.7.7.7.3 $         X             $ =.7.7.7.7.7.7.7.7.7.<.7.1.7.<.7.<.7.7.<.7.1.<.7.<.7.",
"7.7.7.7.7.7.7.<.7.<.7.7.7.7.<.7.7.7.7.7.7.7.7.7.7.$.2 $ $     X   X $ $ , $.7.<.7.7.7.7.7.7.7.7.7.<.7.7.7.7.7.<.<.7.7.7.7.<.7.7.",
"<.7.7.<.7.7.7.7.<.7.7.7.<.7.<.7.7.7.7.7.7.7.7.7.7.7.<.=.$.4 4 3 3 4 $.7.7.<.7.7.7.7.7.7.7.7.7.7.7.7.7.<.7.7.7.7.<.7.7.<.7.<.7.7.",
"<.7.7.<.7.7.7.<.7.7.<.<.7.7.<.7.7.7.7.7.7.7.7.7.=.=.7.7.7.7.7.7.=.=.7.=.7.7.7.7.7.7.7.7.7.7.7.7.<.7.7.7.7.7.<.7.7.7.7.7.7.7.7.7.",
"7.7.7.7.7.7.7.7.7.7.7.7.7.7.7.7.7.7.7.7.7.7.7.7.=.7.7.7.=.7.7.7.7.=.=.7.7.7.7.7.7.7.7.7.7.7.7.7.7.7.7.<.7.7.7.7.7.7.7.7.7.7.<.7.",
"7.7.7.7.<.7.7.7.7.7.7.7.7.7.7.7.7.7.7.7.7.7.7.7.7.7.=.7.7.7.=.7.7.7.7.7.7.7.7.7.7.7.7.7.7.7.7.7.7.7.7.7.<.7.7.7.7.7.7.7.<.7.7.7.",
"7.7.7.7.7.7.7.7.7.7.7.7.7.7.7.7.7.7.7.7.7.7.7.7.7.7.7.7.7.7.7.7.7.7.7.7.=.7.7.7.7.7.7.7.7.7.7.7.7.7.7.7.7.7.7.7.7.<.7.7.7.7.7.7.",
"7.7.7.7.7.7.7.7.7.7.7.7.7.7.<.7.7.7.7.7.7.7.7.7.7.7.7.7.7.7.7.7.7.7.7.7.7.7.7.7.7.7.7.7.7.7.7.7.7.7.7.7.7.7.7.7.7.7.7.7.7.7.7.7.",
"7.7.7.7.7.7.7.7.7.7.7.7.7.7.7.7.7.7.7.7.7.7.7.7.7.7.7.7.7.7.7.7.7.7.7.7.7.7.7.7.7.7.7.7.7.7.7.7.7.7.7.7.7.7.7.7.7.7.7.7.7.7.7.7.",
"7.7.7.7.7.7.7.7.7.7.7.7.7.7.7.7.7.7.7.7.7.7.7.7.7.7.7.7.7.7.7.7.7.7.7.7.7.7.7.7.7.7.7.7.7.7.7.7.7.7.7.7.7.7.7.7.7.7.7.7.7.7.7.7.",
"7.7.7.7.7.7.7.7.7.7.7.7.7.7.7.7.7.7.7.7.7.7.7.7.7.7.7.7.7.7.7.7.7.7.7.7.7.7.7.7.7.7.7.7.7.7.7.7.7.7.7.7.7.7.7.7.7.7.7.7.7.7.7.7.",
"7.7.7.7.7.7.7.7.7.7.7.7.7.7.7.7.7.7.7.7.7.7.7.7.7.7.7.7.7.7.7.7.7.7.7.7.7.7.7.7.7.7.7.7.7.7.7.7.7.7.7.7.7.7.7.7.7.7.7.7.7.7.7.7.",
"7.7.7.7.7.7.7.7.7.7.7.7.7.7.7.7.7.7.7.7.7.7.7.7.q 7.7.7.7.7.7.7.7.7.7.7.7.7.7.7.7.7.7.7.7.7.7.7.q 7.7.7.7.7.7.7.7.7.7.7.7.7.7.7.",
"7.q 7.7.7.7.7.7.7.7.7.7.7.7.7.7.7.7.7.7.7.7.7.7.7.7.7.7.7.7.7.7.7.7.7.7.7.7.7.7.7.7.7.7.7.7.7.7.7.7.7.7.7.7.7.7.7.7.7.7.7.7.7.7."
};
