/* XPM */
static char *result[] = {
/* columns rows colors chars-per-pixel */
"64 64 176 2 ",
"   c black",
".  c #1D1003",
"X  c #181818",
"o  c #2C1904",
"O  c #301B04",
"+  c #3F3F3F",
"@  c #703F0A",
"#  c #375D3E",
"$  c #395E3E",
"%  c #3B623F",
"&  c #72400A",
"*  c #7E460C",
"=  c #455F3A",
"-  c #556236",
";  c #586134",
":  c #6B652F",
">  c #76662B",
",  c #7E6728",
"<  c #74692E",
"1  c #666530",
"2  c #72793D",
"3  c #395F40",
"4  c #3B6342",
"5  c #4E4E4E",
"6  c #5A4E40",
"7  c #535353",
"8  c #416D49",
"9  c #45754E",
"0  c #48794F",
"q  c #467650",
"w  c #497A52",
"e  c gray39",
"r  c #727272",
"t  c #884C0D",
"y  c #9A6A1F",
"u  c #B86711",
"i  c #B46F1A",
"p  c #BE7116",
"a  c #B6751D",
"s  c #986B21",
"d  c #B37B23",
"f  c #CC7314",
"g  c #C3751A",
"h  c #C9791B",
"j  c #D37513",
"k  c #DA7B15",
"l  c #E37F15",
"z  c #CB7C26",
"x  c #C77A24",
"c  c #579D4F",
"v  c #4D8156",
"b  c #4F855A",
"n  c #50865B",
"m  c #538C5D",
"M  c #569756",
"N  c #5C9654",
"B  c #579A52",
"V  c #5A9953",
"C  c #56925C",
"Z  c #59935A",
"A  c #5C9858",
"S  c #748C48",
"D  c #67974E",
"F  c #6F974C",
"G  c #62984F",
"H  c #6A984C",
"J  c #74974A",
"K  c #79944B",
"L  c #629355",
"P  c #6C9452",
"I  c #62985B",
"U  c #749150",
"Y  c #698D51",
"T  c #558D62",
"R  c #6A9E62",
"E  c #73A367",
"W  c #9E802E",
"Q  c #84893E",
"!  c #988134",
"~  c #9E923D",
"^  c #96943F",
"/  c #A79437",
"(  c #AD9336",
")  c #A5923A",
"_  c #AD9039",
"`  c #BB9231",
"'  c #B69332",
"]  c #AC8F38",
"[  c #D8831C",
"{  c #E58015",
"}  c #EA8316",
"|  c #E98A1B",
" . c #F48916",
".. c #FF8E16",
"X. c #F48E1C",
"o. c #FF8F18",
"O. c #EB901F",
"+. c #F3901D",
"@. c #FF9119",
"#. c #CA852B",
"$. c #D78A28",
"%. c #CA922B",
"&. c #C3932D",
"*. c #DB9126",
"=. c #D1912A",
"-. c #CE8639",
";. c #CD8437",
":. c #C29030",
">. c #E49022",
",. c #EA9020",
"<. c #FF9626",
"1. c #FF992C",
"2. c #FF9B30",
"3. c #ED9434",
"4. c #FFA13D",
"5. c #839545",
"6. c #8E9442",
"7. c #839348",
"8. c #949341",
"9. c #869A53",
"0. c #8CAF7B",
"q. c #CE8A41",
"w. c #CE904F",
"e. c #D89C5D",
"r. c #E59948",
"t. c #FEA342",
"y. c #FEA84C",
"u. c #FFAE57",
"i. c #CE9C67",
"p. c #CDA478",
"a. c #FFB362",
"s. c #FFBE79",
"d. c #E8BD7E",
"f. c #FFC07E",
"g. c #939393",
"h. c gray67",
"j. c gray75",
"k. c #DBB48B",
"l. c #CEB59A",
"z. c #F3BF87",
"x. c #CDBDAB",
"c. c #B0C39A",
"v. c #FFC78C",
"b. c #FBC384",
"n. c #EAC297",
"m. c #F9C895",
"M. c #FFD19F",
"N. c #D2C1AF",
"B. c #C4D0AE",
"V. c #CFC6BC",
"C. c #C8D4B7",
"Z. c #FFD4A6",
"A. c #FFD8AF",
"S. c #E1C8AD",
"D. c #D4CDC6",
"F. c #D8D7C6",
"G. c #D5D4D4",
"H. c #DCDCDC",
"J. c #E1D5C8",
"K. c #FFE2C3",
"L. c #FFE6CA",
"P. c #FFEAD4",
"I. c #FBEBD9",
"U. c #E5E6D4",
"Y. c #DEDFE0",
"T. c #E5E5E5",
"R. c #EDEDED",
"E. c #ECEDE0",
"W. c #FFF1E2",
"Q. c #FFF5EA",
"!. c #F7F5ED",
"~. c #EDEEF0",
"^. c #F3F4F4",
"/. c #FEFAF6",
"(. c #FFFFFF",
"). c #F7F7F4",
/* pixels */
"c c c c c c c c c c c c c c c c c c c c c c c c c c c c c c c c c c c c c c c c c c c c c c c c c c c c c c c c c c c c c c c c ",
"c c c c c c c c c c c c c c c c c B c c c c c c c c c c c c c c c c c c c c c c c c c c c c c c c c c c c c c c c c c c c c c c ",
"c c c c c c c c c c c c c c c c c c c c c c c c c c c c c B c c c c c c c c c c c c c c c c c c c c c c c c c c c c c c c c c c ",
"c c c c c c c c c c c c c c c c c c c c c c c c c c c c c c c c c c c c c c c c c c c c c c c c c c c c c c B c c c c c c c c c ",
"B c B c c B c B B c c B c c c c c B c c c B c c c c c B c c B c B c c c c B c c c c B B B c c B c c c c B c B c c B c c c c B c ",
"c B c B B c B c c c c c c B c B B c c B c c B B B c B c c B c c c c c c c c c c B c c c c c B c B c c c c c c c c c B B c c B c ",
"c c B c c c c c B c B c c B B c B c c c B c c c c c c c B c B c B c c B B c B B c B B c c B B c B c B B B B B c B c c c c c c B ",
"B B B c B B B B B B c B B c B B c B B B B B B B B B B B B c B B B B V c B B c B c B B c B B c B c B B c B c c B B B B B V B c B ",
"c B B B B B B B c B B B c c B c B B c B c B B c c B B B B B B B c c V c B B B c B c B c B B B B c B B c c B B B B c B c B c B B ",
"B B c B B B B B B c c B B B B B c B B B c B B B B B c B B B B B B B B B B B B B B B B B B B B c B c B B B B B B B B B c B B B c ",
"B B B c c B B B B B B B B B B B B B B B B B B c B B B c B B B B B B c V B B B B B c B B B B B B B B B B B B B B c B B B B c B B ",
"B B B B B B B B B B B B B B B B B B B B B B B B B B B B B B B B B B V B B B B B B B B B B B B B B B B B B B B B B B B B B B B B ",
"B B B B B B B B B B B B B B B B B B B B B B B B B B B B B B B B B B B B B B B B B B B B B B B B B B B B B B B B B B B B B B B V ",
"B B B B B B M B M B B B B B B V B M B V B B M B B B B B M B B B B B B M B B B M B B B M M B B B B B B B M B B B B M B B V B B B ",
"B M B B B M B B B B B B B B G V B B B B M B M B V M B B B B B B B B M B M B M B B B B B B B B V V G V B V B B M B M B M B B B B ",
"B B B M B B M B M B B V V G ` &./ 5.H V M B B B B B B B M B B V B B B B B B B B V B B B N H 5./ &.` V B M B B B B B B M B M B B ",
"M B B B M B B B B M B B B V ' o.o.+.O.&./ K D B B B V B V B B M B V V B V B B B B G 5./ %.>.X.o.@.' B B M B B M B M M V B M B M ",
"B M M V V M M M B M M M B M ^ @.o.o.o.o.o.+.*./ K B M M B M B B M M B B V M M J / *.+.o.@.@...o.@.6.B M B M M B M B B M M B M B ",
"M M B M M M V M B B B B M M F O.o.o.o.o.@.@.....O./ J D K 6.~ / / ~ 6.J D J ( O.o.o.o.o.o.o.o.o.O.J M B B B B B V B B B M B B M ",
"M B M B B B M B M M M M B M N %.o.o.o.o.o...@.@.o.o.O.>.+.X.....o.@.X.X.>.,.o.o.o.o.o.o.o.o.o.o.%.N M M M M B M M M M M B M M B ",
"M B M B M B M B B M M B M B M / o.o.o.o.o.o.o.o.o.o.o.o.o.o.o.o.o.o.o.o.o.o.o.o.o.o.o.o.o.o.o.o.( B M B M M M M B M M B M M B M ",
"M M M M M M M M M M M M M M M ^ o.o.o.o.o.@.o.o.o.o.o.o.o.o.o.o.o.o.o.o.o.o.o.o.o.o.o.o.o.o.o.o.6.M M M M M M M M M M M M M M M ",
"M M M M M M M M M M M B M M M F O.o.o.o.o.o.o.o.o.o...o.o.o.o.o.o.o.o.o.o.o.o.o.o.o.o.o.o.o...| H M M B M M B M M M M M M B M M ",
"M M M M B M M M M M M M M M M N &.o.o.o.o.o.o.o.@.o.@.o.o.o.o.o.o.o.o.o.o.o.o.@.o.o.o.o.o.@.@.%.L B M M M M M E E M M M M M M M ",
"M M M M M M M M M M M M M M M M ^ o.o.o.o.@.o.o.o.o.o.o.@.o.o.o.o.o.o.o.o.@...@.o.o.o.o.o.o.o.^ M M M M M M R C.B.A M M M M M M ",
"M M M M M M M M M M M M M M M M H >.o.o.o.@.o.o.o.o.@.....o.o.o.o.o.o.o...@.o.@.o.o.o.o.o.o.*.D M M M C M M c./.!.0.M M M M M M ",
"M M M M C M M M M M M M C M M M L =.o.o.o...o.o.@...k t k o.o.o.o.o.@.k t k @.o.o.o.o.o.o.o.#.N M M M M M E E.(.(.F.A M M M M M ",
"C M M M M M M M M M C M M M M M 6.X.o.o.o.o.o.o.@.@.&   & o.o.o.o.o.o.@   & o.o.o.o.o.o.o.o.[ Q M M M M Z c./.(.(.).0.M M M M M ",
"M M M M M C M M M M C M M M M L =.o.o.o.o.o.o.o.@.} o   O } @.o.o.@.} o   O } @.o.o.o.o.o.o.} d A Z M Z R U.(.(.(.(.B.A M M M M ",
"M C C M M M C M M C M M M C C 7.X.o.o.o.o.o.o.o.@.{ .   . { o.o.o.@.{ .   . { @.o.o.o.o.o.o.X.f S M M M 9.b.K.W.W.K.z.L M C M C ",
"M M C M M M M M C M M M M M M ` o.o.o.o.o.o.o.o...{ .   . { @.o.o.@.{ .   . l @.o.o.o.o.o.o...j s N M M ~ o.<.2.2.<.+.7.C M M C ",
"C M M C C C C C M C C C C M L >.o.o.o.o.o.o.o.o.@.{ .   . { @.o.o.@.{ .   . { ..o.o.o.o.o.o...k ` L C Z ' o.o.....o.o.8.M M C M ",
"C M M M M C M C C M C M M Z K O.o.o.o.o.o.o.o.o.@.} o   o { o.o.o.o.{ O   O } @.o.o.o.o.o.o.o.l g S M J >.o.o.o.o.o.o.8.C C M M ",
"M C C C C M C M C M C M C C 6.o.o.o.o.o.o.o.o.o.o.o.&   @ o.o.<...@.@.&   & ..@.o.o.o.o.o.o.o.l f Q 7.*.o.o.o.o.o.o.o.6.C M C C ",
"C C M C C M M C M C M C C M ~ o.o.o...o.o.o.o.o.o.o.j * f u * t * t u f * f @.o.o.o.o.o.o...o.{ f [ X.o.o.o.o.o.o.o.>.P M C C M ",
"C M C M C C C C M C C C C C ) o.o.o...........o.o.o.o. .{ o         o {  ...o.o.......o.....o.l f { @.o.o.o.o.o.o.o.) m C C M C ",
"C M C C C C C C C C C M Z C ) o.o...4.s.v.v.f.a.t.1.<.@.l .         o l @.<.1.t.a.f.v.v.s.2.o.k f { @.o.o.o.o.o.o.:.L C C M C C ",
"C C C C M C C M C C C C C C ) o...t.P.(.(.(.(./.Q.P.K.A.z.;         ; n.A.K.I.Q./.(.(.(.(.P.t.j f } o.o.o.o.o.o.:.L C M C C C C ",
"C C C M C C Z C C M C C C C 6.o.@.v.(.(.(.(.(.(.(.(.(.(.(.G.7 X X 7 G.(.(.(.(.(.(.(.(.(.(.(.z.f f } @.o.o.o.>.~ L C C C C C C M ",
"C C C C C C C C C C C C C T U +.@.Z.(.(.(.(.(.(.(.(.(.(.R./.T.j.j.Y./.R.(.(.(.(.(.(.(.(.(.(.n.f j  .o.O.=.) P C C C C C C C C C ",
"C C C C C C C C C C C C C C L *.@.Z.(.(.(.(.(.(.(.(.(.R.e G.(.(.(.(.G.e R.(.(.(.(.(.(.(.(.(.k.f x ) 8.U L C C C C C C C C C C C ",
"C C C C C C C C C C C C C C T _ o.b.(.(.(.(.(.(.(.(.(./.r 5 h.G.H.h.5 r /.(.(.(.(.(.(.(.(.T.i.f s T C C C C C C C C C C C C C C ",
"C C C C C C C C C C C C C C C K | y.Q.(.(.(.(.(.(.(.(.(.~.g.7 + + 7 g.R.(.(.(.(.(.(.(.(.).D.;.g P C C C C C C C C C C C C C C C ",
"C C C C C C C T C T C C C T C Z ` @.Z.(.(.(.(.(.(.(.(.(.(.(.~.T.T.^.(.(.(.(.(.(.(.(.(.).H.p.f W C T C C C T T C C C T C C C T C ",
"C C C C C C C T T C C T T C T C U *.4.P.(.(.(.(.(.(.(.(.(.(.(.(.(.(.(.(.(.(.(.(.(.(.(.Y.x.z a Y C C C C C C C C C T C T C C C m ",
"T C T C T C C C C C C C C C C C m 2 | u.I.(.(.(.(.(.(.(.(.(.(.(.(.(.(.(.(.(.(.(.(.).Y.N.q.i 2 m C T T C T C T C C C C C T C C C ",
"C C C T T C T C C C C C C C C C v % < [ y.L.(.(.(.(.(.(.(.(.(.(.(.(.(.(.(.(.(.(.R.G.l.-.g : % v C T C C C C C C C T C C C C C C ",
"C T C T C C T C m C T T C T m C 0 % # : g 3.M.Q.(.(.(.(.(.(.(.(.(.(.(.(.(./.~.H.V.p.z i 1 # $ 0 T C C T C T T C T C T C T T C T ",
"T C T C T C T C T C T T T T T Z b 3 3 3 3 s z r.z.I.).(.(.(.(.(.(.(.).R.T.G.x.p.z x s 4 3 3 4 w C T C T T C T C T C I T T C T C ",
"C T C T C T C T T T C T Z C C T T q 3 3 3 3 1 s a ;.e.k.S.V.J.J.F.D.x.l.p.w.z p s 8 3 # # 3 q T T C T C C T C T C T T C T C C T ",
"C T T C C C C C T Z C C T C T Z T T q 4 3 4 4 3 = s y i x x z z z z x g i y s = 8 3 # # 4 q T T T C C T C C T C C C T T C T T C ",
"T C T T T T T T T T C T C T T T T T T w 4 4 4 3 # $ $ = ; : > > > > : ; = $ # # 3 3 4 q T T T T T T C T T T C T T T T C T C T T ",
"T C T T C T C T T C T C T T C T T T T T T T T q 8 4 4 4 3 3 % # 3 3 3 3 4 4 8 8 8 w T T T T T T C T T T C T C T C T C T T T C T ",
"T T T C C T T C T T T T T T T T T T T T T T T T T T n w w w 9 9 q q q w w n n T T T T T T T T T T T T C C T T C T T T T C T T T ",
"T C T T T T T T T T T T T T T C T T T T T T T T T T T m T T T T T T T T C T T T T T T T T T T T T T T T T T T T T T C T T T T T ",
"T T T T T T T T C T T C T T T T T T T T T T T T T m T T T T T T T T T T T T T T C T T T T T T T T C T T T T T T T T T T T T C T ",
"T T T T T T T T T T T T T T T C T T T T T T T T T T T T T T T T T T T T C T T T T T T T T T T T T T T T T T T T T T T T T T T T ",
"T T T T T T T T T T T T T T T T T T T T T T T T T T T T T T T T T T T T T T T T T T T T T T T T T T T T T T T T T T T T T T T C ",
"T T T T T T T T T T T T T T T T T T T T T T T T T T T T T T T T T T T T T T T T T T T T T T T T T T T T T T T T T T T T T T T T ",
"T T T T T T T T T T T T T T T T T T T T T T T T T T T T T T T T T T T T T T T T T T T T T T T T T T T T T T T T T T T T T T T T ",
"T T T T T T T T T T T T T T T T T T T T T T T T T T T T T T T T T T T T T T T T T T T T T T T T T T T T T T T T T T T T T T T T ",
"T T T T T T T T T T T T T T T T T T T T T T T T T T T T T T T T T T T T T T T T T T T T T T T T T T T T T r T T T T T T T T T T ",
"T T T T T T T T T T T T T T T T T T T T T T T T T T T T T w T T T T T T T T T T T T T T T T T T T T T T T T T T T T T T T T T T ",
"T T T T T r T T T T T T T T T T T T T T T T T T r T T T T T T T T T T r T T T T T T T T r T T T T T T T T T T T T T T T T T T T "
};
