/* XPM */
static char *result[] = {
/* columns rows colors chars-per-pixel */
"64 64 184 2 ",
"   c #000000",
".  c #0D0E0B",
"X  c #1D1003",
"o  c #0D130B",
"O  c #251503",
"+  c #271D0A",
"@  c #3E3E3E",
"#  c #293527",
"$  c #4B2B07",
"%  c #422506",
"&  c #542F08",
"*  c #324E31",
"=  c #375D3E",
"-  c #395E3E",
";  c #435F3B",
":  c #485F39",
">  c #44603B",
",  c #4C643B",
"<  c #5F6230",
"1  c #7A662A",
"2  c #626431",
"3  c #385F40",
"4  c #3B6443",
"5  c #3F6947",
"6  c #434343",
"7  c #535353",
"8  c #555C4D",
"9  c #446545",
"0  c #416D49",
"q  c #46754E",
"w  c #4A7B52",
"e  c #557051",
"r  c #767676",
"t  c #8C5011",
"y  c #97550E",
"u  c #A65D0F",
"i  c #A56E1F",
"p  c #AA6E1D",
"a  c #B16F1B",
"s  c #BC6D14",
"d  c #B7701A",
"f  c #8B6A26",
"g  c #9F6D20",
"h  c #936B24",
"j  c #9D792C",
"k  c #AF7B25",
"l  c #B47B24",
"z  c #C47216",
"x  c #CD7313",
"c  c #C3791B",
"v  c #D27513",
"b  c #DC7B15",
"n  c #E37F15",
"m  c #CE7A22",
"M  c #57824B",
"N  c #579D4F",
"B  c #4D8254",
"V  c #4D8158",
"C  c #508659",
"Z  c #538A5D",
"A  c #5B8F5A",
"S  c #569756",
"D  c #5B9555",
"F  c #579A52",
"G  c #5A9953",
"H  c #56925C",
"J  c #5B935A",
"K  c #5D995B",
"L  c #6D8F4B",
"P  c #62884B",
"I  c #7E8A43",
"U  c #6C944E",
"Y  c #66994D",
"T  c #66954D",
"R  c #7C9647",
"E  c #78954B",
"W  c #658A57",
"Q  c #639553",
"!  c #6A9253",
"~  c #729150",
"^  c #558D62",
"/  c #669B64",
"(  c #689867",
")  c #79A770",
"_  c #8A863B",
"`  c #978434",
"'  c #96943E",
"]  c #A6842F",
"[  c #BD8C2C",
"{  c #BB8022",
"}  c #A69537",
"|  c #A4923B",
" . c #AB9138",
".. c #B39235",
"X. c #BA9232",
"o. c #D7811B",
"O. c #E58115",
"+. c #EC8416",
"@. c #E58519",
"#. c #EC8F1F",
"$. c #E68B1E",
"%. c #F18716",
"&. c #F58A17",
"*. c #FE8E16",
"=. c #F58F1C",
"-. c #FF8F18",
";. c #F08718",
":. c #ED901E",
">. c #FF9019",
",. c #F2901D",
"<. c #DB8F24",
"1. c #C5912E",
"2. c #CB912B",
"3. c #DA9126",
"4. c #D29128",
"5. c #D69025",
"6. c #C29030",
"7. c #EB8F21",
"8. c #E49022",
"9. c #EA9020",
"0. c #FF9524",
"q. c #FF992D",
"w. c #EF9A3F",
"e. c #FF9B32",
"r. c #FF9F39",
"t. c #FFA13C",
"y. c #849443",
"u. c #8C9442",
"i. c #939341",
"p. c #849F5E",
"a. c #838F77",
"s. c #88977B",
"d. c #AF9A75",
"f. c #8CB17F",
"g. c #CB8840",
"h. c #C19D48",
"j. c #C4955E",
"k. c #FFA84B",
"l. c #FFAC53",
"z. c #FFB76B",
"x. c #FFB362",
"c. c #FFBA71",
"v. c #999F8B",
"b. c #9A9A9A",
"n. c #B39D86",
"m. c #8FAF83",
"M. c #95A58A",
"N. c #99B889",
"B. c #93B587",
"V. c #A5BC8F",
"C. c gray63",
"Z. c #AEB3A1",
"A. c #B8B8B6",
"S. c #ECBB88",
"D. c #ACC5A7",
"F. c #FFC383",
"G. c #FFC88C",
"H. c #FFCE97",
"J. c #FFD09E",
"K. c #C1D1B2",
"L. c #FFD3A3",
"P. c #FFD6AC",
"I. c #FFDDB9",
"U. c #CBCAC8",
"Y. c #CFDAC2",
"T. c #D1DAC2",
"R. c #CFD0D0",
"E. c #D5D5D4",
"W. c #DBD8D4",
"Q. c #E6D3C0",
"!. c #DCE1CF",
"~. c #DEE4D1",
"^. c #FCE3C8",
"/. c #E6E9DB",
"(. c #FFE9D2",
"). c #FFEEDB",
"_. c #E5E4E2",
"`. c #ECECEC",
"'. c #FFF2E3",
"]. c #FFF4E9",
"[. c #F3F4EC",
"{. c #F3F3F2",
"}. c #FEFAF4",
"|. c #FFFFFF",
/* pixels */
"N N N N N N N N N N N N N N N N N N N N N N N N N N N N N N N N N N N N N N N N N N N N N N N N N N N N N N N N N N N N N N N N ",
"N N N N N N N N N N N N N N N N N N N N N N N N N N N N N N N N N N N N N N N N N F N N N N N N N N N N N N N N N N N N N N N N ",
"N N N N N N N N N N N N N N N N N F N N N N N N N N N N N N N N N N N N N N N N N N N N N N N N N N N N F N N N N N N N N N N N ",
"N N N N N N N N N N N N N N N N N N N N N N N N N N N N F N N N N N N N N N N N N N N N N N N N N N N N N N N N N N N N N N N N ",
"F N N N F N N F N F N N N N N N N F N N F N N N N N N N F N N N N F N N N N N N N F N N F N N F N N F N F N F N N G N N N N N N ",
"N F F N N F F N N N N N N F F N N F F N N N F F F N F N F N F N N N N N N N F N N F N F N N F N F N N N N N N N F N N N N N N N ",
"N N N N N N N N F F N F F N F N N N F N N F N N N N N N N N N N G N N F F N F N N N F N N F N N N N N N F F N N N N N F G N F F ",
"F F F F F F F F F N F N F F N F F N F F N F F F F F F F F F F F N G F N F F N F F F N F N F F F F F F F F N F F F F G N N F F N ",
"F N N F F N N F N F N F N N F N N F F F N F F N F N N F N F F N F F N F F F F F F F N F F F N N N F F F N F F F F N F F N G F N ",
"F F F F F F F F F N F N F F N F F F N F N F F N F F F F F F N F N F N F F F F N N F N F N F F F F F N N F F F F F F N F F N F F ",
"N F F N N F F F F F F F F F F F F N F F F F N F N F F N F N F F F N F F F F F F F N F F N F F F F N F F F N F F N F F N F F N F ",
"F F F F F F F F F F F F F F F F F F F F F F F F F F F F F F F F F F G F F F F F F F F F F F F F F F F F F F F F F F F F F F F F ",
"F F F F F F F F F F F S F F F F F F F F F F F F F F F U } Y F F F F F F F F F F F F F F F F F F F F F F F F F F F F F F F F F F ",
"F F F F F F F F F F F F F F G F F F F S F S F F F F F y.,.4.R F F F F F F F F F F F S F F F F F F F F F S F F F F S F F F F F F ",
"F F F F S F S F F F F S F F G F G S S F F F F F F F F ' -.-.:.' G F F F S F F F F F F F F F F S F S F F F F F F F F F F F F F F ",
"F F S G F F S F F F S F F F F F F F F F F S F F F F F } >.*.>.=...Y F G F F S F F F F F F S S F F S F F F S F F S F S F F S F F ",
"S F S F S F S F F S F F S F S F S F F S F S F S F F G X.-.-.-.-.-.2.U F S F S G F S S F F F S F S S F S F S F F S F S F G G F S ",
"F S G F F S S G S F F S S G F S G F S G S F F F S G Q 4.-.-.-.-.-.>.3.R F S G F S G F S S S F S F F S F S F S G F S F S S F F G ",
"S S F F S F F S F S S F F F S F S F F F S F G S F G Y :.-.-.-.-.-.-.-.5.E S F F F S F F F S F F F F F S S F F S S F G F F F F F ",
"S F S S F S F S S F S F S S F S S S S S S S F S S F u.=.-.-.-.-.-.-.-.>.4._ G S F S S S F S S F S S S F F S S F F S S S S S S S ",
"S F S F S F S S S F S S F S S F F F S F F S S G u.X.,.-.-.-.-.-.-.-.-.-.-.@.{ ' Q F S S S S S F S S F S S F F S F S F S S F S S ",
"S S S S S S S S S S S S S S S S S S S S S G R 2.=.-.-.-.-.-.-.-.-.-.-.-.-.-.+.=.4.y.F S S S S S S S S S S S S S S S S S S S S S ",
"S S F S S S S F F S S S S S S S S S S S D | :.-.-.-.-.-.-.*.-.-.-.-.-.-.-.-.>.*.>.,. .Q S S S F S F S S S S S S S S S S S S S S ",
"S S S S S S S S S S S S S S S S S S F Q X.-.-.-.-.-.-.-.-.>.-.>.-.-.-.-.-.-.-.>.*.*.*.6.T S S S S S S S S S S S S F K S S S F S ",
"S S S S S S S S S S S S S S S S S S D X.>.*.>.-.-.-.-.-.-.-.-.*.-.-.-.-.-.-.-.-.-.-.-.-.[ D S S S S S S S S S S S B.N.F F S S S ",
"S S S S S S S S S H S S S S S S S G ..-.-.>.-.-.-.-.-.-.-.-.-.>.-.-.-.-.-.-.-.-.-.-.-.-.&.] D S S S S S S S S S ) /.~./ S S S S ",
"S S S S S S H S S S S S S S S S S i.=.&.O.*.-.-.>.*.-.-.-.-.-.>.-.-.-.-.-.-.-.-.-.-.>.*.*.O._ S S S S S S S S K D.|.}.N.S S S S ",
"H S S S S S S S S S S S H S S S ! 3.-.u O u -.-.-.>.-.-.-.-.-.*.-.>.-.-.-.-.-.-.-.-.-.-.*.*.c U S S S S S S S m.}.|.|.T.K S H S ",
"S S S S S H S S H S H S S S S J } >.%.$   $ &.>.-.*.-.-.-.-.-.-.-.>.-.-.-.-.-.-.-.-.-.-.*.*.n ` Z S S S H S K Y.|.|.|.[.) K S S ",
"H S S S H S S H H S S S S H S ~ 8.>.O.X   O O.-.-.>.-.-.-.-.-.-.-.-.-.-.-.-.-.-.-.-.-.-.*.*.+.c L S S H S S p.^.}.|.|.}.V.H H S ",
"S H S H S S H S S S H S S H S ' -.>.n X   X n -.-.-.-.-.-.-.-.-.-.-.-.-.-.-.-.-.-.-.-.-.>.-.&.v _ H H S H S ..e.x.F.G.z.h.G S S ",
"H S H S H S H S H S S H H S D 1.-.>.n X   X n >.-.-.-.-.-.-.-.-.-.-.-.-.-.-.-.-.-.-.-.-.-.-.*.b l D S H H ! 8.*.*.*.*.*.<.Q H H ",
"H S S S S H S S S H S S S S ! 8.*.>.O.X   O O.>.-.-.-.-.-.-.-.-.-.-.-.-.-.-.-.-.-.-.-.-.*.-.-.b c L H S H | -.-.-.-.-.-.9.! S S ",
"S H H H H S H H H S H S H H R =.>.*.;.%   & &.>.-.-.-.-.-.-.-.-.-.-.-.-.-.-.-.-.-.-.-.-.-.-.-.n x I H S u.7.-.-.-.-.-.-.7.! H H ",
"H H H S S H S H S H B M M P | -.-.-.-.y O u >.*.-.-.-.-.-.-.-.-.-.>.-.-.*.>.-.-.-.-.-.-.-.-.-.n x _ E X.=.-.-.-.-.-.-.-.9.! S H ",
"H S S H H J H H H - o . . + s *.-.-.*.+.x &.-.-.>.-.-.-.-.*.*.*.*.*.-.-.>.-.-.-.-.-.-.-.-.-.-.n x b ,.-.-.-.-.-.-.-.-.-.2.J S H ",
"H S H H S H H S S #         t >.*.*.*.*.*.*.*.*.*.*.*.*.>.q.q.e.q.>.-.-.-.-.-.-.-.-.-.-.-.-.-.n x n -.-.-.-.-.-.-.-.-.-.i.H H S ",
"H H H H H H H H Z *       . n.H.c.l.t.q.q.0.q.q.r.l.z.F.L.^.'.'.'.J.q.-.-.-.-.-.-.-.-.-.-.-.-.v x n -.-.-.-.-.-.-.-.-.6.Q ^ H H ",
"H H S H H H H H H W #   . r {.|.}.}.].'.).(.(.).'.}.}.|.|.|.|.|.|.|.F.>.-.-.-.-.-.-.-.-.-.-.*.v x @.-.-.-.-.-.-.-.-.2.! H S H H ",
"H H H H H H H H H / Z.b.A.{.|.|.|.|.|.|.|.|.}.|.|.|.|.|.|.|.|.|.|.|.I.>.*.-.-.-.-.-.-.-.-.-.O.x x ;.-.-.-.-.-.-.7.| Q H H H H H ",
"H H H H H H H H H H B.[.|.|.|.|.|.|.|.|.A.U.|.|.|.|.|.|.|.|.|.|.|.|.I.0.-.-.-.-.-.-.-.-.-.-.b x x 7.,.7.7.3.6.| ~ ^ H H H H H H ",
"H H H H H H H H H H ^ m.!.}.|.|.|.|.|.W.6 A.|.|.|.|.|.|.|.|.|.|.|.|.P.>.-.-.-.-.-.-.-.-.>.+.x x k ! ! ! ! Q J H H H H H H H H H ",
"H H H H H H H H H H H H / m.D.T._.E.C.6 r }.|.|.|.|.|.|.|.|.|.|.|.|.F.>.-.-.-.-.-.>.-.-.&.b x x _ H H H ^ H H H H H H H H H H H ",
"H H H Z ^ H H H H H H H H H Z / 8 @ 7 b.{.|.|.|.|.|.|.|.|.|.|.|.|.].k.-.-.-.-.-.-.*.>.*.n x x l W ^ H H ^ H H H H H ^ H A H A H ",
"H H H H H H H H H ^ H H H H H H M._.`.|.|.|.|.|.|.|.|.|.|.|.|.|.|.L.>.>.>.-.-.-.-.-.>.O.v x x _ J H H ^ H ^ H H H H H H ^ H H H ",
"^ H ^ H H ^ ^ H H H H ^ ^ H ^ H ( /.|.|.|.|.|.|.|.|.|.|.|.|.|.|.(.t.*.-.-.-.-.-.-.-.O.x x x j J H H H H H H H ^ ^ H ^ H H ^ H ^ ",
"H H H ^ H ^ H H H ^ H H H ^ ^ H Z s._.|.|.|.|.|.|.|.|.|.|.|.|.).l.*.-.-.-.-.-.-.&.n x x x g , C ^ H ^ H H ^ H H H ^ ^ H H H H ^ ",
"H ^ H ^ H H H ^ H H ^ ^ H H H H B 9 M.E.`.}.|.|.|.|.|.|.|.|.^.k.*.*.-.-.-.-.*.O.v x x x i , = q H H ^ H H ^ H ^ H H H H ^ ^ H H ",
"^ H ^ H H ^ H H ^ H H ^ H ^ ^ H w 3 5 b.U.R._.`.|.|.|.|.'.G.e.*.-.-.-.-.%.O.v x z x l 1 3 3 3 q ^ H ^ H H ^ H ^ H ^ H ^ H ^ H ^ ",
"H ^ H ^ ^ H H ^ H ^ ^ H ^ J H ^ ^ 0 3 5 a.A.U.R.R.W.Q.S.w.;.;.+.+.n b v v x x x z g < 3 3 3 4 V H ^ H ^ H ^ ^ H ^ H ^ H ^ H ^ J ",
"H H ^ J H ^ ^ H ^ H ^ ^ H ^ ^ H ^ V 0 3 4 w a.d.j.6.m x v x v x x x x x x z d h 2 9 3 3 3 4 w ^ H ^ ^ H ^ H H ^ H H H H ^ H H ^ ",
"^ ^ ^ ^ ^ H ^ ^ H ^ ^ H ^ H ^ ^ ^ ^ V q 4 3 3 3 2 1 f g p a a a a a p h 1 2 : - 3 3 3 4 q V ^ ^ ^ H ^ ^ H ^ ^ H ^ ^ ^ ^ ^ ^ H ^ ",
"^ ^ H ^ ^ H ^ H ^ H H ^ ^ ^ ^ H ^ ^ ^ ^ ^ w 0 3 3 3 3 3 ; ; ; ; ; ; ; 3 - 3 = 3 3 9 q C ^ ^ ^ ^ ^ H H ^ ^ H ^ ^ ^ H ^ H H ^ H ^ ",
"H ^ ^ ^ ^ ^ ^ H ^ ^ ^ ^ ^ H ^ ^ ^ ^ ^ ^ ^ ^ ^ ^ w e q 0 9 5 4 4 4 4 4 5 0 q w V Z ^ ^ ^ ^ ^ ^ ^ ^ ^ ^ ^ ^ ^ H ^ ^ ^ ^ ^ ^ ^ ^ ^ ",
"^ ^ ^ ^ ^ H ^ ^ ^ ^ H ^ ^ ^ ^ ^ ^ ^ ^ ^ ^ ^ ^ ^ ^ ^ ^ ^ ^ C ^ C ^ C ^ C Z ^ ^ ^ ^ ^ ^ ^ ^ ^ ^ ^ ^ ^ H ^ ^ H ^ ^ ^ ^ ^ ^ ^ ^ ^ ^ ",
"^ ^ H ^ ^ ^ ^ ^ ^ ^ ^ ^ ^ ^ H ^ ^ ^ ^ ^ ^ ^ ^ ^ ^ ^ ^ ^ ^ ^ ^ ^ ^ ^ ^ ^ ^ H ^ ^ ^ ^ ^ ^ ^ ^ ^ ^ ^ ^ ^ ^ ^ ^ ^ ^ ^ ^ H ^ ^ ^ H ^ ",
"^ ^ ^ ^ ^ ^ ^ ^ H ^ ^ ^ ^ ^ ^ ^ ^ ^ ^ ^ ^ ^ ^ ^ ^ ^ ^ ^ ^ ^ ^ ^ ^ ^ ^ ^ ^ ^ ^ Z ^ ^ ^ ^ ^ ^ ^ ^ ^ ^ ^ ^ ^ ^ ^ ^ H ^ ^ ^ ^ ^ ^ H ",
"^ ^ ^ ^ ^ ^ ^ ^ ^ ^ ^ ^ ^ ^ ^ ^ ^ ^ ^ ^ ^ ^ ^ ^ ^ ^ ^ ^ ^ ^ ^ ^ ^ ^ ^ ^ ^ ^ ^ ^ ^ ^ ^ ^ ^ ^ ^ ^ ^ ^ ^ ^ ^ ^ ^ ^ ^ ^ ^ ^ ^ ^ ^ ^ ",
"^ ^ ^ ^ ^ ^ ^ ^ ^ ^ ^ ^ ^ ^ ^ ^ ^ ^ ^ ^ ^ ^ ^ ^ ^ ^ ^ ^ ^ ^ ^ ^ ^ ^ ^ ^ ^ ^ ^ ^ ^ ^ ^ ^ ^ ^ ^ ^ ^ ^ ^ ^ ^ ^ ^ ^ ^ ^ ^ ^ ^ ^ ^ ^ ",
"^ ^ ^ ^ ^ ^ ^ ^ ^ ^ ^ ^ ^ ^ ^ ^ ^ ^ ^ ^ ^ ^ ^ ^ ^ ^ ^ ^ ^ ^ ^ ^ ^ ^ ^ ^ ^ ^ ^ ^ ^ ^ ^ ^ ^ ^ ^ ^ ^ ^ ^ ^ ^ ^ ^ ^ ^ ^ ^ ^ ^ ^ ^ ^ ",
"^ ^ ^ ^ r ^ ^ ^ ^ ^ ^ ^ ^ ^ ^ ^ ^ ^ ^ ^ ^ ^ ^ ^ ^ ^ ^ ^ ^ ^ ^ ^ ^ ^ ^ ^ ^ ^ ^ ^ ^ ^ ^ ^ ^ ^ ^ ^ ^ ^ ^ ^ ^ ^ ^ ^ ^ ^ ^ ^ ^ ^ ^ ^ ",
"^ ^ ^ ^ ^ ^ ^ ^ ^ ^ ^ ^ ^ ^ ^ ^ ^ ^ ^ ^ ^ ^ ^ ^ ^ ^ w ^ ^ ^ ^ ^ ^ ^ ^ ^ ^ ^ ^ ^ ^ ^ ^ ^ ^ ^ ^ ^ ^ ^ ^ ^ ^ ^ ^ ^ ^ ^ ^ ^ ^ ^ ^ ^ ",
"^ ^ ^ ^ ^ ^ ^ ^ ^ ^ ^ ^ ^ ^ ^ ^ ^ ^ ^ ^ ^ ^ ^ ^ ^ ^ ^ ^ ^ ^ ^ ^ r ^ ^ ^ ^ ^ ^ ^ ^ ^ r ^ ^ ^ ^ ^ ^ ^ ^ ^ ^ ^ ^ ^ ^ ^ ^ ^ ^ ^ ^ ^ ",
"^ ^ ^ ^ ^ ^ ^ ^ ^ ^ ^ ^ ^ ^ ^ ^ ^ ^ ^ ^ ^ r ^ ^ ^ ^ ^ ^ ^ ^ ^ ^ ^ ^ ^ ^ ^ ^ ^ ^ ^ ^ ^ ^ ^ ^ ^ ^ ^ ^ ^ ^ r ^ ^ ^ ^ ^ ^ ^ ^ ^ ^ ^ "
};
