/* XPM */
static char *result[] = {
/* columns rows colors chars-per-pixel */
"64 64 185 2 ",
"   c #000000",
".  c #0E0A03",
"X  c #0C0E0B",
"o  c #180E02",
"O  c #10100F",
"+  c #1F1E1C",
"@  c #0C120A",
"#  c #231403",
"$  c #2A1B07",
"%  c #331D05",
"&  c #1B2F1D",
"*  c #383939",
"=  c #673A0A",
"-  c #395E3E",
";  c #355838",
":  c #2A432B",
">  c #7D480F",
",  c #454A3F",
"<  c #435F3B",
"1  c #485F39",
"2  c #486039",
"3  c #5F6230",
"4  c #7A662A",
"5  c #626331",
"6  c #385F40",
"7  c #3C6443",
"8  c #3E6946",
"9  c #434343",
"0  c #416D49",
"q  c #486845",
"w  c #45734E",
"e  c #497B51",
"r  c #5B7754",
"t  c #6F6F6F",
"y  c #8B4E0D",
"u  c #90510D",
"i  c #A15E11",
"p  c #A56E1F",
"a  c #AA6E1E",
"s  c #B86711",
"d  c #B16F1B",
"f  c #B96811",
"g  c #BB761C",
"h  c #8B6926",
"j  c #976B23",
"k  c #AA7925",
"l  c #C67316",
"z  c #CD7313",
"x  c #D07513",
"c  c #D67915",
"v  c #DD7C15",
"b  c #E37E14",
"n  c #CE7B23",
"m  c #58824A",
"M  c #579D4F",
"N  c #4E8356",
"B  c #548E57",
"V  c #50875B",
"C  c #528A5D",
"Z  c #5F8E5E",
"A  c #569756",
"S  c #5B9555",
"D  c #579A52",
"F  c #5A9953",
"G  c #56925C",
"H  c #5A935A",
"J  c #66934E",
"K  c #66984D",
"L  c #72954C",
"P  c #789747",
"I  c #639453",
"U  c #6B9254",
"Y  c #629A5D",
"T  c #6B8949",
"R  c #558D62",
"E  c #659764",
"W  c #659D62",
"Q  c #709B6D",
"!  c #72A36B",
"~  c #7FA973",
"^  c #868A3C",
"/  c #948435",
"(  c #93943E",
")  c #9C943C",
"_  c #B78E2E",
"`  c #AA8832",
"'  c #A5923A",
"]  c #AA9239",
"[  c #AB9435",
"{  c #B69234",
"}  c #BE9131",
"|  c #DB8119",
" . c #E68116",
".. c #EA8316",
"X. c #ED8F1F",
"o. c #E88719",
"O. c #F08716",
"+. c #F78A17",
"@. c #FE8E16",
"#. c #F48F1C",
"$. c #FF8F18",
"%. c #EF901E",
"&. c #F3901D",
"*. c #FF9019",
"=. c #C68826",
"-. c #D88F28",
";. c #C4922E",
":. c #CC912B",
">. c #DC9026",
",. c #D29028",
"<. c #D69127",
"1. c #C39030",
"2. c #D68A38",
"3. c #E88F22",
"4. c #E49022",
"5. c #E99021",
"6. c #FF992C",
"7. c #FF9728",
"8. c #FF9C33",
"9. c #FF9F39",
"0. c #FFA13E",
"q. c #918F44",
"w. c #8C9443",
"e. c #829447",
"r. c #989142",
"t. c #B49C4B",
"y. c #87957C",
"u. c #889179",
"i. c #9B8873",
"p. c #B09A76",
"a. c #84A47A",
"s. c #8EB17F",
"d. c #92B27F",
"f. c #91A566",
"g. c #CC8941",
"h. c #C5965F",
"j. c #DEA15F",
"k. c #FFA84C",
"l. c #FEAC54",
"z. c #CFA477",
"x. c #D0A474",
"c. c #FFB66A",
"v. c #FFB567",
"b. c #FFBE78",
"n. c gray54",
"m. c #8A9F80",
"M. c #959691",
"N. c #9CA28F",
"B. c #9BB888",
"V. c #9CAF92",
"C. c #8BA981",
"Z. c #A0A592",
"A. c #B7BCAA",
"S. c #BDBCB7",
"D. c #B8B8B8",
"F. c gray66",
"G. c #CDBBA8",
"H. c #FFC485",
"J. c #FEC68A",
"K. c #FFCC96",
"L. c #FFD09D",
"P. c #C9D6B9",
"I. c #C3C5BA",
"U. c #FFD6AA",
"Y. c gray77",
"T. c #CDCDCD",
"R. c #CBC9C5",
"E. c #CDCED0",
"W. c #CFD0D0",
"Q. c #D4D4D3",
"!. c #D6DDC5",
"~. c #DAE0CB",
"^. c #FFE6CC",
"/. c #FFE2C4",
"(. c #FFEAD3",
"). c #FFEEDB",
"_. c #FAE7D0",
"`. c #E9E9E7",
"'. c #FAEEE0",
"]. c #EFF0E4",
"[. c #FFF1E3",
"{. c #FDF4EA",
"}. c #F4F4F5",
"|. c #FCF8F3",
" X c #FFFFFF",
/* pixels */
"M M M M M M M M M M M M M M M M M M M M M M M M M M M M M M M M M M M M M M M M M M M M M M M M M M M M M M M M M M M M M M M M ",
"M M M M M M M M M M M M M M M M M M M M M M M M M M M M M M M M M M M M M M M M M D M M M M M M M M M M M M M M M M M M M M M M ",
"M M M M M M M M M M M M M M M M M M M M M M M M M M M M M M M M M M M M M M M M M M M M M M M M M M M M M D M M M M M M M M M M ",
"M M M M M M M M M M M M M M M M M D M M M M M M M M M M M M M M M M M M M M M M M M M M M M M M M M M M M M M M M M M M M M M M ",
"D M M M D M M D M D M M M M M M M M M M M M M M M M M D M D D M D M M D M M D M M D M M D M M M M M D M D M M M M D M M M D M M ",
"M D D M M D D M M M M M M D D M M M M D M M D M M M M D M M M D M D M M D M D M M D M D M M D F D M M M D M D M M M D D M M M D ",
"M M M M M M M M D D M D D M D M D D D M D D D M D M D M D M D M M D M M M M M D M M M M M D M M M M M M M M M M D M M M D M D M ",
"D D D D D D D D D M D M D D M D M D M D D M D M D M D M D M D M M D D D D D D M D D D D M D D M D D D D D D D D D D D M D M D D ",
"D D D M D D M D M D M D M M D M D M D D D M M D D D D M D M M D D D D M M D D D M M D D D M D D M D D D D D D M M D D M D D D M ",
"M M D D M M D D D M D M D D M D D M D M D D D D M M D D D D D D D M D D D D M D D D D M M D M D D D M M M M D D D M D M D M D D ",
"D D M D D D D D D D D D D D D D D D D D M D M D D D M D M D D M M D M D D M D D M D D M D D D D D M M D D D D D D D M D M D M D ",
"D D D D D D D D D D D D D D D D D D D D D D M S D D D D D D D D D D M F D D D D D D D D D D D D D D D D D D D D D D D D D D D D ",
"D D D D D D D D D D D D D D D D D D D D D D F D D D D D D D D D D D K ) P D D D D D D D D D D D D D D D D D D D D D D D D D D D ",
"D D D D D D D D D D D D D D F D A D D D D D D A D D D D D D D A D P :.&.( D D D D D D D D D D D F D D D D D D F D D D D D D D D ",
"D D D D D A A A A D D A D D F D D D D A D D D D D D D D A D D M ( 5.*.$.) D D D D D F A D D D D A D D A D A F A A D A D D A A D ",
"D A D F D D D A D D D D D D D D A D D D D A D A D D A D D D K [ &.*.@.*.[ D D D A D D D A D D A F D D D D D D D D D D D D D D D ",
"A D A D A A D D D A D D A D A D A A A F D D A A D D A D A L ;.$.$.$.$.$.:.F D S D A D A D D A M D D A D A D D A D D D A D D D A ",
"D A D F D F D A A D D A A A D D A A A A D D A A A D D A L ,.@.*.$.$.$.$.>.J A M A D A D A M A A A D F A D A A D A A A D F A A D ",
"A D A A D A A F D D D D A D A D D D D D A D D A D A D L <.*.@.@.$.$.$.$.X.P M S D D A D D D D A A D D A D D D D D D F D A D D A ",
"D A A D A D A A A A A A A A F D A F D A F A D A D I P :.*.*.*.*.$.$.$.@.@.( S M A A D A A A A A A A D A A A A A A A A A A A D A ",
"D A D D A D A D A D A A D D A A A D A A D A A I ( :.&.$.@.$.$.$.$.$.$.$.*.| ` ^ I D D A A A A M D A A D A A D A D A D A D A D A ",
"A A D A A A A A A A A A A A A A A A A A D A e.:.#.@.*.*.*.$.$.$.$.$.$.$.@. .z x =.e.A A A A A A A A A A A A A A A A A A A A A A ",
"A A A A A A A A A D A A A A A A A A A A K ' &.*.$.*.*.$.$.$.$.$.$.$.$.$.*. .z ..*.&.' I A A A A A A A D A D A A A A A D A A A A ",
"A A A A A A A A A A A A A A A A D A A K } $.*.*.$.$.@.$.$.$.$.$.@.$.$.$.*. .v @.*.*.&.} J A A A A A A A A A A A A A A A A A A D ",
"A A A A D B.B.A D A A A A A A A A D I ;.*.@.$.*.$.$.$.$.$.$.$.$.*.$.$.$.*.O.+.*.$.@.$.$._ S A A A A A A A A A A A A A A A A A A ",
"A A A A H !.].~ A A A A A A A A A A { *.$.$.$.$.$.$.$.$.$.$.$.$.$.$.$.@.$.$.*.@.$.$.$.*.+.` A A A A A A A A A A A A A A A A A A ",
"A A A A s.|. XP.H A A A A A A A A ( #.@.$.$.$.$.$.$.$.@.*.$.$.$.$.@.$.*.$.$.@.*.$.$.@...+.o.^ A A G A A A A A A A A A G A A A A ",
"A A A H P. X X|.B.A G A A A A A L 5.*.@.$.$.$.$.$.$.$.*.@.$.$.$.$.*.$.$.$.$.$.$.$.*.f # u @.=.J A A A A A G A A A A A A A G A A ",
"G A H ! ]. X X X~.W A A G A A H { $.@.$.$.$.$.$.$.$.$.@.*.$.$.$.$.$.$.$.$.$.$.$.$.#.=   % ..o./ A A G A A G A G A A A A A A A A ",
"G A A B.|. X X|._.f.G A A A H L 5.$.$.$.$.$.$.$.$.$.$.$.$.$.$.$.$.$.$.$.$.$.$.$.$...%   o v +.g J B G A A G A A G A G A G A A G ",
"A A G t.v.H.H.v.9.} H A G A A ' $.$.$.$.$.$.$.$.$.$.$.$.$.$.$.$.$.$.$.$.$.$.$.@.*. .#   . f $.c ^ G A A A A A A A G A G A A G A ",
"G A I :.@.@.@.@.@.5.L A A G H ,.$.$.$.$.$.$.$.$.$.$.$.$.$.$.$.$.@.$.$.$.$.$.$.*.*.b #   . f *.v k S A G A G G A G A A G G G A G ",
"G G I 4.$.$.$.$.*.$.[ H A G L &.$.$.$.$.$.$.$.$.$.$.$.$.$.$.$.$.*.$.$.$.$.$.$.$.*...%   o c *. .g J A G G A A A A G A A G A A G ",
"A G I 3.$.$.$.$.$.$.&.r.H G q.#.$.*.@.$.$.$.$.$.$.$.$.$.$.$.$.$.$.$.$.*.$.$.$.$.$.@.=   % ..*...l L A G A A G G G A G A A G A G ",
"G A I -.$.$.$.$.$.$.$.#.} e.' $.$.$.$.$.$.$.*.$.$.$.$.$.$.$.$.$.$.*.@.@.$.*.$.$.$.*.f # y $.$...z / m r m N B A G G A G G A G A ",
"G G H } $.$.$.$.$.$.$.$.$.5.&.$.$.$.$.$.$.$.@.$.$.$.$.$.$.$.*.$.@.@.@.*.$.@.$.$.$.$.+.z ..@.$. .x i $ o X X ; G G A G G G G G G ",
"G A G w.#.$.$.$.$.$.$.$.$.$.$.$.$.$.$.$.$.$.$.$.$.$.$.$.$.@.*.6.8.6.7.*.@.@.@.@.@.@.@.@.@.@.@. .x >         & C G G G G G G G G ",
"G G G H { $.$.$.$.$.$.$.$.$.$.$.$.$.$.$.$.$.$.$.$.$.$.$.$.6.K.).{.[.^.U.H.c.l.9.6.7.6.6.6.9.l.j.x.i.O       : B G G A G A G G A ",
"G G G G I 1.#.$.*.@.$.$.$.$.$.$.$.*.$.$.$.$.$.@.$.$.$.$.@.b. X X X X X X X|.|.{.).(.(.(.'.{.{.W.E.R.t X   + Z H A G G G A G G G ",
"G G G G G I ' 4.$.$.$.$.$.$.$.$.$.@.$.$.*.$.$.*.$.$.$.$.*.U. X X X X X X X X X X X X X X X X}.E.T.W.I.M.t M.E H G G G G G G G G ",
"G G G G G G G U r.;.>.3.5.5.5.$.$.$.$.$.$.$.$.$.$.$.$.$.7.U. X X X X X X X X X X X XQ.D. X X`.R.T.T.T.Q.R.C.G G G G G G G G G G ",
"G G G G G G H H G H I U U U U :.$.$.$.$.$.$.$.$.$.$.$.$.$.L. X X X X X X X X X X X XY.* T.}.W.T.E.T.R.A.a.H G G G G G G G G G G ",
"G G G G G G B R G G G G G G G q.#.$.$.$.*.@.$.$.$.$.$.$.@.b. X X X X X X X X X X X X Xn.9 n.F.D.A.V.a.E G G G G G G G G G G G G ",
"G G G G G G G G R G G G R G G U >.$.$.$.$.$.$.$.$.$.$.$.@.0.). X X X X X X X X X X X X}.M.9 * , Z H G G G R G G G G B R G G G G ",
"G G G G R G R G G G G G G G G G q.#.@.@.$.$.$.$.$.$.$.$.$.$.K. X X X X X X X X X X X X}.Q.Y.S.y.B G R G G G H G G G G G G G G R ",
"R G R G G G G G R H R G R G R G Z ` @.@.$.$.$.$.$.$.$.$.$.@.9.^. X X X X X X X X X X`.W.T.T.I.Q R G R G G G R R G R G R R G G G ",
"G G G R R G R G G R G G G R R G V 2 k O.$.$.$.$.$.$.$.$.$.$.@.k.). X X X X X X X|.`.E.T.T.T.y.V G R G G R R R G R G G G R G R G ",
"G R R H G G R G G R G R G G G H e 7 1 k  .@.$.$.$.$.$.$.$.$.$.@.k./. X X X X|.`.Q.E.T.T.T.N.q e G G G R H G G G R G R G G G R G ",
"R G R G G R G R G G G R Z R R G w 6 6 6 4 n b O.+.@.@.$.$.$.$.$.@.8.J.).}.`.Q.E.E.E.E.E.M.0 6 w R G R G G R G R G R G R G R G R ",
"G R G R R G R G G R R G G G G R R 8 6 6 6 3 p l c b ....O.O.O.O...b v 2.x.G.R.T.E.E.D.n.8 6 7 R G R G R G R R G R G R G R G G Z ",
"G R R G R G G R R R G G G R R G R e 7 6 6 6 - 3 j d l z x x x x z z z z x n g.h.p.y.e 6 6 8 R R G R R G R G H R G G G G G G G G ",
"R G R R G R R G R G R R R G R R R R R w 7 6 6 6 6 1 5 4 j a d d d d d a p h 4 5 - - 6 6 w R R R R G R R G R R G R R R R R R R R ",
"R G G R G R R R R G R G R R R G R R R R R w 0 6 6 6 6 6 - < < < < < < < - - 6 7 7 0 e V R R R R R G G R R G R R R R R R R G R G ",
"R R R R R R G R R R R R R G R R R R R R R R R R e e w 0 0 7 7 7 6 7 7 0 0 w e e V C R R R R R R R R R R R R G R G R R R R R R R ",
"R R G R R R R R R R R R R R R R R R R R R R R R R R R R C C C V V V R R B R R G R R R R R R R R R R R R R G R R R R R G R G R R ",
"R R R R R G R R R G G R R G G R R R R R R R R R R R R R R R R R R R R R R R R R R R G R R R R R R R G R R R R R R R R R R R R R ",
"R R R R R R R R R R R R R R G R R R R R R R R R R R R R R R R R R R R R R R B R R R R R R R R R R R R R R R R R R R R R R R R R ",
"R R R R R R R R R R R R R R R R R R R R R R R R R R R R R R R R R R R R R R R R R R R R R R R R R R R R R R R R G R R R R R R R ",
"R R R R R R R R R R R R R R R R R R R R R R R R R R R R R R R R R R R R R R R R R R R R R R R R R R R R R R R R R R R R R R R R ",
"R R R R R R R R R R R R R R R R R R R R R R R R R R R R R R R R R R R R R R R R R R R R R R R R R R R R R R R R R R R R R R R R ",
"R R R R R R R R R R R R R R R R R R R R R R R R R R R R R R R R R R R R R R R R R R R R R R R R R R R R R R R t R R R R R R R R ",
"R R R R R R R R R R R R R R R R R R R R R R R R R R R R R R R R R R R R R R R R R R R R R R R R R R R R R R R R R R R R R R R R ",
"R R R R R R R R R R R R R R R R R R R R R R t R R R R R R R R R R R t R R R R R R R R R R R R R R R R R R R R R R R R R R R R R ",
"R R R R R R t R R R R R R R R R R R R R R R R R R R R R R R R R R R R R R R R R R R t R R R R R R R R R R R R R R R R R R R R R "
};
