/* XPM */
static char *result[] = {
/* columns rows colors chars-per-pixel */
"64 64 132 2 ",
"   c #375D3E",
".  c #395E3E",
"X  c #435F3B",
"o  c #485F39",
"O  c #42603D",
"+  c #496039",
"@  c #5F6333",
"#  c #7A672B",
"$  c #606432",
"%  c #787236",
"&  c #3B6343",
"*  c #3E6845",
"=  c #4D6C40",
"-  c #426D49",
";  c #45744E",
":  c #497B51",
">  c #B6701A",
",  c #BE771D",
"<  c #846929",
"1  c #906A25",
"2  c #9B6C21",
"3  c #967C30",
"4  c #A16E20",
"5  c #A87322",
"6  c #AD7C26",
"7  c #A57D2C",
"8  c #B37A24",
"9  c #C57316",
"0  c #CD7313",
"q  c #C0771B",
"w  c #CA7B1B",
"e  c #D27614",
"r  c #DB7B14",
"t  c #E17E15",
"y  c #579D4F",
"u  c #4E8257",
"i  c #50875B",
"p  c #528A5C",
"a  c #5D8E5E",
"s  c #569756",
"d  c #5C9555",
"f  c #579A52",
"g  c #5C9853",
"h  c #56925C",
"j  c #5A915A",
"k  c #688F4D",
"l  c #7A8A46",
"z  c #7F8E4F",
"x  c #66974F",
"c  c #6A954E",
"v  c #7D9547",
"b  c #70944E",
"n  c #7C9548",
"m  c #648E54",
"M  c #6A8D5A",
"N  c #738E55",
"B  c #639652",
"V  c #6B9153",
"C  c #609851",
"Z  c #558D62",
"A  c #5A8E62",
"S  c #5E9165",
"D  c #6E996E",
"F  c #6F9A71",
"G  c #729B72",
"H  c #7CA178",
"J  c #87873E",
"K  c #8C8539",
"L  c #908338",
"P  c #9E933C",
"I  c #B6812B",
"U  c #BF8D2D",
"Y  c #AE8933",
"T  c #A48D3D",
"R  c #A98D3C",
"E  c #B88E37",
"W  c #A4933A",
"Q  c #A8913A",
"!  c #BB9331",
"~  c #E58015",
"^  c #EC8416",
"/  c #E5871B",
"(  c #EE8F1F",
")  c #F18717",
"_  c #F58A17",
"`  c #FC8D16",
"'  c #F58F1C",
"]  c #FF8F18",
"[  c #EC901F",
"{  c #F2901D",
"}  c #FF9018",
"|  c #C68023",
" . c #CB8E2E",
".. c #D38F2B",
"X. c #C5922E",
"o. c #CD922A",
"O. c #DD9125",
"+. c #D09129",
"@. c #C08E34",
"#. c #E68F22",
"$. c #EA8E21",
"%. c #E69021",
"&. c #E99020",
"*. c #FF992D",
"=. c #818742",
"-. c #918E47",
";. c #988D46",
":. c #839645",
">. c #8D9541",
",. c #859249",
"<. c #919144",
"1. c #999140",
"2. c #A19E63",
"3. c #84A379",
"4. c #C4AB6B",
"5. c #FFB363",
"6. c #8AA981",
"7. c #90AA83",
"8. c #A7B691",
"9. c #A2B898",
"0. c #BEC8AA",
"q. c #FFC281",
"w. c #FFC588",
"e. c #FFC990",
"r. c #D2D9C6",
"t. c #DADFCE",
"y. c #FFE4C8",
"u. c #E3E5D6",
"i. c #EEEDE3",
"p. c #F6F5EE",
"a. c #FDFAF5",
"s. c #FFFFFE",
/* pixels */
"y y y y y y y y y y y y y y y y y y y y y y y y y y y y y y y y y y y y y y y y y y y y y y y y y y y y y y y y y y y y y y y y ",
"y y y y y y y y y y y y y y y y y y y y y y y y y y y y y y y y y y y y y y y y y y y y y y y y y y y y y y y y y y y y y y y y ",
"y y y y y y y y y y y y y y y y y y y y y y y y y y y y y y y y y y y y y y y y y y y y y y y y y y y y y y y y y y y y y y y y ",
"y y y y y y y y y y y y y y y y y f y y y y y y y y y y y y y y y y y y y y y y y y y y y y y y y y y y y f y y y y y y y y y y ",
"f y y f y y y f y y y y y y y y f y y f y y y y y y y f y f f y f y y f y y f y y y f y y y f y y f y f y y y f y y y f y y y y ",
"y f f y y f y f y f y y y f f y y y y y y f y y y y y f y y y f y y y y f y y y f y y f f f y y y y y y y y y y f f y y y y y y ",
"y y y y y y y y f f y f f y f y f y f f f f y f f y f y f y f y f y f y y y f f f y y y y y y f f y f f f f f y y f y f y y g y ",
"f f f f f f f f f y f y f f y f y f y y f y f y f y f y f y f y y f y f f f f y y f f f f f y f f y f y f y y f f y y f f f f f ",
"f y y f y f f f y f y f f y f y f y f y f f y f f y y f y f f f f f y f f y f f f y f f f y f f f y y f y f y f f y y f f f y f ",
"f f f f f f y y f y f y y f f f f f y f f y f f f f f f f f y y f y g y f y f y y f f y f f f y y f f y f y f f f f f f y f y f ",
"y f f y f y f f f f f f f f f f f f f f f f f y y f f y f y f f f f f f f f f f f y f f f f f f f f f f f f f f y f f y f f f f ",
"f f f f f f f f f f f f f f f f f f f f f f f f f f f f f f f f f f f y f f f f f f f f f f f f f f f f f f f f f f f f f g y f ",
"f f f f f f f f f f f f f f f f f f f f f f f f f f f f f f f f f f f f f f f f f f f f f f f f f f f f f f f f f f f f f f f f ",
"f f f f s s s f f f f s f f f f f f f s f f f f f f f f s f f f f f f s f f f s f f f f s f f f f f f f f f f s f f f s f f f f ",
"f s f f f f f f f s d s f f f f s f f s s f s f f s f s s s f f f f f d s f s f f f f f f s f s f s f s f f d f f s f f f f f f ",
"f s f f f f f f f f f f f f f f f f f f f f f f f f f f d f f f f f f f f f f f f f f f f f f f f f f f s f f f f f f f s f f s ",
"f f f f s f f f f f f s f f f f d s s f f s f s f f f f f f f f f f s f f s f s f s f s f s f f f s f f f f s f s f s f s f f s ",
"f s s f f s d s f f d s s s f s f f f s s f f f s f f s s s f s s s f f s f s s s f s f s f s s f d f s s f f d f s f f f s s f ",
"s s f s f s f s f s f s f f f s s f f f s f s f f s f f f B B x c B C f f f f f f f s f f s f f f s s s f s s f s f s s s f f s ",
"f s s f s f s f s f s s s g >.:.B g d s f s s d s g n P ! +.%.&.&.%.o.! P n f s s s f s s f f x :.>.g f s f s s f s s f f s f s ",
"s f f s s f f s f s f f s d X.' %.X.Q :.x f s C <.o.{ } ] ] ] ] } ] ] ] ] [ o.P B f g c :.W o.[ { X.f f f d s f f f s f s s f s ",
"s s s s s s s s s s s s s s W ] } } } ' %.X.Q +.' ] } } ] ] ] ] } ] ] ] ] ] ] ' +.Q X.%.' ] } ] } W s s s s s f s s s s s s s s ",
"s s s s s s s s s s s s s s n { ] ] ] ] } } } } ] ] ] ] ] ] ] ] ] ] ] ] ] ] ] ] ] ] ] ] ] ] ] ] { v s s s s s s s s s s s s s s ",
"s s s s s d s s s s s s s s B O.] ] } } } } } } ] ] ] ] ] ] ] ] } ] ] ] } ] ] ] ] ] ] ] ] ] ] ] O.B s s s s s s s s s s s s f s ",
"f s s s s s s s s s s s s s s ! ] } ] ] ] ] ] ] ] ] ] ] ] ] ] ] ] ] ] ] ] ] ] ] ] ] ] ] ] ] ] ] ! s s s s s s s s s s s s s s s ",
"s s s s s s s s s s s s s s s W ] ] ] ] ] ] ] ] ] ] ] ] ] ] ] ] ] ] ] ] ] ] ] ] ] ] ] ] ] ] ] ] 1.s s s s s s s s s s s s s s s ",
"h s s s s h s s s s s s s s s v ' ] ] ] ] ] ] ] } ] ] ] ] ] ] ] ] ] ] ] ] ] ] ] ] ] ] ] ] ] ] ' v d s s h s s s s s s s s s s s ",
"s s s s s s s s h s s s s s s B O.] ] ] ] ] ] ] ] ] ] ] ] } ] ] ] ] ] ] ] ] ] ] ] ] ] ] ] ] ] O.B s s s s s s s s s s s s s s s ",
"s s s s h s h s s s s s h s s d X.] ] ] ] ] ] ] ] ] ] ] ] ] ] ] ] ] ] ] ] ] ] } ] ] ] ] ] ] ] E s s s s h s s s h s s s A s s s ",
"s h h s h s s s s h s s h s j c %.] ] ] ] ] ] ] ] ] ] ] ] ] ] ] ] ] ] ] ] ] ] ] ] ] ] ] ] ] ] w V s s h s s s h s s h s s s A s ",
"s h s s s s s s s h s h s h s W ] ] ] ] ] ] ] ] ] ] ] ] ] ] ] ] ] ] ] ] ] ] ] ] ] ] ] ] ] ] ` e K h h s s h h s s h s h h s s s ",
"h s h s h s h h h s h s h s d  .] ] ] ] ] ] ] ] ] ] ] ] ] ] ] ] ] ] ] ] ] ] ] ] ] ] ] ] ] ] ` r 6 d s h s h s s h s s h s s h h ",
"s s s s s s s s s s s s h d b &.] ] ] ] ] ] ] ] ] ] ] ] ] ] ] ] ] ] ] ] ] ] ] ] ] ] ] ] ] ] ] r q c s s s s s s h s h s h h s h ",
"s A s Z Z d Z h h h h h s j ,.' ] ] ] ] ] ] ] ] ] ] ] ] ] ] ] ] ] ] ] ] ] ] ] ] ] ] ] ] ] ] ] ~ 9 l s j j h h h h h s h h s h s ",
"A h s s s s h s h s h s h h 1.' ] ] ] ] ] ] ] ] ] ] ] ] ] ] ] ] ] ] ] ] ] ] ] ] ] ] ] ] ] } ] ~ 0 J h h h s h s s s h h h s h h ",
"h s Z s s Z h s s Z h s h h W ] ] ] ] ] ] ] ] ] ] ] ] ] ] ] ] ] ] ] ] } ] ] ] ] ] ] ] ] ] ] ] ~ 0 K h h s h h h h h h s h h h s ",
"h h s h h h h h h h s h h h W ] ] ] ] ] ] ] ] ] ] ] ] ] ] ] ] ] ] ] ] ] ] ] ] ] ] ] ] ] ] ] ' ~ 0 L h h h h h h s h h h h h h h ",
"h h h h s h h h h h h h h h W ] ] ] ] ] ] ] ] ] ] ] ] ] ] ] ] ] ] ] ] ] ] ] ] ] ] ] ] ] ] ] ] r 0 K h s s h h h h h h h h s h h ",
"s s s s h h h h h h h h h s 1.} ] ] ] ] ] ] ] ] ] ] ] ] ] ] ] ] ] ] ] ] ] ] ] ] ] ] ] ] ] ] ` e 0 J h h h h h h h h h h h h h s ",
"Z Z h Z h h h h h h h h A j ,.{ ] ] ] ] ] ] ] ] ] ] ] ] ] ] ] ] ] ] ] } ] ] ] ] ] ] ] ] ] ] ^ 0 9 l h h h h h h h h h h h h h h ",
"s Z h h h h Z s h h h h h h V %.] ] ] ] ] ] ] ] ] ] ] ] ] ] ] ] ] ] ] ] ] ] ] ] } ] ] ] } ` ~ 0 , m h h h Z h h h h h h A h h h ",
"Z s h h j h Z h h h h h h p j @.] ] ] ] ] ] ] ] ] ] ] ] ] ] ] ] ] ] ] ] ] ] ] ] ] ] ] ] } _ 0 0 7 a h h h h h h h h h h h h h h ",
"s h h h h h s h h h h h h h h >.' ] ] ] ] ] ] ] ] ] ] ] ] ] ] ] ] ] ] ] ] ] ] ] ] ] ] ] ` r 0 0 =.h h h h h h h h h h h h h h h ",
"Z h Z h Z h h Z Z h h h A h h m ..] ] ] ] ] ] ] ] ] ] ] ] ] ] ] ] ] ] ] ] ] ] ] ] ] ] ] ^ 0 0 8 m h h Z h h h h A h h h p h Z h ",
"h h h h j Z s Z h Z h h Z h h h -.' ] ] ] ] ] ] ] ] ] ] ] ] ] ] ] ] ] ] ] ] ] ] ] ] ] ^ e 0 9 =.h h A h h Z h h Z h h h h h h A ",
"Z h Z h Z s s Z h h h Z h h Z h j Y ' ] ] ] ] ] ] ] ] ] ] ] ] ] ] ] ] ] ] ] ] ] ] ] ^ e 0 0 3 j p h Z h h h h Z h h Z h A h h h ",
"h Z h A h h Z Z h A Z h h Z h A p = 8 _ ] ] ] ] ] ] ] ] ] ] ] ] ] ] ] ] ] ] ] ] ` ~ e 0 0 2 + p h h h h h Z Z h Z h h Z h Z Z h ",
"h h h h S Z Z s Z h h h Z h a j : . o 5 ^ ] ] ] ] ] ] ] ] ] ] ] ] } ] ] ] ] ] ^ r 0 0 0 2 o & : Z Z h Z h A h h Z h h Z h h Z h ",
"Z Z h Z h Z h Z h Z s Z Z Z h Z :     & < w t ] ] ] ] ] ] ] ] ] ] ] ] ` _ ^ r e 0 0 , < X     : h A h Z h Z h h Z h Z h Z h Z s ",
"Z h Z h Z h Z h s Z Z h A h Z s Z *     . @ 4 0 r t ) t ] ] ] ] ] ] t r e 0 0 0 9 4 $ O     * p Z h h Z Z h Z Z h Z h Z h Z Z A ",
"h Z h Z Z Z Z Z Z s A Z Z h A Z Z : * & . . O @ 1 > 9 e ) ] ] ] ] ` r 0 0 9 > 1 $ X       - i Z h Z Z h h Z Z h Z Z h h s Z Z s ",
"Z Z h Z Z h h Z Z Z Z Z Z Z Z h Z Z Z ; & .     & o @ < #.] ] ] ] ] w 1 # $ o .       & ; i Z Z Z h Z Z Z h Z Z Z h Z Z A Z Z Z ",
"Z h h Z Z h h h h Z h Z h Z h Z Z Z Z Z : ; - & . . . O w ] ] ] ] ] 8 X   . &   . - : i Z Z Z Z Z h h Z Z h h Z Z Z Z Z Z Z Z h ",
"Z Z Z Z Z Z Z Z h Z Z Z Z Z Z Z Z Z Z Z Z Z Z Z : : ; - I ] ] ] ] ] ' % - ; : u i p A A Z Z Z Z Z Z Z Z Z Z Z Z Z h Z Z Z Z Z Z ",
"Z Z h Z Z Z h Z Z Z Z Z Z Z Z Z Z Z Z Z Z Z Z Z S Z Z Z T ] ] ] ] ] ] #.T V S Z Z Z Z Z Z Z Z Z Z Z Z Z Z Z Z Z Z h Z h Z h Z Z ",
"Z Z Z Z Z Z Z Z h Z h Z Z Z Z h Z Z Z Z Z Z Z Z Z Z Z Z z ( ] ] ] ] ] ] } %.4.3.S Z Z h Z Z Z Z Z Z h Z Z Z h Z Z Z Z Z Z Z Z Z ",
"Z Z Z Z Z Z Z Z Z Z Z Z Z Z Z h Z Z Z Z Z Z Z Z Z Z Z Z S  .] ] ] ] ] ] ] *.y.p.0.F : S A Z Z Z Z Z Z Z Z Z Z Z Z Z Z Z h Z Z Z ",
"Z Z Z Z Z Z Z Z Z Z Z Z Z Z Z Z Z Z Z Z Z Z Z Z Z Z Z Z A ;.' t ] ] ] ] ` 5.a.s.a.t.6.: Z Z Z Z Z Z Z Z Z Z Z Z Z Z Z Z Z Z Z Z ",
"Z Z Z Z Z Z Z Z Z Z Z Z Z Z Z Z Z Z Z Z Z Z Z Z Z Z Z Z A A @.*.] ] ] ] ] w.s.s.a.a.u.H Z Z Z Z Z Z Z Z Z Z Z Z Z Z Z Z Z Z Z Z ",
"Z Z Z Z Z Z Z Z Z Z Z Z Z Z Z Z Z Z Z Z Z Z Z Z Z Z Z Z Z Z M @.] ] ] ] ] e.s.s.p.p.i.9.A Z Z Z Z Z Z Z Z Z Z Z Z Z Z Z Z Z Z Z ",
"Z Z Z Z Z Z Z Z Z Z Z Z Z Z Z Z Z Z Z Z Z Z Z Z Z Z Z Z Z Z Z S E $.] ] ` q.p.i.t.9.F Z Z Z Z Z Z Z Z Z Z Z Z Z Z Z Z Z Z Z Z Z ",
"Z Z Z Z Z Z Z Z Z Z Z Z Z Z Z Z Z Z Z Z Z Z Z F Z Z Z Z Z Z : F A N ;.R R 2.7.G F Z Z Z Z Z Z Z Z Z Z Z S Z Z Z Z Z Z Z Z Z Z Z ",
"Z Z Z Z Z Z Z Z Z Z Z Z Z Z Z Z Z Z Z Z Z Z Z : Z Z Z : Z Z S S A Z Z Z Z Z Z Z Z Z Z Z Z Z Z Z Z Z Z Z S Z Z Z Z Z Z Z Z Z Z Z ",
"Z Z Z Z Z Z Z Z Z Z Z Z Z Z Z Z Z Z Z Z Z Z Z Z Z Z A S Z Z Z : Z Z Z Z Z Z Z Z Z Z Z Z Z Z Z Z Z Z Z Z : Z Z Z Z Z Z Z Z Z Z Z "
};
