/* XPM */
static char *result[] = {
/* columns rows colors chars-per-pixel */
"64 64 103 2 ",
"   c #507717",
".  c #547B17",
"X  c #537918",
"o  c #597B18",
"O  c #547D22",
"+  c #5C8E0F",
"@  c #5D940D",
"#  c #5E990B",
"$  c #578115",
"%  c #588414",
"&  c #5A8A11",
"*  c #5E9914",
"=  c #5E971C",
"-  c #5D991B",
";  c #61990D",
":  c #699C0C",
">  c #6C861C",
",  c #768A1E",
"<  c #5B8920",
"1  c #55812D",
"2  c #5D9724",
"3  c #5D9925",
"4  c #5C972A",
"5  c #5D9929",
"6  c #558333",
"7  c #56873D",
"8  c #56883F",
"9  c #5C9632",
"0  c #5B9833",
"q  c #5B973B",
"w  c #5B983B",
"e  c #568944",
"r  c #568C4B",
"t  c #5A9545",
"y  c #5A9843",
"u  c #58954D",
"i  c #579C4F",
"p  c #59984B",
"a  c #578F54",
"s  c #568E58",
"d  c #569756",
"f  c #5B9654",
"g  c #579A52",
"h  c #5C9951",
"j  c #56925C",
"k  c #6C9445",
"l  c #6C9B46",
"z  c #679B4D",
"x  c #69984E",
"c  c #649753",
"v  c #639950",
"b  c #558E62",
"n  c #86991A",
"m  c #9F991A",
"M  c #B59A0A",
"N  c #A79E1D",
"B  c #B49D12",
"V  c #82A514",
"C  c #92AA17",
"Z  c #B9B218",
"A  c #8E9823",
"S  c #929A24",
"D  c #839F3E",
"F  c #8DA03A",
"G  c #9DA232",
"H  c #A4A52E",
"J  c #AFA628",
"K  c #B6A625",
"L  c #B9A724",
"P  c #B3A528",
"I  c #ACB420",
"U  c #B3B722",
"Y  c #A0A132",
"T  c #CBAB04",
"R  c #D1A60A",
"E  c #C2A910",
"W  c #C7A91C",
"Q  c #CDAB1A",
"!  c #D9AC14",
"~  c #C3B316",
"^  c #E3AE0E",
"/  c #E9AF0B",
"(  c #E2B106",
")  c #EFB20C",
"_  c #FEB505",
"`  c #F3B30B",
"'  c #FEB709",
"]  c #FFB90C",
"[  c #FFBE14",
"{  c #C5B42E",
"}  c #FFC016",
"|  c #FFC21A",
" . c #DAC52E",
".. c #ECC32A",
"X. c #FFC622",
"o. c #FFC826",
"O. c #F6C92C",
"+. c #FFCC2C",
"@. c #EBC934",
"#. c #FFCF32",
"$. c #FFD136",
"%. c #FFD33A",
"&. c #829D40",
/* pixels */
"i i i i i i i i i i i i i i i i i i i i i i i i i i i i i i i i i i i i i i i i i i i i i i i i i i i i i i i i i i i i i i i i ",
"i i i i i i i i i i i i i i i i i i i i i i i i i i i i i i i i i i i i i i i i i i i i i i i i i i i i i i i i i i i i i i i i ",
"i i i i i i i i i i i i i i i i i i i i i i i i i i i i i i i i i i i i i i i i g i i i i i i i i i i i g i i g i i i i i i i i ",
"i i i i i i i i i i i i i i i i i g i i i i i i i i i i i i i i i i i i i i i i i i i i i i i i i i i i i i i i i i i i i i i i ",
"g i i g i i i g i i g i i i g i g i i g g i i i i i i i g i i g i i g i i i g i i h i i i i i g i i i i i i i i g i i i i i i i ",
"i g g i i g i g g i i i i i i i i g i i i i g g i i i i g i i g g i i i i g i i g i g i g g i i i i i i i g i i i i i i i i i i ",
"i i i i i i g i g i g i g g g g i i g i g i i i i g i g i i i i i g g i i g g i i i i i i g g i g i g g g g i g g i g g g i i g ",
"g g g g g g i g i g i g i i g i g i g i g g g g g i g i g h g g i g i g g i g g g g g g i g i g i g g i i g g i g g i g i g g i ",
"i g g g g i i g g i g g i g i g g g g g i g g i i g g g i g g g g i g g g i g g g g i g i g i g i g g i g i g i i g g g i i g g ",
"g g i i i g g g g g i i g i i g g g i g i g g i g g i g g g i i i g g i g i g i i g i g g g g i g i g i g g i h i g g g g g g i ",
"g i g g g g g g g g g g g g g g p g g g g i g g g i g i g i g g g g g g g g g g g i g g g g g g g g g g g g g g g g g g g g g i ",
"g g g g g g g g g g g g g g g g g g g g g g g g g g g g g g g g h g g g g g g g g h g g g g g g g g g g g g g g g g g g g g g g ",
"g g g g g g g g g g g g g g g g g g g g g g g g g g g g g g g g i g g g g g g g g g g g g g g g g g g g g g g g g g g g g g g g ",
"g g g g g d d g g d g g g g g g g g d g g d g g g g g g d d g d g g g g d g g g g g g g g g g g g g g g h g g d g d g g g g g g ",
"g d g g g g d g g g g g g f g g h g g d g g d g d g g g g g g g g d g g g g g g g g g d d g g g g d g g d g d g g g d g g g g g ",
"g g g g g g g g d g d g f g g g d g g g g d g g g g g g g g g d g g g d g d g d g d g g g g d g g g g d g g g g g d g g d g g g ",
"d g g g g f d g g d g g g d g g g d g g i i i g g g g g g f g g j g g g g g d u D L ^ ` _ / H p g g d g g d g d g d g d g g d g ",
"d g d g g g d d g d d g g d d g d g d g l 3 3 y g d g d g d g d g g d d g p F Q ` [ X.| ] _ _ H d h g d g g d g g g d g d g g d ",
"g d d d d f g g d g g d d g d d d g d d g p 3 # 3 p d g g g f d g g g g &.Q _ ] +.#.| ] | o.] / g d d g g g g i d d g g g d d g ",
"f d d g g g d d d g d g g d d g g d g d d d g 3 # * w d d d d d g j v P ` | o.] | ] ] +.%.X._ _ d g d d d d d d d g d d d g d d ",
"g d d g d d g d g d g d d g d d g d d g g d g u - # * y d g d d g &.! ] o.%.$.[ _ [ $.%.o.] | _ g d g d g d d d d d g d d g d g ",
"d d d d d d d d d d d d d d d d d d d d d d d d w # # - p d d g Y ` ] [ $.$.| ] ] ] #.$.[ | X.^ d d d d d d j g d d d d d d d d ",
"d d d d d g d d d d d d d d d d d d d d d d d d g - # # 0 d z P ` o.#.] [ [ ] +.$.[ [ [ ] $.[ L d g d d d d d d d d g d d d d d ",
"d d d d d d d d d d g d d d d d d d d d g d d d d 3 # # - l W ] #.%.%.o._ _ #.%.%.#.] _ | $.` F d d d d g d d d d d d d d d d d ",
"d d d d d d d d d d d d d d d d d d d d d d d d d 5 # # # E _ [ $.%.+.] ] ] X.$.$.+.] [ ] ] Q c d d d d d d d d d d d d d d d d ",
"d d d d d d d d d d d d d j d d d d d d d d d d d 2 # # # ~ +.] | o.] } $.o.] o.#.] [ $.X._ F d d d d d d d d d d d d d d d d d ",
"d d d d d d d d d d d j d d d d d d d d d d d d u * # # # U %.+.] _ | $.%.%.X.' ] [ $.%.[ Q f g d d d d d d d d d d d d d d d j ",
"d d d d d d j d d d d d d d d j d d d d j d d d w # # # # I %.+._ _ X.%.%.%.$.] _ | $.o.` &.j j d j d d j d d d d d d d d d d d ",
"d d j d d d d d j d d d d d d d d d d d d j d g - # # # # I +.' | o.' o.%.$.| ] X.] [ ] P d j d d d d j d j d j d d d d j j d d ",
"j d d d d j d j j d j d d j d d j d j d d d d 4 # # # # # Z ] | %.%.| ] o.| ] +.%.#.] ! x d d d d j d d d j d d j d j j d d j d ",
"d d d d d j d d d d d d d d d d d d j d d d w * # # # # # T [ $.%.%.%.| _ _ o.%.%.o.[ D j d d j j d d j d d d d d d d d d d d d ",
"j d j j j d j d j d j j j j j j j d d j j t * @ # # # # : ( [ $.%.%.%.| ' ] | %.#.] G j d j d j d d j d j d j j d j j d j j d j ",
"j d j g g j g j g j j d d j d j j d d d u = # # # # # # V O.] [ $.%.| ' o.+.] ] [ L f j d d j d d d d j j d d d j g g d j d j d ",
"d f j j j j j j j d j j j d j d d j j d 2 # # # # # # @ I %.#.] } } ] +.%.%.+.' W c j j j j d j j j j d d j j j j j j d d j j j ",
"j j j j j j j g j j j d j d j j j j j 9 # # # # # # # :  .%.%...R M m S A S N B k d j d d d j d j d j d d j j j j j j j j d j j ",
"j d j g j j j d d j j d j j d j j d t * # # # # # # @ C @.{ S > o .         . . O 6 r j j j j j j j j j j j d d j d d j j f j j ",
"j j d j j d j j j j j d j j j j j j 5 # # # # # # # # n , X   X X X X   X X . X X X O e f j j j j d j j j d j j j j j j j j j j ",
"j j j j j j j j j j j j j j j j j u * # # # # # # # + . X X X X X X X . X X X X X X X X e j j j j j j d j j j j d j j d d j d j ",
"d j j j j j j d j j j j j j j j j t # # # # # # # @ . X X X X X .   X X X O 1 6 1 O X X O u j j j j j j j j j j j j j j j j j j ",
"j j j j j j j j j j j j j j j j j t # # # # # # # $   . X X X X X X . O 8 a j j j a e O X O j j j j j j j j j j j j j j j j j j ",
"j j j j j j j j j j j j j j j j j t # # # # # # % X X X X X X X X X 6 a j j j j j j j r O o r j j j j j j j j j j j j j j j j j ",
"j j j j j j j j j j j j j j j j d 2 # # # # ; + o X X X X X X o X e j j j j j j j j b s r O O b j j j j j j j j j j j j j j j j ",
"j j j j j j j j j j j j j j j j 4 # # # # # @ . X X X X X X X O r j j j j j j j j j j j j r O f j j j j j j j j j j j j j j j j ",
"j j j j j j b b j b j j b j j j # # # # # # % X X X X X X X O s j j j j j j j b j j b j j b r r j j b j j j b j j j j j j j j b ",
"j b b j b j b j b j j j j b j b = # # # # & . X X X X O O v j j j b j j b j j j j j j j j j s s j j b j j j j j j j j j b b j j ",
"j j j j j j j j j j j b j j j j u = # # + . X X X o O O a j b j b j j b b j j j j b j b j b j b b j b j j b b j j j b j j j b j ",
"b j b j j j j j j b b j b j j j s f = @ $ X O r r r s j j j j j j j j j j j j b b b j j b b j j j b j j b j j j b b j b j b b j ",
"b j j j b b b b j b j j b j b j b s f < o 6 s b j j b j j b b j j b b j j b b j j j j b j j j b j j j b j j b b j j j b j b j j ",
"j b j b j b j b j b b j b b j b b b b b b b b b b b b b j b j b b j b j b b b b b b b b b b b b b b j b b j b b j b j j j b j b ",
"b j j b b j b j b j j b j b b j b b b b b b b b b b c b b j b j j b j b c b b c b b b b b b b b b j b j j b b b b j b j b j b j ",
"j b b j b b b b j j j j b j j b b b b b b b b b b b b b j b b j b j b j b b b b b b b b b b b b c b j b j j j j j j b b j b b j ",
"b j b b j j b j b b b b b b j b b b b b b b b b b b b b b j b b b b j b b b b b b b b b b b b b b b j b b b b b b b b j b j b b ",
"b b b j b b b j b j b b j b b j b b b b b b b b b b b b b b b j j j b b b b b b b b b b b b b b b b j b b j j b b j b j b j b b ",
"j b b b b j b j b b b j b b b b b b b b b b b b b b b b b j b j b b b b b b b b b b b b b b b b b b j b b b b b b b b b b b j b ",
"b b b j b b b b b b b b b j b b b b b b b b b b b b c b b b b b b b b j b b b b b b b b b b b b b b b b b b b b b b b b b b b b ",
"b b b b b b b b b j b b b b b b b b b b b b b b b b b b b b b b b b b b b b b b b b b b b b b b b b b b b b j b b b b b j b b b ",
"b b b b b b b b b b b b b b b b b b b b b b b b b b b b b b b b b b b b b b b b b b b b b b b b b b b b b b b b b j b b b b b b ",
"b b b b b b b b b b b b b b b b b b b b b b b b b b b b b b b b b b b b b b j b b b b b b b b b b b b b b b b b b b b b b b b b ",
"b b b b b b b b b b b b b b b b b b b b b b b b b b b b b b b b b b b b b b b b b b b b b b b b b b b b b b b b b b b b b b b b ",
"b b b b b b b b b b b b b b b b b b b b b b b b b b b b b b b b b b b b b b b b b b b b b b b b b b b b b b b b b b b b b b b b ",
"b b b b b b b b b b b b b b b b b b b b b b b b b b b b b b b b b b b b b b b b b b b b b b b b b b b b b b b b b b b b b b b b ",
"b b b b b b b b b b b b b b b b b b b b b b b b b b b b b b b b b b b b b b b b b b b b b b b b b b b b b b b b b b b b b b b b ",
"b b b b b b b b b b b b b b b b b b b b b b b b b b b b b b b b b b b b b b b b b b b b b b b b b b b b b b b b b b b b b b b b ",
"b b b b b b b b b b b b b b b b b b b b b b b b b b b b b b b b b b b b b b b b b b b b b b b b b b b b b b b b b b b b b b b b "
};
