/* XPM */
static char *d3d43a451089411fd794b544a932f9cfIWEyfm6PymLsrSjj[] = {
/* columns rows colors chars-per-pixel */
"64 64 146 2 ",
"   c #579D4E",
".  c #579D4F",
"X  c #CAE0C8",
"o  c #FAFCF9",
"O  c #F7FAF7",
"+  c #BED9BB",
"@  c #579C4F",
"#  c gray95",
"$  c #FEFEFE",
"%  c #FDFDFD",
"&  c gray85",
"*  c #E1D8D8",
"=  c #E1E1E1",
"-  c #B5AAAA",
";  c #83854F",
":  c #579C50",
">  c #E96565",
",  c #E78686",
"<  c #E78383",
"1  c #BB4B4B",
"2  c #EA5050",
"3  c #D15D50",
"4  c #927E50",
"5  c #599B50",
"6  c #BC4040",
"7  c #DA5850",
"8  c #A07650",
"9  c #5E9850",
"0  c #579B50",
"q  c #E15550",
"w  c #AC6F50",
"e  c #669450",
"r  c #579B51",
"t  c #E65250",
"y  c #B96850",
"u  c #708E51",
"i  c #E95050",
"p  c #C46350",
"a  c #7E8750",
"s  c #D05D50",
"d  c #8F7D50",
"f  c #599A51",
"g  c #579A51",
"h  c #D95950",
"j  c #9D7650",
"k  c #5D9751",
"l  c #579A52",
"z  c #E05550",
"x  c #AB7051",
"c  c #649352",
"v  c #E55250",
"b  c #B76A51",
"n  c #6E8E51",
"m  c #579953",
"M  c #E95150",
"N  c #C26451",
"B  c #7B8752",
"V  c #569953",
"C  c #C66151",
"Z  c #8F7C51",
"A  c #679052",
"S  c #C36351",
"D  c #8C7E51",
"F  c #659153",
"G  c #579954",
"H  c #BF6551",
"J  c #8B7F52",
"K  c #649354",
"L  c #579854",
"P  c #E75150",
"I  c #BA6751",
"U  c #888052",
"Y  c #629354",
"T  c #569854",
"R  c #B66951",
"E  c #838252",
"W  c #5E9454",
"Q  c #569855",
"!  c #E45350",
"~  c #B26A51",
"^  c #818253",
"/  c #5D9555",
"(  c #E25450",
")  c #AF6D52",
"_  c #7E8454",
"`  c #5B9555",
"'  c #569756",
"]  c #EA5959",
"[  c #BB4A4A",
"{  c #7C8554",
"}  c #5B9556",
"|  c #E2CCCC",
" . c #E4ABAB",
".. c #E4ADAD",
"X. c gray71",
"o. c #569657",
"O. c #569658",
"+. c #569558",
"@. c #569459",
"#. c #569559",
"$. c #56945A",
"%. c #56935A",
"&. c #56935B",
"*. c #56925C",
"=. c #56915D",
"-. c #56915E",
";. c #4F8556",
":. c #508657",
">. c #55915E",
",. c #497D51",
"<. c #3A6340",
"1. c #375E3D",
"2. c #3B6542",
"3. c #4C8254",
"4. c #55905E",
"5. c #4B7F53",
"6. c #375D3D",
"7. c #4F8657",
"8. c #56905F",
"9. c #46764E",
"0. c #385D3D",
"q. c #98A89B",
"w. c #CFD2CF",
"e. c #BFC3C0",
"r. c #7A8C7C",
"t. c #4C8054",
"y. c #548D5D",
"u. c #3F6945",
"i. c #426E49",
"p. c #558E5E",
"a. c #55905F",
"s. c #558F5F",
"d. c #4C8155",
"f. c #42704A",
"g. c #3B6342",
"h. c #3B6442",
"j. c #43714A",
"k. c #4D8356",
"l. c #558F60",
"z. c #558F61",
"x. c #558E61",
"c. c #558E62",
"v. c #558D62",
"b. c #558D63",
"n. c #558C63",
"m. c #558C64",
/* pixels */
"                                                                                                                                ",
". . . . . . . . . . . . . . . . . . . . . . . . . . . . . . X o O + . . . . . . . . . . . . . . . . . . . . . . . . . . . . . . ",
"@ @ @ @ @ @ @ @ @ @ @ @ @ @ @ @ @ @ @ @ @ @ @ @ @ @ @ @ @ @ # $ % & @ @ @ @ @ @ @ @ @ @ @ @ @ @ @ @ @ @ @ @ @ @ @ @ @ @ @ @ @ @ ",
"@ @ @ @ @ @ @ @ @ @ @ @ @ @ @ @ @ @ @ @ @ @ @ @ @ @ @ @ @ @ * = = - ; @ @ @ @ @ @ @ @ @ @ @ @ @ @ @ @ @ @ @ @ @ @ @ @ @ @ @ @ @ ",
": : : : : : : : : : : : : : : : : : : : : : : : : : : : : : > , < 1 2 3 4 5 : : : : : : : : : : : : : : : : : : : : : : : : : : ",
": : : : : : : : : : : : : : : : : : : : : : : : : : : : : : 2 2 2 6 2 2 2 7 8 9 : : : : : : : : : : : : : : : : : : : : : : : : ",
"0 0 0 0 0 0 0 0 0 0 0 0 0 0 0 0 0 0 0 0 0 0 0 0 0 0 0 0 0 0 2 2 2 6 2 2 2 2 2 q w e 0 0 0 0 0 0 0 0 0 0 0 0 0 0 0 0 0 0 0 0 0 0 ",
"r r r r r r r r r r r r r r r r r r r r r r r r r r r r r r 2 2 2 6 2 2 2 2 2 2 2 t y u r r r r r r r r r r r r r r r r r r r r ",
"r r r r r r r r r r r r r r r r r r r r r r r r r r r r r r 2 2 2 6 2 2 2 2 2 2 2 2 2 i p a r r r r r r r r r r r r r r r r r r ",
"r r r r r r r r r r r r r r r r r r r r r r r r r r r r r r 2 2 2 6 2 2 2 2 2 2 2 2 2 2 2 2 s d f r r r r r r r r r r r r r r r ",
"g g g g g g g g g g g g g g g g g g g g g g g g g g g g g g 2 2 2 6 2 2 2 2 2 2 2 2 2 2 2 2 2 2 h j k g g g g g g g g g g g g g ",
"l l l l l l l l l l l l l l l l l l l l l l l l l l l l l l 2 2 2 6 2 2 2 2 2 2 2 2 2 2 2 2 2 2 2 2 z x c l l l l l l l l l l l ",
"l l l l l l l l l l l l l l l l l l l l l l l l l l l l l l 2 2 2 6 2 2 2 2 2 2 2 2 2 2 2 2 2 2 2 2 2 2 v b n l l l l l l l l l ",
"m m m m m m m m m m m m m m m m m m m m m m m m m m m m m m 2 2 2 6 2 2 2 2 2 2 2 2 2 2 2 2 2 2 2 2 2 2 2 2 M N B m m m m m m m ",
"V V V V V V V V V V V V V V V V V V V V V V V V V V V V V V 2 2 2 6 2 2 2 2 2 2 2 2 2 2 2 2 2 2 2 2 2 2 2 2 C Z A V V V V V V V ",
"V V V V V V V V V V V V V V V V V V V V V V V V V V V V V V 2 2 2 6 2 2 2 2 2 2 2 2 2 2 2 2 2 2 2 2 i S D F V V V V V V V V V V ",
"G G G G G G G G G G G G G G G G G G G G G G G G G G G G G G 2 2 2 6 2 2 2 2 2 2 2 2 2 2 2 2 2 M H J K G G G G G G G G G G G G G ",
"L L L L L L L L L L L L L L L L L L L L L L L L L L L L L L 2 2 2 6 2 2 2 2 2 2 2 2 2 2 P I U Y L L L L L L L L L L L L L L L L ",
"T T T T T T T T T T T T T T T T T T T T T T T T T T T T T T 2 2 2 6 2 2 2 2 2 2 2 t R E W T T T T T T T T T T T T T T T T T T T ",
"Q Q Q Q Q Q Q Q Q Q Q Q Q Q Q Q Q Q Q Q Q Q Q Q Q Q Q Q Q Q 2 2 2 6 2 2 2 2 ! ~ ^ / Q Q Q Q Q Q Q Q Q Q Q Q Q Q Q Q Q Q Q Q Q Q ",
"Q Q Q Q Q Q Q Q Q Q Q Q Q Q Q Q Q Q Q Q Q Q Q Q Q Q Q Q Q Q 2 2 2 6 2 ( ) _ ` Q Q Q Q Q Q Q Q Q Q Q Q Q Q Q Q Q Q Q Q Q Q Q Q Q ",
"' ' ' ' ' ' ' ' ' ' ' ' ' ' ' ' ' ' ' ' ' ' ' ' ' ' ' ' ' ' ] 2 2 [ { } ' ' ' ' ' ' ' ' ' ' ' ' ' ' ' ' ' ' ' ' ' ' ' ' ' ' ' ' ",
"' ' ' ' ' ' ' ' ' ' ' ' ' ' ' ' ' ' ' ' ' ' ' ' ' ' ' ' ' ' |  ...- ' ' ' ' ' ' ' ' ' ' ' ' ' ' ' ' ' ' ' ' ' ' ' ' ' ' ' ' ' ' ",
"' ' ' ' ' ' ' ' ' ' ' ' ' ' ' ' ' ' ' ' ' ' ' ' ' ' ' ' ' ' = = = X.' ' ' ' ' ' ' ' ' ' ' ' ' ' ' ' ' ' ' ' ' ' ' ' ' ' ' ' ' ' ",
"' ' ' ' ' ' ' ' ' ' ' ' ' ' ' ' ' ' ' ' ' ' ' ' ' ' ' ' ' ' = = = X.' ' ' ' ' ' ' ' ' ' ' ' ' ' ' ' ' ' ' ' ' ' ' ' ' ' ' ' ' ' ",
"o.o.o.o.o.o.o.o.o.o.o.o.o.o.o.o.o.o.o.o.o.o.o.o.o.o.o.o.o.o.= = = X.o.o.o.o.o.o.o.o.o.o.o.o.o.o.o.o.o.o.o.o.o.o.o.o.o.o.o.o.o.o.",
"o.o.o.o.o.o.o.o.o.o.o.o.o.o.o.o.o.o.o.o.o.o.o.o.o.o.o.o.o.o.= = = X.o.o.o.o.o.o.o.o.o.o.o.o.o.o.o.o.o.o.o.o.o.o.o.o.o.o.o.o.o.o.",
"o.o.o.o.o.o.o.o.o.o.o.o.o.o.o.o.o.o.o.o.o.o.o.o.o.o.o.o.o.o.= = = X.o.o.o.o.o.o.o.o.o.o.o.o.o.o.o.o.o.o.o.o.o.o.o.o.o.o.o.o.o.o.",
"O.O.O.O.O.O.O.O.O.O.O.O.O.O.O.O.O.O.O.O.O.O.O.O.O.O.O.O.O.O.= = = X.O.O.O.O.O.O.O.O.O.O.O.O.O.O.O.O.O.O.O.O.O.O.O.O.O.O.O.O.O.O.",
"+.+.+.+.+.+.+.+.+.+.+.+.+.+.+.+.+.+.+.+.+.+.+.+.+.+.+.+.+.+.= = = X.+.+.+.+.+.+.+.+.+.+.+.+.+.+.+.+.+.+.+.+.+.+.+.+.+.+.+.+.+.+.",
"+.+.+.+.+.+.+.+.+.+.+.+.+.+.+.+.+.+.+.+.+.+.+.+.+.+.+.+.+.+.= = = X.+.+.+.+.+.+.+.+.+.+.+.+.+.+.+.+.+.+.+.+.+.+.+.+.+.+.+.+.+.+.",
"@.@.@.@.@.@.@.@.@.@.@.@.@.@.@.@.@.@.@.@.@.@.@.@.@.@.@.@.@.@.= = = X.@.@.@.@.@.@.@.@.@.@.@.@.@.@.@.@.@.@.@.@.@.@.@.@.@.@.@.@.@.@.",
"#.#.#.#.#.#.#.#.#.#.#.#.#.#.#.#.#.#.#.#.#.#.#.#.#.#.#.#.#.#.= = = X.#.#.#.#.#.#.#.#.#.#.#.#.#.#.#.#.#.#.#.#.#.#.#.#.#.#.#.#.#.#.",
"$.$.$.$.$.$.$.$.$.$.$.$.$.$.$.$.$.$.$.$.$.$.$.$.$.$.$.$.$.$.= = = X.$.$.$.$.$.$.$.$.$.$.$.$.$.$.$.$.$.$.$.$.$.$.$.$.$.$.$.$.$.$.",
"$.$.$.$.$.$.$.$.$.$.$.$.$.$.$.$.$.$.$.$.$.$.$.$.$.$.$.$.$.$.= = = X.$.$.$.$.$.$.$.$.$.$.$.$.$.$.$.$.$.$.$.$.$.$.$.$.$.$.$.$.$.$.",
"%.%.%.%.%.%.%.%.%.%.%.%.%.%.%.%.%.%.%.%.%.%.%.%.%.%.%.%.%.%.= = = X.%.%.%.%.%.%.%.%.%.%.%.%.%.%.%.%.%.%.%.%.%.%.%.%.%.%.%.%.%.%.",
"&.&.&.&.&.&.&.&.&.&.&.&.&.&.&.&.&.&.&.&.&.&.&.&.&.&.&.&.&.&.= = = X.&.&.&.&.&.&.&.&.&.&.&.&.&.&.&.&.&.&.&.&.&.&.&.&.&.&.&.&.&.&.",
"&.&.&.&.&.&.&.&.&.&.&.&.&.&.&.&.&.&.&.&.&.&.&.&.&.&.&.&.&.&.= = = X.&.&.&.&.&.&.&.&.&.&.&.&.&.&.&.&.&.&.&.&.&.&.&.&.&.&.&.&.&.&.",
"&.&.&.&.&.&.&.&.&.&.&.&.&.&.&.&.&.&.&.&.&.&.&.&.&.&.&.&.&.&.= = = X.&.&.&.&.&.&.&.&.&.&.&.&.&.&.&.&.&.&.&.&.&.&.&.&.&.&.&.&.&.&.",
"*.*.*.*.*.*.*.*.*.*.*.*.*.*.*.*.*.*.*.*.*.*.*.*.*.*.*.*.*.*.= = = X.*.*.*.*.*.*.*.*.*.*.*.*.*.*.*.*.*.*.*.*.*.*.*.*.*.*.*.*.*.*.",
"*.*.*.*.*.*.*.*.*.*.*.*.*.*.*.*.*.*.*.*.*.*.*.*.*.*.*.*.*.*.= = = X.*.*.*.*.*.*.*.*.*.*.*.*.*.*.*.*.*.*.*.*.*.*.*.*.*.*.*.*.*.*.",
"*.*.*.*.*.*.*.*.*.*.*.*.*.*.*.*.*.*.*.*.*.*.*.*.*.*.*.*.*.*.= = = X.*.*.*.*.*.*.*.*.*.*.*.*.*.*.*.*.*.*.*.*.*.*.*.*.*.*.*.*.*.*.",
"*.*.*.*.*.*.*.*.*.*.*.*.*.*.*.*.*.*.*.*.*.*.*.*.*.*.*.*.*.*.= = = X.*.*.*.*.*.*.*.*.*.*.*.*.*.*.*.*.*.*.*.*.*.*.*.*.*.*.*.*.*.*.",
"=.=.=.=.=.=.=.=.=.=.=.=.=.=.=.=.=.=.=.=.=.=.=.=.=.=.=.=.=.=.= = = X.=.=.=.=.=.=.=.=.=.=.=.=.=.=.=.=.=.=.=.=.=.=.=.=.=.=.=.=.=.=.",
"=.=.=.=.=.=.=.=.=.=.=.=.=.=.=.=.=.=.=.=.=.=.=.=.=.=.=.=.=.=.= = = X.=.=.=.=.=.=.=.=.=.=.=.=.=.=.=.=.=.=.=.=.=.=.=.=.=.=.=.=.=.=.",
"-.-.-.-.-.-.-.-.-.-.-.-.-.-.-.-.-.-.-.-.-.-.-.-.-.-.-.-.-.;.= = = X.:.-.-.-.-.-.-.-.-.-.-.-.-.-.-.-.-.-.-.-.-.-.-.-.-.-.-.-.-.-.",
">.>.>.>.>.>.>.>.>.>.>.>.>.>.>.>.>.>.>.>.>.>.>.>.>.>.>.,.<.1.= = = X.1.2.3.>.>.>.>.>.>.>.>.>.>.>.>.>.>.>.>.>.>.>.>.>.>.>.>.>.>.>.",
"4.4.4.4.4.4.4.4.4.4.4.4.4.4.4.4.4.4.4.4.4.4.4.4.4.4.5.6.6.6.= = = X.6.6.6.7.4.4.4.4.4.4.4.4.4.4.4.4.4.4.4.4.4.4.4.4.4.4.4.4.4.4.",
"8.8.8.8.8.8.8.8.8.8.8.8.8.8.8.8.8.8.8.8.8.8.8.8.8.8.9.0.0.0.q.w.e.r.0.0.0.t.8.8.8.8.8.8.8.8.8.8.8.8.8.8.8.8.8.8.8.8.8.8.8.8.8.8.",
"8.8.8.8.8.8.8.8.8.8.8.8.8.8.8.8.8.8.8.8.8.8.8.8.8.8.y.u.0.0.0.0.0.0.0.0.i.p.8.8.8.8.8.8.8.8.8.8.8.8.8.8.8.8.8.8.8.8.8.8.8.8.8.8.",
"a.a.a.a.a.a.a.a.a.a.a.a.a.a.a.a.a.a.a.a.a.a.a.a.a.a.a.s.d.f.g.6.6.h.j.k.s.a.a.a.a.a.a.a.a.a.a.a.a.a.a.a.a.a.a.a.a.a.a.a.a.a.a.a.",
"l.l.l.l.l.l.l.l.l.l.l.l.l.l.l.l.l.l.l.l.l.l.l.l.l.l.l.l.l.l.l.l.l.l.l.l.l.l.l.l.l.l.l.l.l.l.l.l.l.l.l.l.l.l.l.l.l.l.l.l.l.l.l.l.",
"l.l.l.l.l.l.l.l.l.l.l.l.l.l.l.l.l.l.l.l.l.l.l.l.l.l.l.l.l.l.l.l.l.l.l.l.l.l.l.l.l.l.l.l.l.l.l.l.l.l.l.l.l.l.l.l.l.l.l.l.l.l.l.l.",
"z.z.z.z.z.z.z.z.z.z.z.z.z.z.z.z.z.z.z.z.z.z.z.z.z.z.z.z.z.z.z.z.z.z.z.z.z.z.z.z.z.z.z.z.z.z.z.z.z.z.z.z.z.z.z.z.z.z.z.z.z.z.z.z.",
"x.x.x.x.x.x.x.x.x.x.x.x.x.x.x.x.x.x.x.x.x.x.x.x.x.x.x.x.x.x.x.x.x.x.x.x.x.x.x.x.x.x.x.x.x.x.x.x.x.x.x.x.x.x.x.x.x.x.x.x.x.x.x.x.",
"x.x.x.x.x.x.x.x.x.x.x.x.x.x.x.x.x.x.x.x.x.x.x.x.x.x.x.x.x.x.x.x.x.x.x.x.x.x.x.x.x.x.x.x.x.x.x.x.x.x.x.x.x.x.x.x.x.x.x.x.x.x.x.x.",
"x.x.x.x.x.x.x.x.x.x.x.x.x.x.x.x.x.x.x.x.x.x.x.x.x.x.x.x.x.x.x.x.x.x.x.x.x.x.x.x.x.x.x.x.x.x.x.x.x.x.x.x.x.x.x.x.x.x.x.x.x.x.x.x.",
"c.c.c.c.c.c.c.c.c.c.c.c.c.c.c.c.c.c.c.c.c.c.c.c.c.c.c.c.c.c.c.c.c.c.c.c.c.c.c.c.c.c.c.c.c.c.c.c.c.c.c.c.c.c.c.c.c.c.c.c.c.c.c.c.",
"v.v.v.v.v.v.v.v.v.v.v.v.v.v.v.v.v.v.v.v.v.v.v.v.v.v.v.v.v.v.v.v.v.v.v.v.v.v.v.v.v.v.v.v.v.v.v.v.v.v.v.v.v.v.v.v.v.v.v.v.v.v.v.v.",
"v.v.v.v.v.v.v.v.v.v.v.v.v.v.v.v.v.v.v.v.v.v.v.v.v.v.v.v.v.v.v.v.v.v.v.v.v.v.v.v.v.v.v.v.v.v.v.v.v.v.v.v.v.v.v.v.v.v.v.v.v.v.v.v.",
"b.b.b.b.b.b.b.b.b.b.b.b.b.b.b.b.b.b.b.b.b.b.b.b.b.b.b.b.b.b.b.b.b.b.b.b.b.b.b.b.b.b.b.b.b.b.b.b.b.b.b.b.b.b.b.b.b.b.b.b.b.b.b.b.",
"b.b.b.b.b.b.b.b.b.b.b.b.b.b.b.b.b.b.b.b.b.b.b.b.b.b.b.b.b.b.b.b.b.b.b.b.b.b.b.b.b.b.b.b.b.b.b.b.b.b.b.b.b.b.b.b.b.b.b.b.b.b.b.b.",
"n.n.n.n.n.n.n.n.n.n.n.n.n.n.n.n.n.n.n.n.n.n.n.n.n.n.n.n.n.n.n.n.n.n.n.n.n.n.n.n.n.n.n.n.n.n.n.n.n.n.n.n.n.n.n.n.n.n.n.n.n.n.n.n.",
"m.m.m.m.m.m.m.m.m.m.m.m.m.m.m.m.m.m.m.m.m.m.m.m.m.m.m.m.m.m.m.m.m.m.m.m.m.m.m.m.m.m.m.m.m.m.m.m.m.m.m.m.m.m.m.m.m.m.m.m.m.m.m.m."
};
