/* XPM */
static char *_075ce692070401f9ae5b2b33c5ff24eAZHUTMIzGJUEVOOp[] = {
/* columns rows colors chars-per-pixel */
"64 64 171 2 ",
"   c #579D4E",
".  c #579D4F",
"X  c #CAE0C8",
"o  c #FAFCF9",
"O  c #F7FAF7",
"+  c #BED9BB",
"@  c #579C4F",
"#  c gray95",
"$  c #FEFEFE",
"%  c #FDFDFD",
"&  c gray85",
"*  c #E1D8D8",
"=  c #E1E1E1",
"-  c #B5AAAA",
";  c #83854F",
":  c #579C50",
">  c #E96565",
",  c #E78686",
"<  c #E78383",
"1  c #BB4B4B",
"2  c #EA5050",
"3  c #D15D50",
"4  c #927E50",
"5  c #599B50",
"6  c #BC4040",
"7  c #DA5850",
"8  c #8D8050",
"9  c #579B50",
"0  c #DC5750",
"q  c #7C8850",
"w  c #579B51",
"e  c #E05550",
"r  c #AC7050",
"t  c #7C8851",
"y  c #E55250",
"u  c #BC6750",
"i  c #5C9851",
"p  c #E95050",
"a  c #878251",
"s  c #579A51",
"d  c #CE5E50",
"f  c #778A51",
"g  c #589A51",
"h  c #579A52",
"j  c #E65250",
"k  c #AC6F50",
"l  c #748B52",
"z  c #5E9652",
"x  c #589A52",
"c  c #E35350",
"v  c #BC6751",
"b  c #997951",
"n  c #679252",
"m  c #589952",
"M  c #579953",
"N  c #C26451",
"B  c #917C52",
"V  c #5E9653",
"C  c #589853",
"Z  c #5A9853",
"A  c #5B9753",
"S  c #569953",
"D  c #E95150",
"F  c #DE5650",
"G  c #5F9453",
"H  c #E85150",
"J  c #B96851",
"K  c #6B8F52",
"L  c #599753",
"P  c #579954",
"I  c #E75150",
"U  c #C06551",
"Y  c #B16C51",
"T  c #7D8653",
"R  c #599854",
"E  c #579854",
"W  c #6D8D53",
"Q  c #599754",
"!  c #569854",
"~  c #BC6651",
"^  c #C96051",
"/  c #DB5750",
"(  c #AE6D52",
")  c #897F53",
"_  c #6C8D53",
"`  c #5A9654",
"'  c #569855",
"]  c #E45350",
"[  c #B26A51",
"{  c #798653",
"}  c #579755",
"|  c #5E9455",
" . c #927B53",
".. c #E15450",
"X. c #D25C51",
"o. c #C16451",
"O. c #9D7553",
"+. c #758954",
"@. c #619355",
"#. c #599655",
"$. c #579855",
"%. c #E25450",
"&. c #AF6D52",
"*. c #7E8454",
"=. c #5B9555",
"-. c #5F9455",
";. c #728A54",
":. c #8F7C53",
">. c #8E7D53",
",. c #748954",
"<. c #569756",
"1. c #EA5959",
"2. c #BB4A4A",
"3. c #7C8554",
"4. c #5B9556",
"5. c #579756",
"6. c #E2CCCC",
"7. c #E4ABAB",
"8. c #E4ADAD",
"9. c gray71",
"0. c #569657",
"q. c #569658",
"w. c #569558",
"e. c #569459",
"r. c #569559",
"t. c #56945A",
"y. c #56935A",
"u. c #56935B",
"i. c #56925C",
"p. c #56915D",
"a. c #56915E",
"s. c #4F8556",
"d. c #508657",
"f. c #55915E",
"g. c #497D51",
"h. c #3A6340",
"j. c #375E3D",
"k. c #3B6542",
"l. c #4C8254",
"z. c #55905E",
"x. c #4B7F53",
"c. c #375D3D",
"v. c #4F8657",
"b. c #56905F",
"n. c #46764E",
"m. c #385D3D",
"M. c #98A89B",
"N. c #CFD2CF",
"B. c #BFC3C0",
"V. c #7A8C7C",
"C. c #4C8054",
"Z. c #548D5D",
"A. c #3F6945",
"S. c #426E49",
"D. c #558E5E",
"F. c #55905F",
"G. c #558F5F",
"H. c #4C8155",
"J. c #42704A",
"K. c #3B6342",
"L. c #3B6442",
"P. c #43714A",
"I. c #4D8356",
"U. c #558F60",
"Y. c #558F61",
"T. c #558E61",
"R. c #558E62",
"E. c #558D62",
"W. c #558D63",
"Q. c #558C63",
"!. c #558C64",
/* pixels */
"                                                                                                                                ",
". . . . . . . . . . . . . . . . . . . . . . . . . . . . . . X o O + . . . . . . . . . . . . . . . . . . . . . . . . . . . . . . ",
"@ @ @ @ @ @ @ @ @ @ @ @ @ @ @ @ @ @ @ @ @ @ @ @ @ @ @ @ @ @ # $ % & @ @ @ @ @ @ @ @ @ @ @ @ @ @ @ @ @ @ @ @ @ @ @ @ @ @ @ @ @ @ ",
"@ @ @ @ @ @ @ @ @ @ @ @ @ @ @ @ @ @ @ @ @ @ @ @ @ @ @ @ @ @ * = = - ; @ @ @ @ @ @ @ @ @ @ @ @ @ @ @ @ @ @ @ @ @ @ @ @ @ @ @ @ @ ",
": : : : : : : : : : : : : : : : : : : : : : : : : : : : : : > , < 1 2 3 4 5 : : : : : : : : : : : : : : : : : : : : : : : : : : ",
": : : : : : : : : : : : : : : : : : : : : : : : : : : : : : 2 2 2 6 2 2 2 7 8 : : : : : : : : : : : : : : : : : : : : : : : : : ",
"9 9 9 9 9 9 9 9 9 9 9 9 9 9 9 9 9 9 9 9 9 9 9 9 9 9 9 9 9 9 2 2 2 6 2 2 2 2 0 q 9 9 9 9 9 9 9 9 9 9 9 9 9 9 9 9 9 9 9 9 9 9 9 9 ",
"w w w w w w w w w w w w w w w w w w w w w w w w w w w w w w 2 2 2 6 2 2 2 2 e r t w w w w w w w w w w w w w w w w w w w w w w w ",
"w w w w w w w w w w w w w w w w w w w w w w w w w w w w w w 2 2 2 6 2 2 2 2 2 y u i w w w w w w w w w w w w w w w w w w w w w w ",
"w w w w w w w w w w w w w w w w w w w w w w w w w w w w w w 2 2 2 6 2 2 2 2 2 2 p a w w w w w w w w w w w w w w w w w w w w w w ",
"s s s s s s s s s s s s s s s s s s s s s s s s s s s s s s 2 2 2 6 2 2 2 2 2 2 2 d f g s s s s s s s s s s s s s s s s s s s s ",
"h h h h h h h h h h h h h h h h h h h h h h h h h h h h h h 2 2 2 6 2 2 2 2 2 2 2 j k l z h h h h h h x h h h h h h h h h h h h ",
"h h h h h h h h h h h h h h h h h h h h h h h h h h h h h h 2 2 2 6 2 2 2 2 2 2 2 2 c v b n h h h h h h h m h h h h h h h h h h ",
"M M M M M M M M M M M M M M M M M M M M M M M M M M M M M M 2 2 2 6 2 2 2 2 2 2 2 2 p e N B V M M M M M M M C Z A M M M M M M M ",
"S S S S S S S S S S S S S S S S S S S S S S S S S S S S S S 2 2 2 6 2 2 2 2 2 2 2 2 2 2 D F B G S S S S S S S S S S S S S S S S ",
"S S S S S S S S S S S S S S S S S S S S S S S S S S S S S S 2 2 2 6 2 2 2 2 2 2 2 2 j H 2 2 j J K L S S S S S S S S S S S S S S ",
"P P P P P P P P P P P P P P P P P P P P P P P P P P P P P P 2 2 2 6 2 2 2 2 2 2 2 2 2 D p 2 2 I U Y T R P P P P P P P P P P P P ",
"E E E E E E E E E E E E E E E E E E E E E E E E E E E E E E 2 2 2 6 2 2 2 2 2 2 2 2 2 H H 2 2 2 D D j N W Q E E E E E E E E E E ",
"! ! ! ! ! ! ! ! ! ! ! ! ! ! ! ! ! ! ! ! ! ! ! ! ! ! ! ! ! ! 2 2 2 6 2 2 2 2 2 2 2 e ~ ^ / D 2 2 p H H e ( ) _ ` ! ! ! ! ! ! ! ! ",
"' ' ' ' ' ' ' ' ' ' ' ' ' ' ' ' ' ' ' ' ' ' ' ' ' ' ' ' ' ' 2 2 2 6 2 2 2 2 ] [ { } ' |  .^ e ..X.o.U O.+.@.#.$.' ' ' ' ' ' ' ' ",
"' ' ' ' ' ' ' ' ' ' ' ' ' ' ' ' ' ' ' ' ' ' ' ' ' ' ' ' ' ' 2 2 2 6 2 %.&.*.=.' ' ' ' ' ' -.;.:.>.,.| $.' ' ' ' ' ' ' ' ' ' ' ' ",
"<.<.<.<.<.<.<.<.<.<.<.<.<.<.<.<.<.<.<.<.<.<.<.<.<.<.<.<.<.<.1.2 2 2.3.4.<.<.<.<.<.<.<.<.<.<.<.5.<.<.<.<.<.<.<.<.<.<.<.<.<.<.<.<.",
"<.<.<.<.<.<.<.<.<.<.<.<.<.<.<.<.<.<.<.<.<.<.<.<.<.<.<.<.<.<.6.7.8.- <.<.<.<.<.<.<.<.<.<.<.<.<.<.<.<.<.<.<.<.<.<.<.<.<.<.<.<.<.<.",
"<.<.<.<.<.<.<.<.<.<.<.<.<.<.<.<.<.<.<.<.<.<.<.<.<.<.<.<.<.<.= = = 9.<.<.<.<.<.<.<.<.<.<.<.<.<.<.<.<.<.<.<.<.<.<.<.<.<.<.<.<.<.<.",
"<.<.<.<.<.<.<.<.<.<.<.<.<.<.<.<.<.<.<.<.<.<.<.<.<.<.<.<.<.<.= = = 9.<.<.<.<.<.<.<.<.<.<.<.<.<.<.<.<.<.<.<.<.<.<.<.<.<.<.<.<.<.<.",
"0.0.0.0.0.0.0.0.0.0.0.0.0.0.0.0.0.0.0.0.0.0.0.0.0.0.0.0.0.0.= = = 9.0.0.0.0.0.0.0.0.0.0.0.0.0.0.0.0.0.0.0.0.0.0.0.0.0.0.0.0.0.0.",
"0.0.0.0.0.0.0.0.0.0.0.0.0.0.0.0.0.0.0.0.0.0.0.0.0.0.0.0.0.0.= = = 9.0.0.0.0.0.0.0.0.0.0.0.0.0.0.0.0.0.0.0.0.0.0.0.0.0.0.0.0.0.0.",
"0.0.0.0.0.0.0.0.0.0.0.0.0.0.0.0.0.0.0.0.0.0.0.0.0.0.0.0.0.0.= = = 9.0.0.0.0.0.0.0.0.0.0.0.0.0.0.0.0.0.0.0.0.0.0.0.0.0.0.0.0.0.0.",
"q.q.q.q.q.q.q.q.q.q.q.q.q.q.q.q.q.q.q.q.q.q.q.q.q.q.q.q.q.q.= = = 9.q.q.q.q.q.q.q.q.q.q.q.q.q.q.q.q.q.q.q.q.q.q.q.q.q.q.q.q.q.q.",
"w.w.w.w.w.w.w.w.w.w.w.w.w.w.w.w.w.w.w.w.w.w.w.w.w.w.w.w.w.w.= = = 9.w.w.w.w.w.w.w.w.w.w.w.w.w.w.w.w.w.w.w.w.w.w.w.w.w.w.w.w.w.w.",
"w.w.w.w.w.w.w.w.w.w.w.w.w.w.w.w.w.w.w.w.w.w.w.w.w.w.w.w.w.w.= = = 9.w.w.w.w.w.w.w.w.w.w.w.w.w.w.w.w.w.w.w.w.w.w.w.w.w.w.w.w.w.w.",
"e.e.e.e.e.e.e.e.e.e.e.e.e.e.e.e.e.e.e.e.e.e.e.e.e.e.e.e.e.e.= = = 9.e.e.e.e.e.e.e.e.e.e.e.e.e.e.e.e.e.e.e.e.e.e.e.e.e.e.e.e.e.e.",
"r.r.r.r.r.r.r.r.r.r.r.r.r.r.r.r.r.r.r.r.r.r.r.r.r.r.r.r.r.r.= = = 9.r.r.r.r.r.r.r.r.r.r.r.r.r.r.r.r.r.r.r.r.r.r.r.r.r.r.r.r.r.r.",
"t.t.t.t.t.t.t.t.t.t.t.t.t.t.t.t.t.t.t.t.t.t.t.t.t.t.t.t.t.t.= = = 9.t.t.t.t.t.t.t.t.t.t.t.t.t.t.t.t.t.t.t.t.t.t.t.t.t.t.t.t.t.t.",
"t.t.t.t.t.t.t.t.t.t.t.t.t.t.t.t.t.t.t.t.t.t.t.t.t.t.t.t.t.t.= = = 9.t.t.t.t.t.t.t.t.t.t.t.t.t.t.t.t.t.t.t.t.t.t.t.t.t.t.t.t.t.t.",
"y.y.y.y.y.y.y.y.y.y.y.y.y.y.y.y.y.y.y.y.y.y.y.y.y.y.y.y.y.y.= = = 9.y.y.y.y.y.y.y.y.y.y.y.y.y.y.y.y.y.y.y.y.y.y.y.y.y.y.y.y.y.y.",
"u.u.u.u.u.u.u.u.u.u.u.u.u.u.u.u.u.u.u.u.u.u.u.u.u.u.u.u.u.u.= = = 9.u.u.u.u.u.u.u.u.u.u.u.u.u.u.u.u.u.u.u.u.u.u.u.u.u.u.u.u.u.u.",
"u.u.u.u.u.u.u.u.u.u.u.u.u.u.u.u.u.u.u.u.u.u.u.u.u.u.u.u.u.u.= = = 9.u.u.u.u.u.u.u.u.u.u.u.u.u.u.u.u.u.u.u.u.u.u.u.u.u.u.u.u.u.u.",
"u.u.u.u.u.u.u.u.u.u.u.u.u.u.u.u.u.u.u.u.u.u.u.u.u.u.u.u.u.u.= = = 9.u.u.u.u.u.u.u.u.u.u.u.u.u.u.u.u.u.u.u.u.u.u.u.u.u.u.u.u.u.u.",
"i.i.i.i.i.i.i.i.i.i.i.i.i.i.i.i.i.i.i.i.i.i.i.i.i.i.i.i.i.i.= = = 9.i.i.i.i.i.i.i.i.i.i.i.i.i.i.i.i.i.i.i.i.i.i.i.i.i.i.i.i.i.i.",
"i.i.i.i.i.i.i.i.i.i.i.i.i.i.i.i.i.i.i.i.i.i.i.i.i.i.i.i.i.i.= = = 9.i.i.i.i.i.i.i.i.i.i.i.i.i.i.i.i.i.i.i.i.i.i.i.i.i.i.i.i.i.i.",
"i.i.i.i.i.i.i.i.i.i.i.i.i.i.i.i.i.i.i.i.i.i.i.i.i.i.i.i.i.i.= = = 9.i.i.i.i.i.i.i.i.i.i.i.i.i.i.i.i.i.i.i.i.i.i.i.i.i.i.i.i.i.i.",
"i.i.i.i.i.i.i.i.i.i.i.i.i.i.i.i.i.i.i.i.i.i.i.i.i.i.i.i.i.i.= = = 9.i.i.i.i.i.i.i.i.i.i.i.i.i.i.i.i.i.i.i.i.i.i.i.i.i.i.i.i.i.i.",
"p.p.p.p.p.p.p.p.p.p.p.p.p.p.p.p.p.p.p.p.p.p.p.p.p.p.p.p.p.p.= = = 9.p.p.p.p.p.p.p.p.p.p.p.p.p.p.p.p.p.p.p.p.p.p.p.p.p.p.p.p.p.p.",
"p.p.p.p.p.p.p.p.p.p.p.p.p.p.p.p.p.p.p.p.p.p.p.p.p.p.p.p.p.p.= = = 9.p.p.p.p.p.p.p.p.p.p.p.p.p.p.p.p.p.p.p.p.p.p.p.p.p.p.p.p.p.p.",
"a.a.a.a.a.a.a.a.a.a.a.a.a.a.a.a.a.a.a.a.a.a.a.a.a.a.a.a.a.s.= = = 9.d.a.a.a.a.a.a.a.a.a.a.a.a.a.a.a.a.a.a.a.a.a.a.a.a.a.a.a.a.a.",
"f.f.f.f.f.f.f.f.f.f.f.f.f.f.f.f.f.f.f.f.f.f.f.f.f.f.f.g.h.j.= = = 9.j.k.l.f.f.f.f.f.f.f.f.f.f.f.f.f.f.f.f.f.f.f.f.f.f.f.f.f.f.f.",
"z.z.z.z.z.z.z.z.z.z.z.z.z.z.z.z.z.z.z.z.z.z.z.z.z.z.x.c.c.c.= = = 9.c.c.c.v.z.z.z.z.z.z.z.z.z.z.z.z.z.z.z.z.z.z.z.z.z.z.z.z.z.z.",
"b.b.b.b.b.b.b.b.b.b.b.b.b.b.b.b.b.b.b.b.b.b.b.b.b.b.n.m.m.m.M.N.B.V.m.m.m.C.b.b.b.b.b.b.b.b.b.b.b.b.b.b.b.b.b.b.b.b.b.b.b.b.b.b.",
"b.b.b.b.b.b.b.b.b.b.b.b.b.b.b.b.b.b.b.b.b.b.b.b.b.b.Z.A.m.m.m.m.m.m.m.m.S.D.b.b.b.b.b.b.b.b.b.b.b.b.b.b.b.b.b.b.b.b.b.b.b.b.b.b.",
"F.F.F.F.F.F.F.F.F.F.F.F.F.F.F.F.F.F.F.F.F.F.F.F.F.F.F.G.H.J.K.c.c.L.P.I.G.F.F.F.F.F.F.F.F.F.F.F.F.F.F.F.F.F.F.F.F.F.F.F.F.F.F.F.",
"U.U.U.U.U.U.U.U.U.U.U.U.U.U.U.U.U.U.U.U.U.U.U.U.U.U.U.U.U.U.U.U.U.U.U.U.U.U.U.U.U.U.U.U.U.U.U.U.U.U.U.U.U.U.U.U.U.U.U.U.U.U.U.U.",
"U.U.U.U.U.U.U.U.U.U.U.U.U.U.U.U.U.U.U.U.U.U.U.U.U.U.U.U.U.U.U.U.U.U.U.U.U.U.U.U.U.U.U.U.U.U.U.U.U.U.U.U.U.U.U.U.U.U.U.U.U.U.U.U.",
"Y.Y.Y.Y.Y.Y.Y.Y.Y.Y.Y.Y.Y.Y.Y.Y.Y.Y.Y.Y.Y.Y.Y.Y.Y.Y.Y.Y.Y.Y.Y.Y.Y.Y.Y.Y.Y.Y.Y.Y.Y.Y.Y.Y.Y.Y.Y.Y.Y.Y.Y.Y.Y.Y.Y.Y.Y.Y.Y.Y.Y.Y.Y.Y.",
"T.T.T.T.T.T.T.T.T.T.T.T.T.T.T.T.T.T.T.T.T.T.T.T.T.T.T.T.T.T.T.T.T.T.T.T.T.T.T.T.T.T.T.T.T.T.T.T.T.T.T.T.T.T.T.T.T.T.T.T.T.T.T.T.",
"T.T.T.T.T.T.T.T.T.T.T.T.T.T.T.T.T.T.T.T.T.T.T.T.T.T.T.T.T.T.T.T.T.T.T.T.T.T.T.T.T.T.T.T.T.T.T.T.T.T.T.T.T.T.T.T.T.T.T.T.T.T.T.T.",
"T.T.T.T.T.T.T.T.T.T.T.T.T.T.T.T.T.T.T.T.T.T.T.T.T.T.T.T.T.T.T.T.T.T.T.T.T.T.T.T.T.T.T.T.T.T.T.T.T.T.T.T.T.T.T.T.T.T.T.T.T.T.T.T.",
"R.R.R.R.R.R.R.R.R.R.R.R.R.R.R.R.R.R.R.R.R.R.R.R.R.R.R.R.R.R.R.R.R.R.R.R.R.R.R.R.R.R.R.R.R.R.R.R.R.R.R.R.R.R.R.R.R.R.R.R.R.R.R.R.",
"E.E.E.E.E.E.E.E.E.E.E.E.E.E.E.E.E.E.E.E.E.E.E.E.E.E.E.E.E.E.E.E.E.E.E.E.E.E.E.E.E.E.E.E.E.E.E.E.E.E.E.E.E.E.E.E.E.E.E.E.E.E.E.E.",
"E.E.E.E.E.E.E.E.E.E.E.E.E.E.E.E.E.E.E.E.E.E.E.E.E.E.E.E.E.E.E.E.E.E.E.E.E.E.E.E.E.E.E.E.E.E.E.E.E.E.E.E.E.E.E.E.E.E.E.E.E.E.E.E.",
"W.W.W.W.W.W.W.W.W.W.W.W.W.W.W.W.W.W.W.W.W.W.W.W.W.W.W.W.W.W.W.W.W.W.W.W.W.W.W.W.W.W.W.W.W.W.W.W.W.W.W.W.W.W.W.W.W.W.W.W.W.W.W.W.",
"W.W.W.W.W.W.W.W.W.W.W.W.W.W.W.W.W.W.W.W.W.W.W.W.W.W.W.W.W.W.W.W.W.W.W.W.W.W.W.W.W.W.W.W.W.W.W.W.W.W.W.W.W.W.W.W.W.W.W.W.W.W.W.W.",
"Q.Q.Q.Q.Q.Q.Q.Q.Q.Q.Q.Q.Q.Q.Q.Q.Q.Q.Q.Q.Q.Q.Q.Q.Q.Q.Q.Q.Q.Q.Q.Q.Q.Q.Q.Q.Q.Q.Q.Q.Q.Q.Q.Q.Q.Q.Q.Q.Q.Q.Q.Q.Q.Q.Q.Q.Q.Q.Q.Q.Q.Q.Q.Q.",
"!.!.!.!.!.!.!.!.!.!.!.!.!.!.!.!.!.!.!.!.!.!.!.!.!.!.!.!.!.!.!.!.!.!.!.!.!.!.!.!.!.!.!.!.!.!.!.!.!.!.!.!.!.!.!.!.!.!.!.!.!.!.!.!."
};
