/* XPM */
static char *_63d8206bb8e492b8653219d163765c8ktPtucPUvi5rZYWk[] = {
/* columns rows colors chars-per-pixel */
"64 64 205 2 ",
"   c #579D4E",
".  c #579D4F",
"X  c #CAE0C8",
"o  c #FAFCF9",
"O  c #F7FAF7",
"+  c #BED9BB",
"@  c #579C4F",
"#  c gray95",
"$  c #FEFEFE",
"%  c #FDFDFD",
"&  c gray85",
"*  c #E1D8D8",
"=  c #E1E1E1",
"-  c #B5AAAA",
";  c #83854F",
":  c #579C50",
">  c #E96565",
",  c #E78686",
"<  c #E78383",
"1  c #BB4B4B",
"2  c #EA5050",
"3  c #D15D50",
"4  c #738D50",
"5  c #BC4040",
"6  c #A27550",
"7  c #579B50",
"8  c #E95050",
"9  c #B66A50",
"0  c #599A50",
"q  c #579B51",
"w  c #D85950",
"e  c #669351",
"r  c #E45350",
"t  c #8B8151",
"y  c #589B51",
"u  c #CA6050",
"i  c #609651",
"p  c #579A51",
"a  c #E55250",
"s  c #888151",
"d  c #569850",
"f  c #53934D",
"g  c #579A52",
"h  c #E95150",
"j  c #BB6751",
"k  c #599952",
"l  c #53934E",
"z  c #4F8B4A",
"x  c #579952",
"c  c #E05550",
"v  c #659352",
"b  c #51904D",
"n  c #4A8245",
"m  c #579953",
"M  c #728B52",
"N  c #579853",
"B  c #518E4D",
"V  c #467A42",
"C  c #569852",
"Z  c #569953",
"A  c #8D7E52",
"S  c #508E4D",
"D  c #559852",
"F  c #467C43",
"G  c #569853",
"H  c #B86951",
"J  c #589853",
"K  c #508F4D",
"L  c #498146",
"P  c #579954",
"I  c #BE4141",
"U  c #D95850",
"Y  c #708D53",
"T  c #559652",
"R  c #539150",
"E  c #569753",
"W  c #508D4D",
"Q  c #579854",
"!  c #BF4141",
"~  c #B66951",
"^  c #599754",
"/  c #569653",
"(  c #549251",
")  c #559452",
"_  c #569854",
"`  c #BD4040",
"'  c #7A8653",
"]  c #569754",
"[  c #549552",
"{  c #559753",
"}  c #569855",
"|  c #B66952",
" . c #589755",
".. c #559754",
"X. c #569755",
"o. c #E65250",
"O. c #698F54",
"+. c #569756",
"@. c #EA5959",
"#. c #BB4A4A",
"$. c #AE6D52",
"%. c #E85150",
"&. c #8A7E54",
"*. c #E2CCCC",
"=. c #E4ABAB",
"-. c #E4ADAD",
";. c #6A8D55",
":. c #CD5E51",
">. c #C16352",
",. c #5B9556",
"<. c gray71",
"1. c #678F55",
"2. c #B96752",
"3. c #8E7C54",
"4. c #5E9356",
"5. c #B56952",
"6. c #E15450",
"7. c #758855",
"8. c #569657",
"9. c #579657",
"0. c #808255",
"q. c #DF5550",
"w. c #B86852",
"e. c #609156",
"r. c #589557",
"t. c #838155",
"y. c #D95851",
"u. c #E75150",
"i. c #CC5E51",
"p. c #758755",
"a. c #5C9357",
"s. c #718956",
"d. c #8F7B54",
"f. c #9E7453",
"g. c #C86052",
"h. c #9E7454",
"j. c #668F56",
"k. c #569658",
"l. c #589558",
"z. c #5C9358",
"x. c #629057",
"c. c #678E57",
"v. c #6C8B57",
"b. c #6B8C57",
"n. c #569558",
"m. c #579558",
"M. c #5A9358",
"N. c #609057",
"B. c #628F57",
"V. c #5F9157",
"C. c #5E9158",
"Z. c #589458",
"A. c #599458",
"S. c #569459",
"D. c #579459",
"F. c #589359",
"G. c #579359",
"H. c #569559",
"J. c #579559",
"K. c #56945A",
"L. c #56935A",
"P. c #56935B",
"I. c #56925C",
"U. c #56915D",
"Y. c #56915E",
"T. c #4F8556",
"R. c #508657",
"E. c #55915E",
"W. c #497D51",
"Q. c #3A6340",
"!. c #375E3D",
"~. c #3B6542",
"^. c #4C8254",
"/. c #55905E",
"(. c #4B7F53",
"). c #375D3D",
"_. c #4F8657",
"`. c #56905F",
"'. c #46764E",
"]. c #385D3D",
"[. c #98A89B",
"{. c #CFD2CF",
"}. c #BFC3C0",
"|. c #7A8C7C",
" X c #4C8054",
".X c #548D5D",
"XX c #3F6945",
"oX c #426E49",
"OX c #558E5E",
"+X c #55905F",
"@X c #558F5F",
"#X c #4C8155",
"$X c #42704A",
"%X c #3B6342",
"&X c #3B6442",
"*X c #43714A",
"=X c #4D8356",
"-X c #558F60",
";X c #558F61",
":X c #558E61",
">X c #558E62",
",X c #558D62",
"<X c #558D63",
"1X c #558C63",
"2X c #558C64",
/* pixels */
"                                                                                                                                ",
". . . . . . . . . . . . . . . . . . . . . . . . . . . . . . X o O + . . . . . . . . . . . . . . . . . . . . . . . . . . . . . . ",
"@ @ @ @ @ @ @ @ @ @ @ @ @ @ @ @ @ @ @ @ @ @ @ @ @ @ @ @ @ @ # $ % & @ @ @ @ @ @ @ @ @ @ @ @ @ @ @ @ @ @ @ @ @ @ @ @ @ @ @ @ @ @ ",
"@ @ @ @ @ @ @ @ @ @ @ @ @ @ @ @ @ @ @ @ @ @ @ @ @ @ @ @ @ @ * = = - ; @ @ @ @ @ @ @ @ @ @ @ @ @ @ @ @ @ @ @ @ @ @ @ @ @ @ @ @ @ ",
": : : : : : : : : : : : : : : : : : : : : : : : : : : : : : > , < 1 2 3 4 : : : : : : : : : : : : : : : : : : : : : : : : : : : ",
": : : : : : : : : : : : : : : : : : : : : : : : : : : : : : 2 2 2 5 2 2 6 : : : : : : : : : : : : : : : : : : : : : : : : : : : ",
"7 7 7 7 7 7 7 7 7 7 7 7 7 7 7 7 7 7 7 7 7 7 7 7 7 7 7 7 7 7 2 2 2 5 2 8 9 0 7 7 7 7 7 7 7 7 7 7 7 7 7 7 7 7 7 7 7 7 7 7 7 7 7 7 ",
"q q q q q q q q q q q q q q q q q q q q q q q q q q q q q q 2 2 2 5 2 2 w e q q q q q q q q q q q q q q q q q q q q q q q q q q ",
"q q q q q q q q q q q q q q q q q q q q q q q q q q q q q q 2 2 2 5 2 2 r t y q q q q q q q q q q q q q q q q q q q q q q q q q ",
"q q q q q q q q q q q q q q q q q q q q q q q q q q q q q q 2 2 2 5 2 2 2 u i q q q q q q q q q q q q q q q q q q q q q q q p q ",
"p p p p p p p p p p p p p p p p p p p p p p p p p p p p p p 2 2 2 5 2 2 2 a s p p p p p p p p p p p p p p p p p p p p p d p f p ",
"g g g g g g g g g g g g g g g g g g g g g g g g g g g g g g 2 2 2 5 2 2 2 h j k g g g g g g g g g g g g g g g g g g g g l g z x ",
"g g g g g g g g g g g g g g g g g g g g g g g g g g g g g g 2 2 2 5 2 2 2 2 c v g g g g g g g g g g g g g g g g g g g g b g n x ",
"m m m m m m m m m m m m m m m m m m m m m m m m m m m m m m 2 2 2 5 2 2 2 2 r M m m m m m m m m m m m m m m m m m m m N B N V C ",
"Z Z Z Z Z Z Z Z Z Z Z Z Z Z Z Z Z Z Z Z Z Z Z Z Z Z Z Z Z Z 2 2 2 5 2 2 2 2 2 A Z Z Z Z Z Z Z Z Z Z Z Z Z Z Z Z Z Z Z Z S D F G ",
"Z Z Z Z Z Z Z Z Z Z Z Z Z Z Z Z Z Z Z Z Z Z Z Z Z Z Z Z Z Z 2 2 2 5 2 2 2 2 2 H J Z Z Z Z Z Z Z Z Z Z Z Z Z Z Z Z Z Z D K D L Z ",
"P P P P P P P P P P P P P P P P P P P P P P P P P P P P P P 2 2 2 I 2 2 2 2 2 U Y P P P P P P P P P P P P P P P P P P T R E W P ",
"Q Q Q Q Q Q Q Q Q Q Q Q Q Q Q Q Q Q Q Q Q Q Q Q Q Q Q Q Q Q 2 2 2 ! 2 2 2 2 2 2 ~ ^ Q Q Q Q Q Q Q Q Q Q Q Q Q Q Q Q Q / ( E ) Q ",
"_ _ _ _ _ _ _ _ _ _ _ _ _ _ _ _ _ _ _ _ _ _ _ _ _ _ _ _ _ _ 2 2 2 ` 2 2 2 2 2 2 h ' _ _ _ _ _ _ _ _ _ _ _ _ _ _ _ _ _ ] [ { ] _ ",
"} } } } } } } } } } } } } } } } } } } } } } } } } } } } } } 2 2 2 5 2 2 2 2 2 2 8 |  .} } } } } } } } } } } } } } } } } ..X.} } ",
"} } } } } } } } } } } } } } } } } } } } } } } } } } } } } } 2 2 2 5 2 2 2 2 2 2 2 o.O.} } } } } } } } } } } } } } } } } } } } } ",
"+.+.+.+.+.+.+.+.+.+.+.+.+.+.+.+.+.+.+.+.+.+.+.+.+.+.+.+.+.+.@.2 2 #.$.%.2 2 2 2 2 2 &.+.+.+.+.+.+.+.+.+.+.+.+.+.+.+.+.+.+.+.+.+.",
"+.+.+.+.+.+.+.+.+.+.+.+.+.+.+.+.+.+.+.+.+.+.+.+.+.+.+.+.+.+.*.=.-.- ;.:.%.2 2 2 2 2 >.,.+.+.+.+.+.+.+.+.+.+.+.+.+.+.+.+.+.+.+.+.",
"+.+.+.+.+.+.+.+.+.+.+.+.+.+.+.+.+.+.+.+.+.+.+.+.+.+.+.+.+.+.= = = <.+.1.2.8 2 2 2 2 %.3.+.+.+.+.+.+.+.+.+.+.+.+.+.+.+.+.+.+.+.+.",
"+.+.+.+.+.+.+.+.+.+.+.+.+.+.+.+.+.+.+.+.+.+.+.+.+.+.+.+.+.+.= = = <.+.+.4.5.8 2 2 2 2 6.7.+.+.+.+.+.+.+.+.+.+.+.+.+.+.+.+.+.+.+.",
"8.8.8.8.8.8.8.8.8.8.8.8.8.8.8.8.8.8.8.8.8.8.8.8.8.8.8.8.8.8.= = = <.8.8.8.9.0.q.2 2 2 8 w.e.8.8.8.8.8.8.8.8.8.8.8.8.8.8.8.8.8.8.",
"8.8.8.8.8.8.8.8.8.8.8.8.8.8.8.8.8.8.8.8.8.8.8.8.8.8.8.8.8.8.= = = <.8.8.8.8.r.t.y.o.u.8 i.p.8.8.8.8.8.8.8.8.8.8.8.8.8.8.8.8.8.8.",
"8.8.8.8.8.8.8.8.8.8.8.8.8.8.8.8.8.8.8.8.8.8.8.8.8.8.8.8.8.8.= = = <.8.8.8.8.8.a.s.d.f.g.h.j.8.8.8.8.8.8.8.8.8.8.8.8.8.8.8.8.8.8.",
"k.k.k.k.k.k.k.k.k.k.k.k.k.k.k.k.k.k.k.k.k.k.k.k.k.k.k.k.k.k.= = = <.k.k.k.k.k.l.z.x.c.v.b.z.k.k.k.k.k.k.k.k.k.k.k.k.k.k.k.k.k.k.",
"n.n.n.n.n.n.n.n.n.n.n.n.n.n.n.n.n.n.n.n.n.n.n.n.n.n.n.n.n.n.= = = <.n.n.n.n.n.m.M.N.B.V.C.Z.n.n.n.n.n.n.n.n.n.n.n.n.n.n.n.n.n.n.",
"n.n.n.n.n.n.n.n.n.n.n.n.n.n.n.n.n.n.n.n.n.n.n.n.n.n.n.n.n.n.= = = <.n.n.n.n.n.m.m.Z.Z.A.A.n.n.n.n.n.n.n.n.n.n.n.n.n.n.n.n.n.n.n.",
"S.S.S.S.S.S.S.S.S.S.S.S.S.S.S.S.S.S.S.S.S.S.S.S.S.S.S.S.S.S.= = = <.S.S.S.S.S.S.S.D.F.F.G.S.S.S.S.S.S.S.S.S.S.S.S.S.S.S.S.S.S.S.",
"H.H.H.H.H.H.H.H.H.H.H.H.H.H.H.H.H.H.H.H.H.H.H.H.H.H.H.H.H.H.= = = <.H.H.H.H.H.H.H.J.H.H.H.H.H.H.H.H.H.H.H.H.H.H.H.H.H.H.H.H.H.H.",
"K.K.K.K.K.K.K.K.K.K.K.K.K.K.K.K.K.K.K.K.K.K.K.K.K.K.K.K.K.K.= = = <.K.K.K.K.K.K.K.K.K.K.K.K.K.K.K.K.K.K.K.K.K.K.K.K.K.K.K.K.K.K.",
"K.K.K.K.K.K.K.K.K.K.K.K.K.K.K.K.K.K.K.K.K.K.K.K.K.K.K.K.K.K.= = = <.K.K.K.K.K.K.K.K.K.K.K.K.K.K.K.K.K.K.K.K.K.K.K.K.K.K.K.K.K.K.",
"L.L.L.L.L.L.L.L.L.L.L.L.L.L.L.L.L.L.L.L.L.L.L.L.L.L.L.L.L.L.= = = <.L.L.L.L.L.L.L.L.L.L.L.L.L.L.L.L.L.L.L.L.L.L.L.L.L.L.L.L.L.L.",
"P.P.P.P.P.P.P.P.P.P.P.P.P.P.P.P.P.P.P.P.P.P.P.P.P.P.P.P.P.P.= = = <.P.P.P.P.P.P.P.P.P.P.P.P.P.P.P.P.P.P.P.P.P.P.P.P.P.P.P.P.P.P.",
"P.P.P.P.P.P.P.P.P.P.P.P.P.P.P.P.P.P.P.P.P.P.P.P.P.P.P.P.P.P.= = = <.P.P.P.P.P.P.P.P.P.P.P.P.P.P.P.P.P.P.P.P.P.P.P.P.P.P.P.P.P.P.",
"P.P.P.P.P.P.P.P.P.P.P.P.P.P.P.P.P.P.P.P.P.P.P.P.P.P.P.P.P.P.= = = <.P.P.P.P.P.P.P.P.P.P.P.P.P.P.P.P.P.P.P.P.P.P.P.P.P.P.P.P.P.P.",
"I.I.I.I.I.I.I.I.I.I.I.I.I.I.I.I.I.I.I.I.I.I.I.I.I.I.I.I.I.I.= = = <.I.I.I.I.I.I.I.I.I.I.I.I.I.I.I.I.I.I.I.I.I.I.I.I.I.I.I.I.I.I.",
"I.I.I.I.I.I.I.I.I.I.I.I.I.I.I.I.I.I.I.I.I.I.I.I.I.I.I.I.I.I.= = = <.I.I.I.I.I.I.I.I.I.I.I.I.I.I.I.I.I.I.I.I.I.I.I.I.I.I.I.I.I.I.",
"I.I.I.I.I.I.I.I.I.I.I.I.I.I.I.I.I.I.I.I.I.I.I.I.I.I.I.I.I.I.= = = <.I.I.I.I.I.I.I.I.I.I.I.I.I.I.I.I.I.I.I.I.I.I.I.I.I.I.I.I.I.I.",
"I.I.I.I.I.I.I.I.I.I.I.I.I.I.I.I.I.I.I.I.I.I.I.I.I.I.I.I.I.I.= = = <.I.I.I.I.I.I.I.I.I.I.I.I.I.I.I.I.I.I.I.I.I.I.I.I.I.I.I.I.I.I.",
"U.U.U.U.U.U.U.U.U.U.U.U.U.U.U.U.U.U.U.U.U.U.U.U.U.U.U.U.U.U.= = = <.U.U.U.U.U.U.U.U.U.U.U.U.U.U.U.U.U.U.U.U.U.U.U.U.U.U.U.U.U.U.",
"U.U.U.U.U.U.U.U.U.U.U.U.U.U.U.U.U.U.U.U.U.U.U.U.U.U.U.U.U.U.= = = <.U.U.U.U.U.U.U.U.U.U.U.U.U.U.U.U.U.U.U.U.U.U.U.U.U.U.U.U.U.U.",
"Y.Y.Y.Y.Y.Y.Y.Y.Y.Y.Y.Y.Y.Y.Y.Y.Y.Y.Y.Y.Y.Y.Y.Y.Y.Y.Y.Y.Y.T.= = = <.R.Y.Y.Y.Y.Y.Y.Y.Y.Y.Y.Y.Y.Y.Y.Y.Y.Y.Y.Y.Y.Y.Y.Y.Y.Y.Y.Y.Y.Y.",
"E.E.E.E.E.E.E.E.E.E.E.E.E.E.E.E.E.E.E.E.E.E.E.E.E.E.E.W.Q.!.= = = <.!.~.^.E.E.E.E.E.E.E.E.E.E.E.E.E.E.E.E.E.E.E.E.E.E.E.E.E.E.E.",
"/./././././././././././././././././././././././././.(.).).).= = = <.).).)._././././././././././././././././././././././././././.",
"`.`.`.`.`.`.`.`.`.`.`.`.`.`.`.`.`.`.`.`.`.`.`.`.`.`.'.].].].[.{.}.|.].].]. X`.`.`.`.`.`.`.`.`.`.`.`.`.`.`.`.`.`.`.`.`.`.`.`.`.`.",
"`.`.`.`.`.`.`.`.`.`.`.`.`.`.`.`.`.`.`.`.`.`.`.`.`.`..XXX].].].].].].].].oXOX`.`.`.`.`.`.`.`.`.`.`.`.`.`.`.`.`.`.`.`.`.`.`.`.`.`.",
"+X+X+X+X+X+X+X+X+X+X+X+X+X+X+X+X+X+X+X+X+X+X+X+X+X+X+X@X#X$X%X).).&X*X=X@X+X+X+X+X+X+X+X+X+X+X+X+X+X+X+X+X+X+X+X+X+X+X+X+X+X+X+X",
"-X-X-X-X-X-X-X-X-X-X-X-X-X-X-X-X-X-X-X-X-X-X-X-X-X-X-X-X-X-X-X-X-X-X-X-X-X-X-X-X-X-X-X-X-X-X-X-X-X-X-X-X-X-X-X-X-X-X-X-X-X-X-X-X",
"-X-X-X-X-X-X-X-X-X-X-X-X-X-X-X-X-X-X-X-X-X-X-X-X-X-X-X-X-X-X-X-X-X-X-X-X-X-X-X-X-X-X-X-X-X-X-X-X-X-X-X-X-X-X-X-X-X-X-X-X-X-X-X-X",
";X;X;X;X;X;X;X;X;X;X;X;X;X;X;X;X;X;X;X;X;X;X;X;X;X;X;X;X;X;X;X;X;X;X;X;X;X;X;X;X;X;X;X;X;X;X;X;X;X;X;X;X;X;X;X;X;X;X;X;X;X;X;X;X",
":X:X:X:X:X:X:X:X:X:X:X:X:X:X:X:X:X:X:X:X:X:X:X:X:X:X:X:X:X:X:X:X:X:X:X:X:X:X:X:X:X:X:X:X:X:X:X:X:X:X:X:X:X:X:X:X:X:X:X:X:X:X:X:X",
":X:X:X:X:X:X:X:X:X:X:X:X:X:X:X:X:X:X:X:X:X:X:X:X:X:X:X:X:X:X:X:X:X:X:X:X:X:X:X:X:X:X:X:X:X:X:X:X:X:X:X:X:X:X:X:X:X:X:X:X:X:X:X:X",
":X:X:X:X:X:X:X:X:X:X:X:X:X:X:X:X:X:X:X:X:X:X:X:X:X:X:X:X:X:X:X:X:X:X:X:X:X:X:X:X:X:X:X:X:X:X:X:X:X:X:X:X:X:X:X:X:X:X:X:X:X:X:X:X",
">X>X>X>X>X>X>X>X>X>X>X>X>X>X>X>X>X>X>X>X>X>X>X>X>X>X>X>X>X>X>X>X>X>X>X>X>X>X>X>X>X>X>X>X>X>X>X>X>X>X>X>X>X>X>X>X>X>X>X>X>X>X>X>X",
",X,X,X,X,X,X,X,X,X,X,X,X,X,X,X,X,X,X,X,X,X,X,X,X,X,X,X,X,X,X,X,X,X,X,X,X,X,X,X,X,X,X,X,X,X,X,X,X,X,X,X,X,X,X,X,X,X,X,X,X,X,X,X,X",
",X,X,X,X,X,X,X,X,X,X,X,X,X,X,X,X,X,X,X,X,X,X,X,X,X,X,X,X,X,X,X,X,X,X,X,X,X,X,X,X,X,X,X,X,X,X,X,X,X,X,X,X,X,X,X,X,X,X,X,X,X,X,X,X",
"<X<X<X<X<X<X<X<X<X<X<X<X<X<X<X<X<X<X<X<X<X<X<X<X<X<X<X<X<X<X<X<X<X<X<X<X<X<X<X<X<X<X<X<X<X<X<X<X<X<X<X<X<X<X<X<X<X<X<X<X<X<X<X<X",
"<X<X<X<X<X<X<X<X<X<X<X<X<X<X<X<X<X<X<X<X<X<X<X<X<X<X<X<X<X<X<X<X<X<X<X<X<X<X<X<X<X<X<X<X<X<X<X<X<X<X<X<X<X<X<X<X<X<X<X<X<X<X<X<X",
"1X1X1X1X1X1X1X1X1X1X1X1X1X1X1X1X1X1X1X1X1X1X1X1X1X1X1X1X1X1X1X1X1X1X1X1X1X1X1X1X1X1X1X1X1X1X1X1X1X1X1X1X1X1X1X1X1X1X1X1X1X1X1X1X",
"2X2X2X2X2X2X2X2X2X2X2X2X2X2X2X2X2X2X2X2X2X2X2X2X2X2X2X2X2X2X2X2X2X2X2X2X2X2X2X2X2X2X2X2X2X2X2X2X2X2X2X2X2X2X2X2X2X2X2X2X2X2X2X2X"
};
