/* XPM */
static char *c49584fa486f40fcf4b674040722989cEwymM45ObAzqhjFF[] = {
/* columns rows colors chars-per-pixel */
"64 64 176 2 ",
"   c #579D4E",
".  c #579D4F",
"X  c #CAE0C8",
"o  c #FAFCF9",
"O  c #F7FAF7",
"+  c #BED9BB",
"@  c #579C4F",
"#  c gray95",
"$  c #FEFEFE",
"%  c #FDFDFD",
"&  c gray85",
"*  c #E1D8D8",
"=  c #E1E1E1",
"-  c #B5AAAA",
";  c #83854F",
":  c #579C50",
">  c #E96565",
",  c #E78686",
"<  c #E78383",
"1  c #BB4B4B",
"2  c #EA5050",
"3  c #CA6050",
"4  c #5E9850",
"5  c #BC4040",
"6  c #E85150",
"7  c #CE5F50",
"8  c #679450",
"9  c #579B50",
"0  c #DA5850",
"q  c #6C9050",
"w  c #579B51",
"e  c #DD5750",
"r  c #7F8751",
"t  c #E25450",
"y  c #9C7850",
"u  c #599A51",
"i  c #E95050",
"p  c #C36450",
"a  c #619651",
"s  c #579A51",
"d  c #D95950",
"f  c #6F8E51",
"g  c #579A52",
"h  c #E15450",
"j  c #808551",
"k  c #DB5850",
"l  c #579953",
"z  c #DB5750",
"x  c #8E7E52",
"c  c #589953",
"v  c #569953",
"b  c #9A7752",
"n  c #5B9653",
"m  c #E15550",
"M  c #AD6E51",
"N  c #659253",
"B  c #579954",
"V  c #BE4141",
"C  c #E55350",
"Z  c #C56251",
"A  c #768953",
"S  c #579854",
"D  c #BF4141",
"F  c #CF5D51",
"G  c #878053",
"H  c #569854",
"J  c #BD4040",
"K  c #A17452",
"L  c #569855",
"P  c #E55250",
"I  c #B06C52",
"U  c #5B9655",
"Y  c #E95150",
"T  c #C96051",
"R  c #619355",
"E  c #569755",
"W  c #569756",
"Q  c #EA5959",
"!  c #BB4A4A",
"~  c #AE6D52",
"^  c #D25C51",
"/  c #659055",
"(  c #E2CCCC",
")  c #E4ABAB",
"_  c #E4ADAD",
"`  c #6A8D55",
"'  c #CD5E51",
"]  c #D05D51",
"[  c #698E55",
"{  c gray71",
"}  c #589656",
"|  c #8B7D54",
" . c #D75951",
".. c #D55A51",
"X. c #718A55",
"o. c #678F55",
"O. c #BF6552",
"+. c #DE5650",
"@. c #788655",
"#. c #579756",
"$. c #569657",
"%. c #B3B4B3",
"&. c #589557",
"*. c #887E55",
"=. c #C56152",
"-. c #7F8255",
";. c #B1B4B1",
":. c #927954",
">. c #917A54",
",. c #599457",
"<. c #B2B4B2",
"1. c #629056",
"2. c #BD6552",
"3. c #A27253",
"4. c #569658",
"5. c #589558",
"6. c #987754",
"7. c #A96E53",
"8. c #6D8B57",
"9. c #569558",
"0. c #6B8B57",
"q. c #9A7554",
"w. c #728856",
"e. c #599458",
"r. c #788556",
"t. c #688D57",
"y. c #569459",
"u. c #5F9058",
"i. c #5C9159",
"p. c #569559",
"a. c #56945A",
"s. c #56935A",
"d. c #56935B",
"f. c #56925C",
"g. c #56915D",
"h. c #56915E",
"j. c #4F8556",
"k. c #508657",
"l. c #55915E",
"z. c #497D51",
"x. c #3A6340",
"c. c #375E3D",
"v. c #3B6542",
"b. c #4C8254",
"n. c #55905E",
"m. c #4B7F53",
"M. c #375D3D",
"N. c #4F8657",
"B. c #56905F",
"V. c #46764E",
"C. c #385D3D",
"Z. c #98A89B",
"A. c #CFD2CF",
"S. c #BFC3C0",
"D. c #7A8C7C",
"F. c #4C8054",
"G. c #548D5D",
"H. c #3F6945",
"J. c #426E49",
"K. c #558E5E",
"L. c #55905F",
"P. c #558F5F",
"I. c #4C8155",
"U. c #42704A",
"Y. c #3B6342",
"T. c #3B6442",
"R. c #43714A",
"E. c #4D8356",
"W. c #558F60",
"Q. c #558F61",
"!. c #558E61",
"~. c #558E62",
"^. c #558D62",
"/. c #558D63",
"(. c #558C63",
"). c #558C64",
/* pixels */
"                                                                                                                                ",
". . . . . . . . . . . . . . . . . . . . . . . . . . . . . . X o O + . . . . . . . . . . . . . . . . . . . . . . . . . . . . . . ",
"@ @ @ @ @ @ @ @ @ @ @ @ @ @ @ @ @ @ @ @ @ @ @ @ @ @ @ @ @ @ # $ % & @ @ @ @ @ @ @ @ @ @ @ @ @ @ @ @ @ @ @ @ @ @ @ @ @ @ @ @ @ @ ",
"@ @ @ @ @ @ @ @ @ @ @ @ @ @ @ @ @ @ @ @ @ @ @ @ @ @ @ @ @ @ * = = - ; @ @ @ @ @ @ @ @ @ @ @ @ @ @ @ @ @ @ @ @ @ @ @ @ @ @ @ @ @ ",
": : : : : : : : : : : : : : : : : : : : : : : : : : : : : : > , < 1 2 3 4 : : : : : : : : : : : : : : : : : : : : : : : : : : : ",
": : : : : : : : : : : : : : : : : : : : : : : : : : : : : : 2 2 2 5 6 7 8 : : : : : : : : : : : : : : : : : : : : : : : : : : : ",
"9 9 9 9 9 9 9 9 9 9 9 9 9 9 9 9 9 9 9 9 9 9 9 9 9 9 9 9 9 9 2 2 2 5 2 0 q 9 9 9 9 9 9 9 9 9 9 9 9 9 9 9 9 9 9 9 9 9 9 9 9 9 9 9 ",
"w w w w w w w w w w w w w w w w w w w w w w w w w w w w w w 2 2 2 5 2 e r w w w w w w w w w w w w w w w w w w w w w w w w w w w ",
"w w w w w w w w w w w w w w w w w w w w w w w w w w w w w w 2 2 2 5 2 t y u w w w w w w w w w w w w w w w w w w w w w w w w w w ",
"w w w w w w w w w w w w w w w w w w w w w w w w w w w w w w 2 2 2 5 2 i p a w w w w w w w w w w w w w w w w w w w w w w w w w w ",
"s s s s s s s s s s s s s s s s s s s s s s s s s s s s s s 2 2 2 5 2 i d f s s s s s s s s s s s s s s s s s s s s s s s s s s ",
"g g g g g g g g g g g g g g g g g g g g g g g g g g g g g g 2 2 2 5 2 2 h j g g g g g g g g g g g g g g g g g g g g g g g g g g ",
"g g g g g g g g g g g g g g g g g g g g g g g g g g g g g g 2 2 2 5 2 2 k j g g g g g g g g g g g g g g g g g g g g g g g g g g ",
"l l l l l l l l l l l l l l l l l l l l l l l l l l l l l l 2 2 2 5 2 i z x c l l l l l l l l l l l l l l l l l l l l l l l l l ",
"v v v v v v v v v v v v v v v v v v v v v v v v v v v v v v 2 2 2 5 2 2 e b n v v v v v v v v v v v v v v v v v v v v v v v v v ",
"v v v v v v v v v v v v v v v v v v v v v v v v v v v v v v 2 2 2 5 2 2 m M N v v v v v v v v v v v v v v v v v v v v v v v v v ",
"B B B B B B B B B B B B B B B B B B B B B B B B B B B B B B 2 2 2 V 2 2 C Z A B B B B B B B B B B B B B B B B B B B B B B B B B ",
"S S S S S S S S S S S S S S S S S S S S S S S S S S S S S S 2 2 2 D 2 2 i F G S S S S S S S S S S S S S S S S S S S S S S S S S ",
"H H H H H H H H H H H H H H H H H H H H H H H H H H H H H H 2 2 2 J 2 2 2 h K S H H H H H H H H H H H H H H H H H H H H H H H H ",
"L L L L L L L L L L L L L L L L L L L L L L L L L L L L L L 2 2 2 5 2 2 2 P I U L L L L L L L L L L L L L L L L L L L L L L L L ",
"L L L L L L L L L L L L L L L L L L L L L L L L L L L L L L 2 2 2 5 2 2 2 Y T R L L L L L L L L L L L L L L L L L L L L E L L L ",
"W W W W W W W W W W W W W W W W W W W W W W W W W W W W W W Q 2 2 ! ~ 6 2 2 ^ / W W W W W W W W W W W W W W W W W W W W W W W W ",
"W W W W W W W W W W W W W W W W W W W W W W W W W W W W W W ( ) _ - ` ' 6 i ] [ W W W W W W W W W W W W W W W W W W W W W W W W ",
"W W W W W W W W W W W W W W W W W W W W W W W W W W W W W W = = = { } |  .i ..X.W W W W W W W W W W W W W W W W W W W W W W W W ",
"W W W W W W W W W W W W W W W W W W W W W W W W W W W W W W = = = { W o.O.+...@.#.W W W W W W W W W W W W W W W W W W W W W W W ",
"$.$.$.$.$.$.$.$.$.$.$.$.$.$.$.$.$.$.$.$.$.$.$.$.$.$.$.$.$.$.= = = %.$.&.*.=.F -.&.$.$.$.$.$.$.$.$.$.$.$.$.$.$.$.$.$.$.$.$.$.$.$.",
"$.$.$.$.$.$.$.$.$.$.$.$.$.$.$.$.$.$.$.$.$.$.$.$.$.$.$.$.$.$.= = = ;.$.$.&.:.F >.,.$.$.$.$.$.$.$.$.$.$.$.$.$.$.$.$.$.$.$.$.$.$.$.",
"$.$.$.$.$.$.$.$.$.$.$.$.$.$.$.$.$.$.$.$.$.$.$.$.$.$.$.$.$.$.= = = <.$.$.$.1.2.3.1.$.$.$.$.$.$.$.$.$.$.$.$.$.$.$.$.$.$.$.$.$.$.$.",
"4.4.4.4.4.4.4.4.4.4.4.4.4.4.4.4.4.4.4.4.4.4.4.4.4.4.4.4.4.4.= = = { 4.4.4.5.6.7.8.4.4.4.4.4.4.4.4.4.4.4.4.4.4.4.4.4.4.4.4.4.4.4.",
"9.9.9.9.9.9.9.9.9.9.9.9.9.9.9.9.9.9.9.9.9.9.9.9.9.9.9.9.9.9.= = = { 9.9.9.9.0.q.w.9.9.9.9.9.9.9.9.9.9.9.9.9.9.9.9.9.9.9.9.9.9.9.",
"9.9.9.9.9.9.9.9.9.9.9.9.9.9.9.9.9.9.9.9.9.9.9.9.9.9.9.9.9.9.= = = { 9.9.9.9.e.r.t.9.9.9.9.9.9.9.9.9.9.9.9.9.9.9.9.9.9.9.9.9.9.9.",
"y.y.y.y.y.y.y.y.y.y.y.y.y.y.y.y.y.y.y.y.y.y.y.y.y.y.y.y.y.y.= = = { y.y.y.y.y.u.i.y.y.y.y.y.y.y.y.y.y.y.y.y.y.y.y.y.y.y.y.y.y.y.",
"p.p.p.p.p.p.p.p.p.p.p.p.p.p.p.p.p.p.p.p.p.p.p.p.p.p.p.p.p.p.= = = { p.p.p.p.p.p.p.p.p.p.p.p.p.p.p.p.p.p.p.p.p.p.p.p.p.p.p.p.p.p.",
"a.a.a.a.a.a.a.a.a.a.a.a.a.a.a.a.a.a.a.a.a.a.a.a.a.a.a.a.a.a.= = = { a.a.a.a.a.a.a.a.a.a.a.a.a.a.a.a.a.a.a.a.a.a.a.a.a.a.a.a.a.a.",
"a.a.a.a.a.a.a.a.a.a.a.a.a.a.a.a.a.a.a.a.a.a.a.a.a.a.a.a.a.a.= = = { a.a.a.a.a.a.a.a.a.a.a.a.a.a.a.a.a.a.a.a.a.a.a.a.a.a.a.a.a.a.",
"s.s.s.s.s.s.s.s.s.s.s.s.s.s.s.s.s.s.s.s.s.s.s.s.s.s.s.s.s.s.= = = { s.s.s.s.s.s.s.s.s.s.s.s.s.s.s.s.s.s.s.s.s.s.s.s.s.s.s.s.s.s.",
"d.d.d.d.d.d.d.d.d.d.d.d.d.d.d.d.d.d.d.d.d.d.d.d.d.d.d.d.d.d.= = = { d.d.d.d.d.d.d.d.d.d.d.d.d.d.d.d.d.d.d.d.d.d.d.d.d.d.d.d.d.d.",
"d.d.d.d.d.d.d.d.d.d.d.d.d.d.d.d.d.d.d.d.d.d.d.d.d.d.d.d.d.d.= = = { d.d.d.d.d.d.d.d.d.d.d.d.d.d.d.d.d.d.d.d.d.d.d.d.d.d.d.d.d.d.",
"d.d.d.d.d.d.d.d.d.d.d.d.d.d.d.d.d.d.d.d.d.d.d.d.d.d.d.d.d.d.= = = { d.d.d.d.d.d.d.d.d.d.d.d.d.d.d.d.d.d.d.d.d.d.d.d.d.d.d.d.d.d.",
"f.f.f.f.f.f.f.f.f.f.f.f.f.f.f.f.f.f.f.f.f.f.f.f.f.f.f.f.f.f.= = = { f.f.f.f.f.f.f.f.f.f.f.f.f.f.f.f.f.f.f.f.f.f.f.f.f.f.f.f.f.f.",
"f.f.f.f.f.f.f.f.f.f.f.f.f.f.f.f.f.f.f.f.f.f.f.f.f.f.f.f.f.f.= = = { f.f.f.f.f.f.f.f.f.f.f.f.f.f.f.f.f.f.f.f.f.f.f.f.f.f.f.f.f.f.",
"f.f.f.f.f.f.f.f.f.f.f.f.f.f.f.f.f.f.f.f.f.f.f.f.f.f.f.f.f.f.= = = { f.f.f.f.f.f.f.f.f.f.f.f.f.f.f.f.f.f.f.f.f.f.f.f.f.f.f.f.f.f.",
"f.f.f.f.f.f.f.f.f.f.f.f.f.f.f.f.f.f.f.f.f.f.f.f.f.f.f.f.f.f.= = = { f.f.f.f.f.f.f.f.f.f.f.f.f.f.f.f.f.f.f.f.f.f.f.f.f.f.f.f.f.f.",
"g.g.g.g.g.g.g.g.g.g.g.g.g.g.g.g.g.g.g.g.g.g.g.g.g.g.g.g.g.g.= = = { g.g.g.g.g.g.g.g.g.g.g.g.g.g.g.g.g.g.g.g.g.g.g.g.g.g.g.g.g.g.",
"g.g.g.g.g.g.g.g.g.g.g.g.g.g.g.g.g.g.g.g.g.g.g.g.g.g.g.g.g.g.= = = { g.g.g.g.g.g.g.g.g.g.g.g.g.g.g.g.g.g.g.g.g.g.g.g.g.g.g.g.g.g.",
"h.h.h.h.h.h.h.h.h.h.h.h.h.h.h.h.h.h.h.h.h.h.h.h.h.h.h.h.h.j.= = = { k.h.h.h.h.h.h.h.h.h.h.h.h.h.h.h.h.h.h.h.h.h.h.h.h.h.h.h.h.h.",
"l.l.l.l.l.l.l.l.l.l.l.l.l.l.l.l.l.l.l.l.l.l.l.l.l.l.l.z.x.c.= = = { c.v.b.l.l.l.l.l.l.l.l.l.l.l.l.l.l.l.l.l.l.l.l.l.l.l.l.l.l.l.",
"n.n.n.n.n.n.n.n.n.n.n.n.n.n.n.n.n.n.n.n.n.n.n.n.n.n.m.M.M.M.= = = { M.M.M.N.n.n.n.n.n.n.n.n.n.n.n.n.n.n.n.n.n.n.n.n.n.n.n.n.n.n.",
"B.B.B.B.B.B.B.B.B.B.B.B.B.B.B.B.B.B.B.B.B.B.B.B.B.B.V.C.C.C.Z.A.S.D.C.C.C.F.B.B.B.B.B.B.B.B.B.B.B.B.B.B.B.B.B.B.B.B.B.B.B.B.B.B.",
"B.B.B.B.B.B.B.B.B.B.B.B.B.B.B.B.B.B.B.B.B.B.B.B.B.B.G.H.C.C.C.C.C.C.C.C.J.K.B.B.B.B.B.B.B.B.B.B.B.B.B.B.B.B.B.B.B.B.B.B.B.B.B.B.",
"L.L.L.L.L.L.L.L.L.L.L.L.L.L.L.L.L.L.L.L.L.L.L.L.L.L.L.P.I.U.Y.M.M.T.R.E.P.L.L.L.L.L.L.L.L.L.L.L.L.L.L.L.L.L.L.L.L.L.L.L.L.L.L.L.",
"W.W.W.W.W.W.W.W.W.W.W.W.W.W.W.W.W.W.W.W.W.W.W.W.W.W.W.W.W.W.W.W.W.W.W.W.W.W.W.W.W.W.W.W.W.W.W.W.W.W.W.W.W.W.W.W.W.W.W.W.W.W.W.W.",
"W.W.W.W.W.W.W.W.W.W.W.W.W.W.W.W.W.W.W.W.W.W.W.W.W.W.W.W.W.W.W.W.W.W.W.W.W.W.W.W.W.W.W.W.W.W.W.W.W.W.W.W.W.W.W.W.W.W.W.W.W.W.W.W.",
"Q.Q.Q.Q.Q.Q.Q.Q.Q.Q.Q.Q.Q.Q.Q.Q.Q.Q.Q.Q.Q.Q.Q.Q.Q.Q.Q.Q.Q.Q.Q.Q.Q.Q.Q.Q.Q.Q.Q.Q.Q.Q.Q.Q.Q.Q.Q.Q.Q.Q.Q.Q.Q.Q.Q.Q.Q.Q.Q.Q.Q.Q.Q.Q.",
"!.!.!.!.!.!.!.!.!.!.!.!.!.!.!.!.!.!.!.!.!.!.!.!.!.!.!.!.!.!.!.!.!.!.!.!.!.!.!.!.!.!.!.!.!.!.!.!.!.!.!.!.!.!.!.!.!.!.!.!.!.!.!.!.",
"!.!.!.!.!.!.!.!.!.!.!.!.!.!.!.!.!.!.!.!.!.!.!.!.!.!.!.!.!.!.!.!.!.!.!.!.!.!.!.!.!.!.!.!.!.!.!.!.!.!.!.!.!.!.!.!.!.!.!.!.!.!.!.!.",
"!.!.!.!.!.!.!.!.!.!.!.!.!.!.!.!.!.!.!.!.!.!.!.!.!.!.!.!.!.!.!.!.!.!.!.!.!.!.!.!.!.!.!.!.!.!.!.!.!.!.!.!.!.!.!.!.!.!.!.!.!.!.!.!.",
"~.~.~.~.~.~.~.~.~.~.~.~.~.~.~.~.~.~.~.~.~.~.~.~.~.~.~.~.~.~.~.~.~.~.~.~.~.~.~.~.~.~.~.~.~.~.~.~.~.~.~.~.~.~.~.~.~.~.~.~.~.~.~.~.",
"^.^.^.^.^.^.^.^.^.^.^.^.^.^.^.^.^.^.^.^.^.^.^.^.^.^.^.^.^.^.^.^.^.^.^.^.^.^.^.^.^.^.^.^.^.^.^.^.^.^.^.^.^.^.^.^.^.^.^.^.^.^.^.^.",
"^.^.^.^.^.^.^.^.^.^.^.^.^.^.^.^.^.^.^.^.^.^.^.^.^.^.^.^.^.^.^.^.^.^.^.^.^.^.^.^.^.^.^.^.^.^.^.^.^.^.^.^.^.^.^.^.^.^.^.^.^.^.^.^.",
"/./././././././././././././././././././././././././././././././././././././././././././././././././././././././././././././././.",
"/./././././././././././././././././././././././././././././././././././././././././././././././././././././././././././././././.",
"(.(.(.(.(.(.(.(.(.(.(.(.(.(.(.(.(.(.(.(.(.(.(.(.(.(.(.(.(.(.(.(.(.(.(.(.(.(.(.(.(.(.(.(.(.(.(.(.(.(.(.(.(.(.(.(.(.(.(.(.(.(.(.(.",
").).).).).).).).).).).).).).).).).).).).).).).).).).).).).).).).).).).).).).).).).).).).).).).).).).).).).).).).).).).).).).).)."
};
