/* XPM */
static char *_3529d36526049778a1655676ec5b6090lLH8GbsU3ts6Mtu[] = {
/* columns rows colors chars-per-pixel */
"64 64 118 2 ",
"   c #579D4E",
".  c #579D4F",
"X  c #CAE0C8",
"o  c #FAFCF9",
"O  c #F7FAF7",
"+  c #BED9BB",
"@  c #579C4F",
"#  c gray95",
"$  c #FEFEFE",
"%  c #FDFDFD",
"&  c gray85",
"*  c #E1D8D8",
"=  c #E1E1E1",
"-  c #B5AAAA",
";  c #82854F",
":  c #579C50",
">  c #E96565",
",  c #E78686",
"<  c #E78383",
"1  c #BB4B4B",
"2  c #E55250",
"3  c #669450",
"4  c #EA5050",
"5  c #BC4040",
"6  c #E65250",
"7  c #579B50",
"8  c #589B50",
"9  c #579B51",
"0  c #5C9951",
"q  c #619651",
"w  c #5D9851",
"e  c #579A51",
"r  c #E85150",
"t  c #5F9651",
"y  c #579A52",
"u  c #DE5650",
"i  c #5E9652",
"p  c #629452",
"a  c #579953",
"s  c #E35350",
"d  c #748B52",
"f  c #569953",
"g  c #798852",
"h  c #937B52",
"j  c #579954",
"k  c #C56251",
"l  c #579854",
"z  c #6D8D53",
"x  c #569854",
"c  c #E95050",
"v  c #B86851",
"b  c #5C9554",
"n  c #569855",
"m  c #A17452",
"M  c #589755",
"N  c #E25450",
"B  c #AF6D52",
"V  c #7C8554",
"C  c #579755",
"Z  c #569756",
"A  c #EA5959",
"S  c #BB4A4A",
"D  c #5B9556",
"F  c #E2CCCC",
"G  c #E4ABAB",
"H  c #E4ADAD",
"J  c gray71",
"K  c #569657",
"L  c #569658",
"P  c #569558",
"I  c #569459",
"U  c #569559",
"Y  c #56945A",
"T  c #56935A",
"R  c #56935B",
"E  c #56925C",
"W  c #56915D",
"Q  c #56915E",
"!  c #4F8556",
"~  c #508657",
"^  c #55915E",
"/  c #497D51",
"(  c #3A6340",
")  c #375E3D",
"_  c #3B6542",
"`  c #4C8254",
"'  c #55905E",
"]  c #4B7F53",
"[  c #375D3D",
"{  c #4F8657",
"}  c #56905F",
"|  c #46764E",
" . c #385D3D",
".. c #98A89B",
"X. c #CFD2CF",
"o. c #BFC3C0",
"O. c #7A8C7C",
"+. c #4C8054",
"@. c #548D5D",
"#. c #3F6945",
"$. c #426E49",
"%. c #558E5E",
"&. c #55905F",
"*. c #558F5F",
"=. c #4C8155",
"-. c #42704A",
";. c #3B6342",
":. c #3B6442",
">. c #43714A",
",. c #4D8356",
"<. c #558F60",
"1. c #558F61",
"2. c #558E61",
"3. c #558E62",
"4. c #558D62",
"5. c #558D63",
"6. c #558C63",
"7. c #558C64",
/* pixels */
"                                                                                                                                ",
". . . . . . . . . . . . . . . . . . . . . . . . . . . . . . X o O + . . . . . . . . . . . . . . . . . . . . . . . . . . . . . . ",
"@ @ @ @ @ @ @ @ @ @ @ @ @ @ @ @ @ @ @ @ @ @ @ @ @ @ @ @ @ @ # $ % & @ @ @ @ @ @ @ @ @ @ @ @ @ @ @ @ @ @ @ @ @ @ @ @ @ @ @ @ @ @ ",
"@ @ @ @ @ @ @ @ @ @ @ @ @ @ @ @ @ @ @ @ @ @ @ @ @ @ @ @ @ @ * = = - ; @ @ @ @ @ @ @ @ @ @ @ @ @ @ @ @ @ @ @ @ @ @ @ @ @ @ @ @ @ ",
": : : : : : : : : : : : : : : : : : : : : : : : : : : : : : > , < 1 2 3 : : : : : : : : : : : : : : : : : : : : : : : : : : : : ",
": : : : : : : : : : : : : : : : : : : : : : : : : : : : : : 4 4 4 5 6 : : : : : : : : : : : : : : : : : : : : : : : : : : : : : ",
"7 7 7 7 7 7 7 7 7 7 7 7 7 7 7 7 7 7 7 7 7 7 7 7 7 7 7 7 7 7 4 4 4 5 4 8 7 7 7 7 7 7 7 7 7 7 7 7 7 7 7 7 7 7 7 7 7 7 7 7 7 7 7 7 ",
"9 9 9 9 9 9 9 9 9 9 9 9 9 9 9 9 9 9 9 9 9 9 9 9 9 9 9 9 9 9 4 4 4 5 4 0 9 9 9 9 9 9 9 9 9 9 9 9 9 9 9 9 9 9 9 9 9 9 9 9 9 9 9 9 ",
"9 9 9 9 9 9 9 9 9 9 9 9 9 9 9 9 9 9 9 9 9 9 9 9 9 9 9 9 9 9 4 4 4 5 4 q 9 9 9 9 9 9 9 9 9 9 9 9 9 9 9 9 9 9 9 9 9 9 9 9 9 9 9 9 ",
"9 9 9 9 9 9 9 9 9 9 9 9 9 9 9 9 9 9 9 9 9 9 9 9 9 9 9 9 9 9 4 4 4 5 4 w 9 9 9 9 9 9 9 9 9 9 9 9 9 9 9 9 9 9 9 9 9 9 9 9 9 9 9 9 ",
"e e e e e e e e e e e e e e e e e e e e e e e e e e e e e e 4 4 4 5 r t e e e e e e e e e e e e e e e e e e e e e e e e e e e e ",
"y y y y y y y y y y y y y y y y y y y y y y y y y y y y y y 4 4 4 5 u i y y y y y y y y y y y y y y y y y y y y y y y y y y y y ",
"y y y y y y y y y y y y y y y y y y y y y y y y y y y y y y 4 4 4 5 u p y y y y y y y y y y y y y y y y y y y y y y y y y y y y ",
"a a a a a a a a a a a a a a a a a a a a a a a a a a a a a a 4 4 4 5 s d a a a a a a a a a a a a a a a a a a a a a a a a a a a a ",
"f f f f f f f f f f f f f f f f f f f f f f f f f f f f f f 4 4 4 5 4 g f f f f f f f f f f f f f f f f f f f f f f f f f f f f ",
"f f f f f f f f f f f f f f f f f f f f f f f f f f f f f f 4 4 4 5 4 h f f f f f f f f f f f f f f f f f f f f f f f f f f f f ",
"j j j j j j j j j j j j j j j j j j j j j j j j j j j j j j 4 4 4 5 4 k j j j j j j j j j j j j j j j j j j j j j j j j j j j j ",
"l l l l l l l l l l l l l l l l l l l l l l l l l l l l l l 4 4 4 5 4 s z l l l l l l l l l l l l l l l l l l l l l l l l l l l ",
"x x x x x x x x x x x x x x x x x x x x x x x x x x x x x x 4 4 4 5 4 c v b x x x x x x x x x x x x x x x x x x x x x x x x x x ",
"n n n n n n n n n n n n n n n n n n n n n n n n n n n n n n 4 4 4 5 4 4 6 m M n n n n n n n n n n n n n n n n n n n n n n n n n ",
"n n n n n n n n n n n n n n n n n n n n n n n n n n n n n n 4 4 4 5 4 N B V C n n n n n n n n n n n n n n n n n n n n n n n n n ",
"Z Z Z Z Z Z Z Z Z Z Z Z Z Z Z Z Z Z Z Z Z Z Z Z Z Z Z Z Z Z A 4 4 S V D Z Z Z Z Z Z Z Z Z Z Z Z Z Z Z Z Z Z Z Z Z Z Z Z Z Z Z Z ",
"Z Z Z Z Z Z Z Z Z Z Z Z Z Z Z Z Z Z Z Z Z Z Z Z Z Z Z Z Z Z F G H - Z Z Z Z Z Z Z Z Z Z Z Z Z Z Z Z Z Z Z Z Z Z Z Z Z Z Z Z Z Z ",
"Z Z Z Z Z Z Z Z Z Z Z Z Z Z Z Z Z Z Z Z Z Z Z Z Z Z Z Z Z Z = = = J Z Z Z Z Z Z Z Z Z Z Z Z Z Z Z Z Z Z Z Z Z Z Z Z Z Z Z Z Z Z ",
"Z Z Z Z Z Z Z Z Z Z Z Z Z Z Z Z Z Z Z Z Z Z Z Z Z Z Z Z Z Z = = = J Z Z Z Z Z Z Z Z Z Z Z Z Z Z Z Z Z Z Z Z Z Z Z Z Z Z Z Z Z Z ",
"K K K K K K K K K K K K K K K K K K K K K K K K K K K K K K = = = J K K K K K K K K K K K K K K K K K K K K K K K K K K K K K K ",
"K K K K K K K K K K K K K K K K K K K K K K K K K K K K K K = = = J K K K K K K K K K K K K K K K K K K K K K K K K K K K K K K ",
"K K K K K K K K K K K K K K K K K K K K K K K K K K K K K K = = = J K K K K K K K K K K K K K K K K K K K K K K K K K K K K K K ",
"L L L L L L L L L L L L L L L L L L L L L L L L L L L L L L = = = J L L L L L L L L L L L L L L L L L L L L L L L L L L L L L L ",
"P P P P P P P P P P P P P P P P P P P P P P P P P P P P P P = = = J P P P P P P P P P P P P P P P P P P P P P P P P P P P P P P ",
"P P P P P P P P P P P P P P P P P P P P P P P P P P P P P P = = = J P P P P P P P P P P P P P P P P P P P P P P P P P P P P P P ",
"I I I I I I I I I I I I I I I I I I I I I I I I I I I I I I = = = J I I I I I I I I I I I I I I I I I I I I I I I I I I I I I I ",
"U U U U U U U U U U U U U U U U U U U U U U U U U U U U U U = = = J U U U U U U U U U U U U U U U U U U U U U U U U U U U U U U ",
"Y Y Y Y Y Y Y Y Y Y Y Y Y Y Y Y Y Y Y Y Y Y Y Y Y Y Y Y Y Y = = = J Y Y Y Y Y Y Y Y Y Y Y Y Y Y Y Y Y Y Y Y Y Y Y Y Y Y Y Y Y Y ",
"Y Y Y Y Y Y Y Y Y Y Y Y Y Y Y Y Y Y Y Y Y Y Y Y Y Y Y Y Y Y = = = J Y Y Y Y Y Y Y Y Y Y Y Y Y Y Y Y Y Y Y Y Y Y Y Y Y Y Y Y Y Y ",
"T T T T T T T T T T T T T T T T T T T T T T T T T T T T T T = = = J T T T T T T T T T T T T T T T T T T T T T T T T T T T T T T ",
"R R R R R R R R R R R R R R R R R R R R R R R R R R R R R R = = = J R R R R R R R R R R R R R R R R R R R R R R R R R R R R R R ",
"R R R R R R R R R R R R R R R R R R R R R R R R R R R R R R = = = J R R R R R R R R R R R R R R R R R R R R R R R R R R R R R R ",
"R R R R R R R R R R R R R R R R R R R R R R R R R R R R R R = = = J R R R R R R R R R R R R R R R R R R R R R R R R R R R R R R ",
"E E E E E E E E E E E E E E E E E E E E E E E E E E E E E E = = = J E E E E E E E E E E E E E E E E E E E E E E E E E E E E E E ",
"E E E E E E E E E E E E E E E E E E E E E E E E E E E E E E = = = J E E E E E E E E E E E E E E E E E E E E E E E E E E E E E E ",
"E E E E E E E E E E E E E E E E E E E E E E E E E E E E E E = = = J E E E E E E E E E E E E E E E E E E E E E E E E E E E E E E ",
"E E E E E E E E E E E E E E E E E E E E E E E E E E E E E E = = = J E E E E E E E E E E E E E E E E E E E E E E E E E E E E E E ",
"W W W W W W W W W W W W W W W W W W W W W W W W W W W W W W = = = J W W W W W W W W W W W W W W W W W W W W W W W W W W W W W W ",
"W W W W W W W W W W W W W W W W W W W W W W W W W W W W W W = = = J W W W W W W W W W W W W W W W W W W W W W W W W W W W W W W ",
"Q Q Q Q Q Q Q Q Q Q Q Q Q Q Q Q Q Q Q Q Q Q Q Q Q Q Q Q Q ! = = = J ~ Q Q Q Q Q Q Q Q Q Q Q Q Q Q Q Q Q Q Q Q Q Q Q Q Q Q Q Q Q ",
"^ ^ ^ ^ ^ ^ ^ ^ ^ ^ ^ ^ ^ ^ ^ ^ ^ ^ ^ ^ ^ ^ ^ ^ ^ ^ ^ / ( ) = = = J ) _ ` ^ ^ ^ ^ ^ ^ ^ ^ ^ ^ ^ ^ ^ ^ ^ ^ ^ ^ ^ ^ ^ ^ ^ ^ ^ ^ ^ ",
"' ' ' ' ' ' ' ' ' ' ' ' ' ' ' ' ' ' ' ' ' ' ' ' ' ' ] [ [ [ = = = J [ [ [ { ' ' ' ' ' ' ' ' ' ' ' ' ' ' ' ' ' ' ' ' ' ' ' ' ' ' ",
"} } } } } } } } } } } } } } } } } } } } } } } } } } |  . . ...X.o.O. . . .+.} } } } } } } } } } } } } } } } } } } } } } } } } } ",
"} } } } } } } } } } } } } } } } } } } } } } } } } } @.#. . . . . . . . .$.%.} } } } } } } } } } } } } } } } } } } } } } } } } } ",
"&.&.&.&.&.&.&.&.&.&.&.&.&.&.&.&.&.&.&.&.&.&.&.&.&.&.&.*.=.-.;.[ [ :.>.,.*.&.&.&.&.&.&.&.&.&.&.&.&.&.&.&.&.&.&.&.&.&.&.&.&.&.&.&.",
"<.<.<.<.<.<.<.<.<.<.<.<.<.<.<.<.<.<.<.<.<.<.<.<.<.<.<.<.<.<.<.<.<.<.<.<.<.<.<.<.<.<.<.<.<.<.<.<.<.<.<.<.<.<.<.<.<.<.<.<.<.<.<.<.",
"<.<.<.<.<.<.<.<.<.<.<.<.<.<.<.<.<.<.<.<.<.<.<.<.<.<.<.<.<.<.<.<.<.<.<.<.<.<.<.<.<.<.<.<.<.<.<.<.<.<.<.<.<.<.<.<.<.<.<.<.<.<.<.<.",
"1.1.1.1.1.1.1.1.1.1.1.1.1.1.1.1.1.1.1.1.1.1.1.1.1.1.1.1.1.1.1.1.1.1.1.1.1.1.1.1.1.1.1.1.1.1.1.1.1.1.1.1.1.1.1.1.1.1.1.1.1.1.1.1.",
"2.2.2.2.2.2.2.2.2.2.2.2.2.2.2.2.2.2.2.2.2.2.2.2.2.2.2.2.2.2.2.2.2.2.2.2.2.2.2.2.2.2.2.2.2.2.2.2.2.2.2.2.2.2.2.2.2.2.2.2.2.2.2.2.",
"2.2.2.2.2.2.2.2.2.2.2.2.2.2.2.2.2.2.2.2.2.2.2.2.2.2.2.2.2.2.2.2.2.2.2.2.2.2.2.2.2.2.2.2.2.2.2.2.2.2.2.2.2.2.2.2.2.2.2.2.2.2.2.2.",
"2.2.2.2.2.2.2.2.2.2.2.2.2.2.2.2.2.2.2.2.2.2.2.2.2.2.2.2.2.2.2.2.2.2.2.2.2.2.2.2.2.2.2.2.2.2.2.2.2.2.2.2.2.2.2.2.2.2.2.2.2.2.2.2.",
"3.3.3.3.3.3.3.3.3.3.3.3.3.3.3.3.3.3.3.3.3.3.3.3.3.3.3.3.3.3.3.3.3.3.3.3.3.3.3.3.3.3.3.3.3.3.3.3.3.3.3.3.3.3.3.3.3.3.3.3.3.3.3.3.",
"4.4.4.4.4.4.4.4.4.4.4.4.4.4.4.4.4.4.4.4.4.4.4.4.4.4.4.4.4.4.4.4.4.4.4.4.4.4.4.4.4.4.4.4.4.4.4.4.4.4.4.4.4.4.4.4.4.4.4.4.4.4.4.4.",
"4.4.4.4.4.4.4.4.4.4.4.4.4.4.4.4.4.4.4.4.4.4.4.4.4.4.4.4.4.4.4.4.4.4.4.4.4.4.4.4.4.4.4.4.4.4.4.4.4.4.4.4.4.4.4.4.4.4.4.4.4.4.4.4.",
"5.5.5.5.5.5.5.5.5.5.5.5.5.5.5.5.5.5.5.5.5.5.5.5.5.5.5.5.5.5.5.5.5.5.5.5.5.5.5.5.5.5.5.5.5.5.5.5.5.5.5.5.5.5.5.5.5.5.5.5.5.5.5.5.",
"5.5.5.5.5.5.5.5.5.5.5.5.5.5.5.5.5.5.5.5.5.5.5.5.5.5.5.5.5.5.5.5.5.5.5.5.5.5.5.5.5.5.5.5.5.5.5.5.5.5.5.5.5.5.5.5.5.5.5.5.5.5.5.5.",
"6.6.6.6.6.6.6.6.6.6.6.6.6.6.6.6.6.6.6.6.6.6.6.6.6.6.6.6.6.6.6.6.6.6.6.6.6.6.6.6.6.6.6.6.6.6.6.6.6.6.6.6.6.6.6.6.6.6.6.6.6.6.6.6.",
"7.7.7.7.7.7.7.7.7.7.7.7.7.7.7.7.7.7.7.7.7.7.7.7.7.7.7.7.7.7.7.7.7.7.7.7.7.7.7.7.7.7.7.7.7.7.7.7.7.7.7.7.7.7.7.7.7.7.7.7.7.7.7.7."
};
