/* XPM */
static char *_101e5b738134f00ba0a15d2a3bd31a7BmV7yFdNuyAZBqyp[] = {
/* columns rows colors chars-per-pixel */
"64 64 166 2 ",
"   c #000000",
".  c #07090B",
"X  c #02111D",
"o  c #131313",
"O  c #041A2E",
"+  c #051F37",
"@  c gray18",
"#  c #375D3E",
"$  c #385E3E",
"%  c #3A613F",
"&  c #062847",
"*  c #0A3B66",
"=  c #0A3D6B",
"-  c #365E42",
";  c #395F41",
":  c #355F4A",
">  c #3B6443",
",  c #3E6947",
"<  c #34614F",
"1  c #316359",
"2  c #0A4070",
"3  c #0B497F",
"4  c #264379",
"5  c #2E6564",
"6  c #2C666B",
"7  c #29687A",
"8  c #484848",
"9  c #45734D",
"0  c #48794F",
"q  c #4A7B53",
"w  c #477851",
"e  c #6A6A6A",
"r  c gray48",
"t  c #579D4F",
"y  c #4E8459",
"u  c #528A5E",
"i  c #50865A",
"p  c #569756",
"a  c #579A52",
"s  c #56925C",
"d  c #559859",
"f  c #4C8E6D",
"g  c #558D62",
"h  c #4E966E",
"j  c #4F9364",
"k  c #539362",
"l  c #50956A",
"z  c #448C7A",
"x  c #49967B",
"c  c #4C9771",
"v  c #144588",
"b  c #154B91",
"n  c #0E599C",
"m  c #15529D",
"M  c #1F6E9E",
"N  c #276980",
"B  c #0F5FA5",
"V  c #1559A7",
"C  c #186AA7",
"Z  c #1C71AA",
"A  c #1067B3",
"S  c #1664B9",
"D  c #1972B4",
"F  c #1873BD",
"G  c #1C7ABF",
"H  c #257EAF",
"J  c #227DB5",
"K  c #425F90",
"L  c #466394",
"P  c #667BA1",
"I  c #166DC5",
"U  c #1473C3",
"Y  c #1475CC",
"T  c #1A79CD",
"R  c #1879C5",
"E  c #1676D2",
"W  c #157AD5",
"Q  c #167CDB",
"!  c #237DCD",
"~  c #37878F",
"^  c #368891",
"/  c #3C949D",
"(  c #3F9693",
")  c #2780AC",
"_  c #3996A4",
"`  c #3695AD",
"'  c #2F95BF",
"]  c #3493B3",
"[  c #3194BC",
"{  c #43958C",
"}  c #489281",
"|  c #419492",
" . c #7D829B",
".. c #5881B5",
"X. c #6F83A7",
"o. c #1580DF",
"O. c #1B88DD",
"+. c #2981CD",
"@. c #3184CD",
"#. c #2F94C2",
"$. c #2A94CD",
"%. c #3093C0",
"&. c #2280D2",
"*. c #3689D9",
"=. c #2794D6",
"-. c #2993D3",
";. c #2593DB",
":. c #1583E4",
">. c #1689EC",
",. c #1A8CE8",
"<. c #1E93EE",
"1. c #178EF7",
"2. c #188DF5",
"3. c #178EF8",
"4. c #1C93F4",
"5. c #1791FC",
"6. c #1893FF",
"7. c #2193E6",
"8. c #2094E9",
"9. c #2898FB",
"0. c #3CA4FF",
"q. c #468ECD",
"w. c #4A90CD",
"e. c #5D99CD",
"r. c #5896CD",
"t. c #4391D6",
"y. c #74A3CD",
"u. c #43A7FF",
"i. c #54AFFF",
"p. c #66ADEB",
"a. c #7EC3FF",
"s. c gray55",
"d. c gray51",
"f. c #979797",
"g. c #898DA4",
"h. c #A3A7B9",
"j. c #BABABA",
"k. c #B2B2B2",
"l. c #89ADCD",
"z. c #9BB6CD",
"x. c #93BADD",
"c. c #ADBECD",
"v. c #B9C4CD",
"b. c #BAC3D4",
"n. c #BDCFE3",
"m. c #BBD0E8",
"M. c #CECECE",
"N. c #C1C4CF",
"B. c #CDCFD9",
"V. c #CED1DB",
"C. c #D3D3D3",
"Z. c #DBDBDB",
"A. c #D1D3DC",
"S. c #DAE0E4",
"D. c #C9E6FF",
"F. c #D9ECFE",
"G. c #D5ECFF",
"H. c gray89",
"J. c #EBEBEC",
"K. c #E2E3E9",
"L. c #EAF6FF",
"P. c #F2F3F3",
"I. c #F9FAFA",
"U. c white",
"Y. c #FFFFFF",
"T. c #F2F9FF",
/* pixels */
"t t t t t t t t t t t t t t t t t t t t t t t t t t t t t t t t t t t t t t t t t t t t t t t t t t t t t t t t t t t t t t t t ",
"t t t t t t t t t t t t t t t t t t t t t t t t t t t t a t t t t t t t t t t t t t t t t t t t t t t t t t t t t t t t t t t t ",
"t t t t t t t t t t t t t t t t t t t t t t t t t t t t t t t t t t t t t t t t t t t t t t t t t t t t t t t t t t t t t t t t ",
"t t t t a t t t t t t t t t t t a t t t t t t t t t t t t t t t t t t t t t t t a t t a t t t t t t t t t t a t t t t t t t t t ",
"a t t t t t t a t t t a t t t a t a t a t a t t t t t a t a a t t a t t t a t t t a t t t a t a t t t a t t a t t a t a t t t t ",
"t a a t t t t t a a t t t t t t t t t t t t t t t t t a t t t t t t t a t t t t t t t t t t t t t t t t t t t t t t t t t t t a ",
"t t t t a a t a t a t a t t a t a t t a a t t a a t a t a t a a a t t t a t a a a t t a a t t t t a t t a t a t a t t a a a a t ",
"a a a a t a a t a t t a a a a a a t a t a a a a t a a t a t a t a a a a t a a t t a a t a a a a a t a a a a t a a a t a a a a a ",
"a a a t t a a a a a t a a a a t a a t a a t a t a t t a a t t a t a a t a a a t a a t a a a a t a a a t a a a t t a t a a t a a ",
"t t a a a a t a a t a a t a a a t a a t t a t a a a a a t a a a a t t a a a t a a t a t a a a a t t a a t t a a a t a a t a a t ",
"a a t a a a a a a t a t a t t a a a a a a a a a t a a t a a a a a a a a a a a a a a a a a a a a a a t a a a a a a a a t a t a a ",
"a a a a a a a a a a a a a a a a a a a a a a a a a a a a a a a a a a a a a a a a a a a a a a a a a a a a a a a a a a a a a a a a ",
"a a a a a a a a a a a a a a a a a a a a a a a a a a a a a a a a a a a a a a a a a a a a a a a a a a a a a a a a a a a a a a a a ",
"a a a a p a a a a p a a a a a a a a a p p a a a a a a a a a a p a a a a a p a a a a a a a a a a a a a a a a p a p a a a a a a a ",
"a a a a p a p a a a a a a p p a a p a a a a p a a p a p a p a a a p a a a a a p a a a a p a p a a a a a p a p a a a a p a a a a ",
"p a a p a a a a a p p a a a a a a } p p a a a a a a a a a a p p a a a p a p a a a a a a a a p { a a a p a a a a p a a p a a a a ",
"a p p a a p a a a a p a a p a a p 8.8./ a a a a p a a p a a a a a p a a a a a a d a a a d _ <.7.a a p a p a p a a p a a a a p a ",
"p a a p p a a a a p p a a p a a s 9.6.6.8./ d a a p p a a p a p p a p p p p p p a a d _ <.6.6.5.p a a p a a a p p a s a a p a p ",
"a a a a a a p a a p a p p p a p p 6.6.6.6.6.7.h p a a p p a p a a p a a a p a a a } 7.6.6.6.6.6.p p p p a a a p a a a a p a a p ",
"p p p p p s a p p a p p a p p a p 6.6.6.6.6.6.5./ p d ( [ ;.8.4.6.9.8.=.[ { d a ` 6.6.6.6.6.6.6.a a p a a p p a p p s a p p a p ",
"p a a p p p p a a a p a p a p p a 6.6.6.6.6.6.6.6.;.4.6.6.6.6.6.6.6.6.6.6.6.4.;.6.6.6.6.6.6.6.6.p a a p p p a p p a p a a p a p ",
"p p p p p p p p p p p p p p p a p 8.6.6.6.6.6.6.6.6.6.6.6.6.6.6.6.6.6.6.6.6.6.6.6.6.6.6.6.6.6.7.a s p p p p p p p p p p s a p p ",
"p p a p p p p p p p p p p p p p p 7.6.6.6.6.6.6.6.6.6.6.6.6.6.6.6.6.6.6.6.6.6.6.6.6.6.6.6.6.6.$.p p a p p p p p p p p p p a p p ",
"p p p p p p p p p p p a p p p p p %.6.6.6.6.6.6.6.6.6.6.6.6.6.6.6.6.6.6.6.6.6.6.6.6.6.6.6.6.6./ p p s a p p p p a s p p p p p p ",
"p p p p p p p p p p p p p p p p a | 6.6.6.6.6.6.6.6.6.6.6.6.6.6.6.6.6.6.6.6.6.6.6.6.6.6.6.6.6.x p p p p p p h -.9.9.` p p p p p ",
"p p p p p p p p p p p p p s p p p s 5.6.6.6.6.6.6.6.6.6.6.6.6.6.6.6.6.6.6.6.6.6.6.6.6.6.6.6.5.d p d p p p s 8.6.6.6.6.x p p p p ",
"p p p p p p p p p p p p p p p p a d 4.6.6.6.6.6.6.6.6.6.6.6.6.6.6.6.6.6.6.6.6.6.6.6.6.6.6.6.,.d p p p p p | 6.6.6.6.6.` p p p p ",
"p p p p s p p p p p s p p p p p d [ 6.6.6.6.6.6.6.6.6.X O 6.6.6.6.6.6.6.X O 6.6.6.6.6.6.6.6.:.^ p s p p p ] 6.6.6.6.6.$.p p p p ",
"s p p p s p s p p s p s p p p s h 6.6.6.6.6.6.6.6.6.B     U 6.6.6.6.6.B     U 6.6.6.6.6.6.6.5.Y k d s p a [ 6.6.6.6.6.$.p p p s ",
"s p p s s p p p p p p s s p p s [ 6.6.6.6.6.6.6.6.6.=     n 6.6.6.6.6.=     n 6.6.6.6.6.6.6.6.W ~ p s p s [ 6.6.6.6.6.$.s p p p ",
"p s p p p p s p s p p p p p s s 4.6.6.6.6.6.6.6.6.6.*     n 6.6.6.6.6.*     n 6.6.6.6.6.6.6.6.:.R s p p s [ 6.6.6.6.6.[ p s s p ",
"s p s p s p p s p s s p s p s { 6.6.6.6.6.6.6.6.6.6.*     n 6.6.6.6.6.*     n 6.6.6.6.6.6.6.6.>.Y z p s s [ 6.6.6.6.6.| s p p s ",
"s p s p p p p p s p p p s p s #.6.6.6.6.6.6.6.6.6.6.2     n 6.6.6.6.6.=     B 6.6.6.6.6.6.6.6.2.Y ^ p s d #.6.6.6.6.6.l p p p s ",
"s p s p s s s s p s s s s s p ;.6.6.6.6.3.6.6.6.6.6.A     Y 6.6.6.6.6.A     Y 6.6.6.6.6.6.6.6.3.Y ) p s s 8.6.6.6.6.-.p s s s p ",
"p s p s s p p s s s p s p s p <.6.6.6.6.S V >.9.6.6.5.+ & 6.6.6.6.6.6.1.+ & 3.6.6.6.Q V I 6.6.6.Y R s s | 6.6.6.6.6.x s s p s p ",
"s s s s s s s s s p s s p s p 5.6.6.6.6.6.2.I V m Q 6.o.:.B         . U :.:.6.E m V Y 3.6.6.6.6.Y R p | 5.6.6.6.6.] p s s s s s ",
"p s s s s s s p s p s s s s s 6.6.6.6.W Y I Y I I m v v W *           n I b v V I I Y I Y Q 6.1.Y Y ' 6.6.6.6.6.-.s p s s s s s ",
"s s s p s s s s s s s s s s d 4.6.3.i.n.V.V.V.c.P 4 L ..*.v           B *.P K = X.b.V.V.B.m.0.>.Y W 6.6.6.6.6.;.g s s s s p s s ",
"s s s s s s s s s s s p s s s 4.6.6.L.Y.N. .g.h.A.I.Y.Y.Y.J.@       8 P.Y.Y.Y.I.B.h.g. .A.Y.G.o.Y W 6.6.6.5.[ k s s s s s s p s ",
"s s s s s s s s s s s s s s s *.6.0.Y.Y.K.I.Y.Y.Y.Y.Y.Y.Y.Y.Z.s.r s.H.Y.Y.Y.Y.Y.Y.Y.Y.I.K.Y.Y.&.Y :.6.6.<.{ d s s s s s s s s s ",
"s s s s s s s s s s s s s s s ] 6.u.Y.Y.Y.Y.Y.Y.Y.Y.Y.Y.j.C.Y.P.J.P.Y.j.C.Y.Y.Y.Y.Y.Y.Y.Y.Y.J.+.E O.%.} g s s s s s s s s s s s ",
"s s s s s s s s s s s s s s s } 6.9.Y.Y.Y.Y.Y.Y.Y.Y.Y.Y.f.8 P.Y.Y.Y.J.@ j.Y.Y.Y.Y.Y.Y.Y.Y.Y.Z.Y Y f g s s s s s s s s s s s s s ",
"s s s s s s s s s s s s s s s s ,.6.F.Y.Y.Y.Y.Y.Y.Y.Y.Y.P.e o 8 e 8 o d.Y.Y.Y.Y.Y.Y.Y.Y.Y.J.z.Y J s s s s s s s s s s s s s s s ",
"s s s s g s s s g s s s s s s s / 6.x.T.Y.Y.Y.Y.Y.Y.Y.Y.Y.Y.H.k.f.k.J.Y.Y.Y.Y.Y.Y.Y.Y.Y.I.M.q.Y z s g s s s s s g s s s s s s g ",
"s s s s s s s s s s s s s s s s u 7.6.F.Y.Y.Y.Y.Y.Y.Y.Y.Y.Y.Y.Y.Y.Y.Y.Y.Y.Y.Y.Y.Y.Y.Y.I.M.z.Y ) g s s s s s s s s s s s s s s g ",
"g g s g s g s g g s s g g s g s s f <.0.T.Y.Y.Y.Y.Y.Y.Y.Y.Y.Y.Y.Y.Y.Y.Y.Y.Y.Y.Y.Y.Y.I.C.v.! U j s g s g g s g s g s g s g s s s ",
"s s s s g g s g s g s g s s s g s 9 5 ,.u.L.Y.Y.Y.Y.Y.Y.Y.Y.Y.Y.Y.Y.Y.Y.Y.Y.Y.Y.Y.J.M.c.+.Y 1 0 s s s g g s s g s s s g s g g s ",
"s g g s s g s s s g s s s g g s s $ % 5 W 9.D.Y.Y.Y.Y.Y.Y.Y.Y.Y.Y.Y.Y.Y.Y.Y.Y.P.Z.M.l.T Y 1 $ % g g s s s s g s s g s g s s g s ",
"g s g s g s g s g s g s g s g s g % % $ 1 D Q p.F.Y.Y.Y.Y.Y.Y.Y.Y.Y.Y.Y.I.J.C.M.z.q.Y Z < $ $ > s g s g g s g g s g g s g s g s ",
"s g s g s g s g s s g g s g s g s 0 $ $ $ - 7 U Y t.x.S.J.J.P.J.J.H.Z.C.M.v.y.@.Y F 7 # $ $ $ q g s g s s g s g s s s g s g s g ",
"s g g s g g g g s g s s s g g s s g 9 $ $ # # # 6 D Y Y @.q.r.e.e.e.r.q.+.Y Y Z 6 - # # $ $ 0 s s g g s s s s g s s s s s s g s ",
"g s g g s g s s g s g g g s g g g u k i 9 # # # # # : 5 N M D F F F D M 7 5 : # # # # # 9 i g s g s g g g g g s g g g g g g g g ",
"g s s g g s g g g s s g g g s g g s g s g i w > # # ; # # # $ # $ $ # # # # # $ # > w i g s g g g s s g g s s g g s g s g s g g ",
"g g g g g g s g g g g g s g g g g g g g g g g g u y w 9 , > - $ - $ - > 9 9 w q u g k g u g g g g g g g g g g g k g g g g g g g ",
"g g g g g g g g g g g s g g g s g s u g g g g g g u g s g g g k g g g g s g g u g g g g g g g g g g s g g s g g g g g g s g s g ",
"g g s g g g s s s g g g g g g g g g g g g g g g g g g g g g g u g u g g g g g g g g s g g g g g g g g g g g g g g s g g g g g g ",
"g g g g g g g g g g g g g g g g g g g g g g g g g g g g g g g g g s g g g g g g g g g g g g g g g g g g g g g g g g g g g g s g ",
"g g g g g g g g g g g g g g g g g g g g g g g g g g g g g g g g g g g g g g g g g g g g g g g g g g g g g g g g g g g g g g g g ",
"g g g g g g g g g g g g g g g g g g g g g g g g g g g g g g g g g g g g g g g g g g g g g g g g g g g g g g g g g g g g g g g g ",
"g g g g g g g g g g g g g g g g g g g g g g g g g g g g g g g g g g g g g g g g g g g g g g g g g g g g g g g g g g g g g g g g ",
"g g g g g g g g g g g g g g g g g g g g g g g g g g g g g g g f g g g g g g g g g g g g g g g g g g g g g g g g f r g g g g g g ",
"g g g g g j g g r g g g g g g g g g g g g g g g g g g g g g g g g g g g g g g g g g g g g g g g g g g g g g g g g g g g g g g g ",
"g g f g g e g g f g g g g g g g g g g g g g g g g g g g g g g g g e g g g g g g g g g l f g g g r g g f g q g g g g g g g g g g ",
"g g g g g g f g g g g g g g g g f h e g g g g g g f l e g g g g f l f g g g g g f g g e g g g g f g g g f g g g g g g f g g g g "
};
