/* XPM */
static char *result[] = {
/* columns rows colors chars-per-pixel */
"64 64 87 1 ",
"  c #375D3D",
". c #385D3D",
"X c #3A613F",
"o c #3D6343",
"O c #3F6B45",
"+ c #456649",
"@ c #436D49",
"# c #4A6B4E",
"$ c #4C6F51",
"% c #4A7C52",
"& c #BD534F",
"* c #8F7C52",
"= c #9C7752",
"- c #927B52",
"; c #997951",
": c #AD6F51",
"> c #BC6751",
", c #B66A51",
"< c #B86852",
"1 c #A27451",
"2 c #C64343",
"3 c #DC554F",
"4 c #CC5F50",
"5 c #C45C5C",
"6 c #DD5650",
"7 c #D45B50",
"8 c #DA5850",
"9 c #E54E4E",
"0 c #EA4F4F",
"q c #E1504E",
"w c #E65250",
"e c #EA5050",
"r c #C36451",
"t c #CB6050",
"y c #D9655E",
"u c #D8776F",
"i c #579D4F",
"p c #4D8154",
"a c #538C5D",
"s c #569756",
"d c #5D9555",
"f c #579A52",
"g c #599952",
"h c #56935B",
"j c #61964E",
"k c #6D8D54",
"l c #738B52",
"z c #798951",
"x c #669252",
"c c #6C9151",
"v c #669359",
"b c #60995F",
"n c #5DA155",
"m c #65A15C",
"M c #558E62",
"N c #5C8D63",
"B c #609665",
"V c #639B64",
"C c #659C6A",
"Z c #67A460",
"A c #69A761",
"S c #838451",
"D c #888757",
"F c #7F9081",
"G c #B19D96",
"H c #92A395",
"J c #B9A9A5",
"K c #AFB5AF",
"L c #AFB6B0",
"P c #AFB8B1",
"I c #B8BEB9",
"U c #E08F8F",
"Y c #E69292",
"T c #E39D9D",
"R c #D3BAB3",
"E c #B1D1AD",
"W c #C2C8C3",
"Q c #D4CDC4",
"! c #CFD3CF",
"~ c #D1D6D1",
"^ c #D2D9D2",
"/ c #DCDCDC",
"( c #DFE0E0",
") c #E1E1E1",
"_ c #E1EAE1",
"` c #E5F0E4",
"' c gray98",
/* pixels */
"iiiiiiiiiiiiiiiiiiiiiiiiiiiiiinmmmiiiiiiiiiiiiiiiiiiiiiiiiiiiiii",
"iiiiiiiiiiiiiiiiiiiiiiiiiiiiimE``Eniiiiiiiiiiiiiiiiifiiiiiiiiiii",
"iiiiifiiiiiiiiiiiiiiiiiiiiiiim_''^miiiiiiiiiiiiiiiiiiiiiiiiiiiii",
"iiiiiiiiiiiiiiiiiiiiiiiiiiiiibQ__JDjiiiiiiiiiiiiiiiiiiiiiiiiiiii",
"fiiififiifiiifiiiifffiifififixuYU56tSciiifiiifiiiffififiniififii",
"iffifiiiiiffiiinfiiiifiiiiific8e02q004;ciiifiiiiniiifiiiifiiiiif",
"iiiiiiiifiiifiiifiiiifiififiic8e92q0eee71ljifiigiiiiiiiiiiiiiiif",
"fffffffffffififfifffiffffififx8w92weeeeee7,zgggiifffffffifffffif",
"fiififfiififffiffiffiffiiffiic8e9290eeeeeeeq,Djgffiffiifffifiiff",
"fffiffigfiffiffififiiffiffiffx8e92q0eeee9eeeeqrSjifffffffifffffi",
"iffgfifffifiiffiifffffiffiiffc8e0200eeeeeeeeeeewt=ciiffififiiffi",
"fffffffffffffffffffffffffffffx8e92qeeeeeeeeeeeeeee71lfffffffffff",
"fffffffffffdfffffffffffffffffx8e929eeeeeeeeeeeeeeeee8:zdffffffff",
"fffffffffffsfffffsfffffffffffk89920eeeeeeeeeeeeeeeeeee6<zfffffff",
"sffffssfsffffffffffffffdffffgv8e92qeeeeeeeeeeeeeeeee9641lffffffs",
"ffsfffffffsfffffffsffsfsfsfffx8e929eeeeeeeeeeeeeee8r=zdffsfdsfff",
"ffffsfsfffsfsfsfffsffsfsfffsgv6e929eeeeeeeeeee98r=zdfsffsfffsfsf",
"ssfsdfsfsffsfdfffsffsfffsfsffk8e929eeeeeeeee6>;ldffgsfsggssggssf",
"fsffsffsfsfssfssffffffsdfssfsv39929eeeeew8>;ldffsfsfsfffsfsssfgs",
"sfssfsfsfssffsfsssssssfssfssfv89929eee8<-kssfssfssfsfssssfsffsfs",
"sfsfssfsfsfssfsfsfsssssfffsfgv8e92w7<*kfsfssfsssfsssfsfssfsfssfs",
"sssssssssssssssssssfsssssssssvye9&*kssssssssssssssfsssssssssssss",
"ssssssssssssssssssssssssssssfCRTTGBssssssssffssssssssfssssssssss",
"fsssssfssssfsssssfsssfsssssssZ^)/Pbsssfsssssssssfsssssssfssssfss",
"sssssssssssssssssssssssssssssC^)/Lbsssssssssssssssssssssssssssss",
"sssshssssssssssssssssssssssssZ^)/Lbsssssssssssshssssssssssssssss",
"ssssssssssssshsssssssssssssssC^)/Kbssssssssssssssshssshsssssssss",
"shssssssssssssssshsshssssshsgV^)/Kbhshsssshshssssssssssssssssshs",
"sshsssshhsssshhsshshsssssssshC^)/LBsssssssssshhshhsssssssssssssh",
"shssshshshhsssssssssshhsshsssC^(/Pbshsshhshsssssssshhshshshshsss",
"hsshsssssshshssshsshsssshhshsC^(/LBshshssssshsshhsshhsssshshshhs",
"shhshhhsasshshhhshhshhhhhshssC^(/LBssshhhhhhshshsshsshshhshshshh",
"hsssshhsssshshhshsssssshhshssC^(/KBssshsfhssshsshhshhshshsshsshs",
"hhhhhshhhhhshshshhhhhhhshhshhC^)/KBhhhhhhhhhshhhshhsshshhhhshhhh",
"shhhhhhshhshhsshshshhhshshhshC^)/Pbshhshhsshhshshshhshshhhhhhshs",
"shshhshshshhhhhhhhhhhshhhhshhC^)/KBhsshhhhhdhhhhhhhshhhhshshhhhh",
"hhhhhhhhhhhhhhhhhhhhhshhhhhhsC^)/LBhhhhhhhhhhhhhhhhhhhshhhhhhdhh",
"hhhhhhhhhhshhhhhhshhhhhhhshhhC^)/PBhhhhhhhhhhhhhhhhhhhhhhhhhhhhh",
"hhhhhhhhhhhhhhhhhhhhhhhhhhhhhC^)/LBhhhhhhhhhhhhhshhhhhhhshhhhhhh",
"hhhhhhhhhhhhhhhhhhhhhhhhhhhhMC^)/LBhhhhhhhhhhhhhhhhhhhhhhhhhhhhh",
"hhhhhhhMhhMhhhhhhhMhhhhhhhhhhC^)/LBhhhhhMhhhhhMhhhhMhMhhhhhhhhhM",
"hhhhhhhhhhhhhhhhhhhhhhhhhhhhMC^)/LBhhhhhhhhhhhhhhhhhhhhhhhhhhhhh",
"hhhhhhhhhhhhhhhhhhhhhhhMhMhhhC^)/LBhhhhhhhhhhhhhhhhhhhhhhhhhhhhh",
"NhhhMhMhhMhhMhNhhhMhMhhhhhMhhC^)/LBhhMhhMhhMhhMhhMhhMhhhhhNMhhhh",
"hMMhhhhhhhhhhhMhhhhhhhhMhMhhMC^(/LBahMhMhhhhhMhhhhMhhhhhMhhhhhhh",
"hhhhhMhMhMMahMhhMMhMMhhhhhhMMM^(/LNahhhhhMhMMhMhMhMhMhMhhhMhMMMh",
"MhhMhMhMNhhMMhhMhMNhhMMhhMM%O%!(/K+opahMhMhhhhMMMhhhNhMhhMhMhhhM",
"hMhNhhMhhhMhhMhMhhhhMhhMMM%o $~`/K+ opMhMhhMhMhhhMhMMMhhMhhMMhhM",
"MhMhMMhhhNMhMhNhMMMMMMMMMM%o oFWEFo  %hMMMMMMMMMNhMhMhMNMhMhNhMh",
"hMhMNMMhMMhMMhMMMMMMMMMMMMaO oOOoo oOaMhMMMMMMMMhMhMhMNhhMhMhMhM",
"hhMhhhhhhhhhMhhMMMMMMMMMhhaa%OOoooO%hMhMMMMMMMMMhMMhMhMhMhhhMhMh",
"MMMMMMMMMMMMMMhMMMMMMMMMMMMMMaaaaahMMMMhMMMMMMMMMhMMhMMMMMMMMMMM",
"MMMhMMMMMhMhMMMhMMMMMMMMMMhMMhhMMMMMMMhMMMMMMMMMMMMhMMMhMhMMhMhM",
"MhMhhMMhMMMMMhMMMMMMMMMMMMMMMMMMMMMMhMMMMMMMMMMMMhMhMhMhMMMhMMMM",
"MMMMMMMMMMMMhMMMMMMMMMMMMMMMMMMhMMMMMMMMMMMMMMMMMMMMMMMMMMMMMMMM",
"MMMMMMMMMMMMMMMMMMMMMMMMMMhMMMMMMMMMMMMMMMMMMMMMMMMMMMMMhMMMMhMM",
"MMMMMMMMMhMMMMMMMMMMMMMMMMMMMMMMMaMMMMMaMMMMMMMMMMMMMMMMMMMMMMMM",
"MMMMMMMMMMMMMMMMMMMMMMMMMMMMMMMMMMMMMMMMMMMMMMMMMMMMMMMMMMMMMMMM",
"MMMMMMMMMMMMMMMMMMMMMMMMMMMMMMMMMMMMMMMMMMMMMMMMMMMMMMMMMMMMMMMM",
"MMMMMMMMMMMMMMMMMMMMMMMMMMMMMMMMMMMMMMMMMMMMMMMMMMMMMMMMMMMMMMMM",
"MMMMMMMMMMMMMMMMMMMMMMMMMMMMMMMMMMMMMMMMMMMMMMMMMMMMMMMMMMMMMMMM",
"MMMMMMMMMMMMMMMMMMMMMMMMMMMMMMMMMMMMMMMMMMMMMMMMMMMMMFMMMMMMMMMM",
"MMMM%FMMM%MMMMMMMMMMMMMMMMMMMMMMMMMMMMMMMMMMMMMMMMMMM%MMM%MMMMMM",
"MMMMMMMMMFMMMMMMMMMMMMMMMMMMMMMM%FMMMMMMMMMMMMMMMMMMMMMMMFMMMMMM"
};
