/* XPM */
static char *result[] = {
/* columns rows colors chars-per-pixel */
"64 64 253 2 ",
"   c #579D4E",
".  c #579D4E",
"X  c #579D4E",
"o  c #579D4E",
"O  c #579D4F",
"+  c #579D4F",
"@  c #579D4F",
"#  c #579D4F",
"$  c #579C4F",
"%  c #579C4F",
"&  c #579C4F",
"*  c #579C4F",
"=  c #579C4F",
"-  c #579C4F",
";  c #579C4F",
":  c #579C4F",
">  c #579C50",
",  c #579C50",
"<  c #579C50",
"1  c #579C50",
"2  c #579C50",
"3  c #579C50",
"4  c #579C50",
"5  c #579C50",
"6  c #579C50",
"7  c #579B50",
"8  c #579B50",
"9  c #579B50",
"0  c #579B50",
"q  c #579B51",
"w  c #579B51",
"e  c #579B51",
"r  c #579B51",
"t  c #579B51",
"y  c #579B51",
"u  c #579B51",
"i  c #579B51",
"p  c #579B51",
"a  c #579B51",
"s  c #579B51",
"d  c #579B51",
"f  c #579A51",
"g  c #579A51",
"h  c #579A51",
"j  c #579A51",
"k  c #579A52",
"l  c #579A52",
"z  c #579A52",
"x  c #579A52",
"c  c #579A52",
"v  c #579A52",
"b  c #579A52",
"n  c #569953",
"m  c #569953",
"M  c #569953",
"N  c #579953",
"B  c #579953",
"V  c #569953",
"C  c #579953",
"Z  c #569953",
"A  c #579953",
"S  c #569953",
"D  c #579953",
"F  c #579953",
"G  c #569953",
"H  c #569954",
"J  c #579954",
"K  c #569954",
"L  c #579954",
"P  c #569854",
"I  c #579854",
"U  c #569854",
"Y  c #579854",
"T  c #579854",
"R  c #579854",
"E  c #579854",
"W  c #569854",
"Q  c #569855",
"!  c #569855",
"~  c #569855",
"^  c #569855",
"/  c #569855",
"(  c #569855",
")  c #569855",
"_  c #569855",
"`  c #569756",
"'  c #569756",
"]  c #569756",
"[  c #569756",
"{  c #569756",
"}  c #569756",
"|  c #569756",
" . c #569756",
".. c #569756",
"X. c #569756",
"o. c #569756",
"O. c #569756",
"+. c #569756",
"@. c #569756",
"#. c #569756",
"$. c #569657",
"%. c #569657",
"&. c #569657",
"*. c #569657",
"=. c #569657",
"-. c #569657",
";. c #569657",
":. c #569657",
">. c #569657",
",. c #569657",
"<. c #569657",
"1. c #569658",
"2. c #569658",
"3. c #569658",
"4. c #569658",
"5. c #569558",
"6. c #569558",
"7. c #569558",
"8. c #569558",
"9. c #569558",
"0. c #569558",
"q. c #569558",
"w. c #569558",
"e. c #569459",
"r. c #569459",
"t. c #569459",
"y. c #569559",
"u. c #569559",
"i. c #569559",
"p. c #56945A",
"a. c #56945A",
"s. c #56945A",
"d. c #56945A",
"f. c #56945A",
"g. c #56945A",
"h. c #56945A",
"j. c #56945A",
"k. c #56935A",
"l. c #56935A",
"z. c #56935A",
"x. c #56935A",
"c. c #56935B",
"v. c #56935B",
"b. c #56935B",
"n. c #56935B",
"m. c #56935B",
"M. c #56935B",
"N. c #56935B",
"B. c #56935B",
"V. c #56935B",
"C. c #56935B",
"Z. c #56935B",
"A. c #56925C",
"S. c #56925C",
"D. c #56925C",
"F. c #56925C",
"G. c #56925C",
"H. c #56925C",
"J. c #56925C",
"K. c #56925C",
"L. c #56925C",
"P. c #56925C",
"I. c #56925C",
"U. c #56925C",
"Y. c #56925C",
"T. c #56925C",
"R. c #56925C",
"E. c #56925C",
"W. c #56915D",
"Q. c #56915D",
"!. c #56915D",
"~. c #56915D",
"^. c #56915D",
"/. c #56915D",
"(. c #56915D",
"). c #56915D",
"_. c #55915E",
"`. c #55915E",
"'. c #55915E",
"]. c #56915E",
"[. c #56915E",
"{. c #55915E",
"}. c #56915E",
"|. c #55915E",
" X c #56905E",
".X c #55905E",
"XX c #56905E",
"oX c #55905E",
"OX c #55905F",
"+X c #56905F",
"@X c #56905F",
"#X c #55905F",
"$X c #56905F",
"%X c #55905F",
"&X c #56905F",
"*X c #55905F",
"=X c #56905F",
"-X c #56905F",
";X c #56905F",
":X c #56905F",
">X c #55905F",
",X c #558F60",
"<X c #558F60",
"1X c #558F60",
"2X c #558F60",
"3X c #558F60",
"4X c #558F60",
"5X c #558F60",
"6X c #558F61",
"7X c #558F61",
"8X c #558F61",
"9X c #558F61",
"0X c #558E61",
"qX c #558E61",
"wX c #558E61",
"eX c #558E61",
"rX c #558E61",
"tX c #558E61",
"yX c #558E61",
"uX c #558E61",
"iX c #558E61",
"pX c #558E61",
"aX c #558E61",
"sX c #558E62",
"dX c #558E62",
"fX c #558E62",
"gX c #558E62",
"hX c #558D62",
"jX c #558D62",
"kX c #558D62",
"lX c #558D62",
"zX c #558D62",
"xX c #558D62",
"cX c #558D62",
"vX c #558D62",
"bX c #558D62",
"nX c #558D63",
"mX c #558D63",
"MX c #558D63",
"NX c #558D63",
"BX c #558D63",
"VX c #558D63",
"CX c #558D63",
"ZX c #558D63",
"AX c #558C63",
"SX c #558C63",
"DX c #558C63",
"FX c #558C63",
"GX c #558C64",
"HX c #558C64",
"JX c #558C64",
"KX c #558C64",
"LX c white",
/* pixels */
"  . X X X X X X X X X X X X X X X X X X X X X X X X X X X X X X X X X X X X X X X X X X X X X X X X X X X X X X X X X X X X X o ",
"O + + + + + + + + + + + + + + + + + + + + + + + + + + + + + + + + + + + + + + + + + + + + + + + + + + + + + + + + + + + + + @ # ",
"$ % & & & & & & & & & & & & & & & & & & & & & & & & & & & & & & & & & & & & & & & & & & & & & & & & & & & & & & & & & & & & & * ",
"= - ; ; ; ; ; ; ; ; ; ; ; ; ; ; ; ; ; ; ; ; ; ; ; ; ; ; ; ; ; ; ; ; ; ; ; ; ; ; ; ; ; ; ; ; ; ; ; ; ; ; ; ; ; ; ; ; ; ; ; ; ; : ",
"> , < < < < < < < < < < < < < < < < < < < < < < < < < < < < < < < < < < < < < < < < < < < < < < < < < < < < < < < < < < < < 1 2 ",
"3 4 4 4 4 4 4 4 4 4 4 4 4 4 4 4 4 4 4 4 4 4 4 4 4 4 4 4 4 4 4 4 4 4 4 4 4 4 4 4 4 4 4 4 4 4 4 4 4 4 4 4 4 4 4 4 4 4 4 4 4 4 5 6 ",
"7 8 9 9 9 9 9 9 9 9 9 9 9 9 9 9 9 9 9 9 9 9 9 9 9 9 9 9 9 9 9 9 9 9 9 9 9 9 9 9 9 9 9 9 9 9 9 9 9 9 9 9 9 9 9 9 9 9 9 9 9 9 9 0 ",
"q w w w w w w w w w w w w w w w w w w w w w w w w w w w w w w w w w w w w w w w w w w w w w w w w w w w w w w w w w w w w w w e ",
"r t t t t t t t t t t t t t t t t t t t t t t t t t t t t t t t t t t t t t t t t t t t t t t t t t t t t t t t t t t t t t y u ",
"i p a a a a a a a a a a a a a a a a a a a a a a a a a a a a a a a a a a a a a a a a a a a a a a a a a a a a a a a a a a a a s d ",
"f g h h h h h h h h h h h h h h h h h h h h h h h h h h h h h h h h h h h h h h h h h h h h h h h h h h h h h h h h h h h h h j ",
"k l l l l l l l l l l l l l l l l l l l l l l l l l l l l l l l l l l l l l l l l l l l l l l l l l l l l l l l l l l l l l l z ",
"x c c c c c c c c c c c c c c c c c c c c c c c c c c c c c c c c c c c c c c c c c c c c c c c c c c c c c c c c c c c c c v b ",
"n m m m m m m m m m m m m m m m m m m m m m m m m m m m m m m m m m m m m m m m m m m m m m m m m m m m m m m m m m m m m m M N ",
"B V C C C C C C C C C C C C C C C C C C C C C C C C C C C C C C C C C C C C C C C C C C C C C C C C C C C C C C C C C C C C C Z ",
"A S D D D D D D D D D D D D D D D D D D D D D D D D D D D D D D D D D D D D D D D D D D D D D D D D D D D D D D D D D D D D F G ",
"H J J J J J J J J J J J J J J J J J J J J J J J J J J J J J J J J J J J J J J J J J J J J J J J J J J J J J J J J J J J J J K L ",
"P I I I I I I I I I I I I I I I I I I I I I I I I I I I I I I I I I I I I I I I I I I I I I I I I I I I I I I I I I I I I I U Y ",
"T R E E E E E E E E E E E E E E E E E E E E E E E E E E E E E E E E E E E E E E E E E E E E E E E E E E E E E E E E E E E E E W ",
"Q ! ~ ~ ~ ~ ~ ~ ~ ~ ~ ~ ~ ~ ~ ~ ~ ~ ~ ~ ~ ~ ~ ~ ~ ~ ~ ~ ~ ~ ~ ~ ~ ~ ~ ~ ~ ~ ~ ~ ~ ~ ~ ~ ~ ~ ~ ~ ~ ~ ~ ~ ~ ~ ~ ~ ~ ~ ~ ~ ~ ~ ^ / ",
"( ) ) ) ) ) ) ) ) ) ) ) ) ) ) ) ) ) ) ) ) ) ) ) ) ) ) ) ) ) ) ) ) ) ) ) ) ) ) ) ) ) ) ) ) ) ) ) ) ) ) ) ) ) ) ) ) ) ) ) ) ) ) _ ",
"` ' ' ' ' ' ' ' ' ' ' ' ' ' ' ' ' ' ' ' ' ' ' ' ' ' ' ' ' ' ' ' ' ' ' ' ' ' ' ' ' ' ' ' ' ' ' ' ' ' ' ' ' ' ' ' ' ' ' ' ' ' ' ] ",
"[ { } } } } } } } } } } } } } } } } } } } } } } } } } } } } } } } } } } } } } } } } } } } } } } } } } } } } } } } } } } } } |  .",
"..X.o.o.o.o.o.o.o.o.o.o.o.o.o.o.o.o.o.o.o.o.o.o.o.o.o.o.o.o.o.o.o.o.o.o.o.o.o.o.o.o.o.o.o.o.o.o.o.o.o.o.o.o.o.o.o.o.o.o.o.o.o.O.",
"+.@.@.@.@.@.@.@.@.@.@.@.@.@.@.@.@.@.@.@.@.@.@.@.@.@.@.@.@.@.@.@.@.@.@.@.@.@.@.@.@.@.@.@.@.@.@.@.@.@.@.@.@.@.@.@.@.@.@.@.@.@.@.#.",
"$.%.%.%.%.%.%.%.%.%.%.%.%.%.%.%.%.%.%.%.%.%.%.%.%.%.%.%.%.%.%.%.%.%.%.%.%.%.%.%.%.%.%.%.%.%.%.%.%.%.%.%.%.%.%.%.%.%.%.%.%.%.%.&.",
"*.=.-.-.-.-.-.-.-.-.-.-.-.-.-.-.-.-.-.-.-.-.-.-.-.-.-.-.-.-.-.-.-.-.-.-.-.-.-.-.-.-.-.-.-.-.-.-.-.-.-.-.-.-.-.-.-.-.-.-.-.-.-.;.",
":.>.,.,.,.,.,.,.,.,.,.,.,.,.,.,.,.,.,.,.,.,.,.,.,.,.,.,.,.,.,.,.,.,.,.,.,.,.,.,.,.,.,.,.,.,.,.,.,.,.,.,.,.,.,.,.,.,.,.,.,.,.,.<.",
"1.2.2.2.2.2.2.2.2.2.2.2.2.2.2.2.2.2.2.2.2.2.2.2.2.2.2.2.2.2.2.2.2.2.2.2.2.2.2.2.2.2.2.2.2.2.2.2.2.2.2.2.2.2.2.2.2.2.2.2.2.2.3.4.",
"5.6.6.6.6.6.6.6.6.6.6.6.6.6.6.6.6.6.6.6.6.6.6.6.6.6.6.6.6.6.6.6.6.6.6.6.6.6.6.6.6.6.6.6.6.6.6.6.6.6.6.6.6.6.6.6.6.6.6.6.6.6.7.8.",
"9.0.0.0.0.0.0.0.0.0.0.0.0.0.0.0.0.0.0.0.0.0.0.0.0.0.0.0.0.0.0.0.0.0.0.0.0.0.0.0.0.0.0.0.0.0.0.0.0.0.0.0.0.0.0.0.0.0.0.0.0.0.q.w.",
"e.r.r.r.r.r.r.r.r.r.r.r.r.r.r.r.r.r.r.r.r.r.r.r.r.r.r.r.r.r.r.r.r.r.r.r.r.r.r.r.r.r.r.r.r.r.r.r.r.r.r.r.r.r.r.r.r.r.r.r.r.r.r.t.",
"y.u.u.u.u.u.u.u.u.u.u.u.u.u.u.u.u.u.u.u.u.u.u.u.u.u.u.u.u.u.u.u.u.u.u.u.u.u.u.u.u.u.u.u.u.u.u.u.u.u.u.u.u.u.u.u.u.u.u.u.u.u.u.i.",
"p.a.s.s.s.s.s.s.s.s.s.s.s.s.s.s.s.s.s.s.s.s.s.s.s.s.s.s.s.s.s.s.s.s.s.s.s.s.s.s.s.s.s.s.s.s.s.s.s.s.s.s.s.s.s.s.s.s.s.s.s.s.s.d.",
"f.g.h.h.h.h.h.h.h.h.h.h.h.h.h.h.h.h.h.h.h.h.h.h.h.h.h.h.h.h.h.h.h.h.h.h.h.h.h.h.h.h.h.h.h.h.h.h.h.h.h.h.h.h.h.h.h.h.h.h.h.h.h.j.",
"k.l.l.l.l.l.l.l.l.l.l.l.l.l.l.l.l.l.l.l.l.l.l.l.l.l.l.l.l.l.l.l.l.l.l.l.l.l.l.l.l.l.l.l.l.l.l.l.l.l.l.l.l.l.l.l.l.l.l.l.l.l.z.x.",
"c.v.v.v.v.v.v.v.v.v.v.v.v.v.v.v.v.v.v.v.v.v.v.v.v.v.v.v.v.v.v.v.v.v.v.v.v.v.v.v.v.v.v.v.v.v.v.v.v.v.v.v.v.v.v.v.v.v.v.v.v.v.b.n.",
"m.M.M.M.M.M.M.M.M.M.M.M.M.M.M.M.M.M.M.M.M.M.M.M.M.M.M.M.M.M.M.M.M.M.M.M.M.M.M.M.M.M.M.M.M.M.M.M.M.M.M.M.M.M.M.M.M.M.M.M.M.M.N.B.",
"V.C.C.C.C.C.C.C.C.C.C.C.C.C.C.C.C.C.C.C.C.C.C.C.C.C.C.C.C.C.C.C.C.C.C.C.C.C.C.C.C.C.C.C.C.C.C.C.C.C.C.C.C.C.C.C.C.C.C.C.C.C.C.Z.",
"A.S.S.S.S.S.S.S.S.S.S.S.S.S.S.S.S.S.S.S.S.S.S.S.S.S.S.S.S.S.S.S.S.S.S.S.S.S.S.S.S.S.S.S.S.S.S.S.S.S.S.S.S.S.S.S.S.S.S.S.S.S.S.D.",
"F.G.H.H.H.H.H.H.H.H.H.H.H.H.H.H.H.H.H.H.H.H.H.H.H.H.H.H.H.H.H.H.H.H.H.H.H.H.H.H.H.H.H.H.H.H.H.H.H.H.H.H.H.H.H.H.H.H.H.H.H.H.J.K.",
"L.P.I.I.I.I.I.I.I.I.I.I.I.I.I.I.I.I.I.I.I.I.I.I.I.I.I.I.I.I.I.I.I.I.I.I.I.I.I.I.I.I.I.I.I.I.I.I.I.I.I.I.I.I.I.I.I.I.I.I.I.I.U.Y.",
"T.R.R.R.R.R.R.R.R.R.R.R.R.R.R.R.R.R.R.R.R.R.R.R.R.R.R.R.R.R.R.R.R.R.R.R.R.R.R.R.R.R.R.R.R.R.R.R.R.R.R.R.R.R.R.R.R.R.R.R.R.R.R.E.",
"W.Q.Q.Q.Q.Q.Q.Q.Q.Q.Q.Q.Q.Q.Q.Q.Q.Q.Q.Q.Q.Q.Q.Q.Q.Q.Q.Q.Q.Q.Q.Q.Q.Q.Q.Q.Q.Q.Q.Q.Q.Q.Q.Q.Q.Q.Q.Q.Q.Q.Q.Q.Q.Q.Q.Q.Q.Q.Q.Q.Q.Q.Q.!.",
"~.^././././././././././././././././././././././././././././././././././././././././././././././././././././././././././././.(.).",
"_.`.`.`.`.`.`.`.`.`.`.`.`.`.`.`.`.`.`.`.`.`.`.`.`.`.`.`.`.`.`.`.`.`.`.`.`.`.`.`.`.`.`.`.`.`.`.`.`.`.`.`.`.`.`.`.`.`.`.`.`.`.'.].",
"[.{.}.}.}.}.}.}.}.}.}.}.}.}.}.}.}.}.}.}.}.}.}.}.}.}.}.}.}.}.}.}.}.}.}.}.}.}.}.}.}.}.}.}.}.}.}.}.}.}.}.}.}.}.}.}.}.}.}.}.}.}.}.|.",
" X.XXXXXXXXXXXXXXXXXXXXXXXXXXXXXXXXXXXXXXXXXXXXXXXXXXXXXXXXXXXXXXXXXXXXXXXXXXXXXXXXXXXXXXXXXXXXXXXXXXXXXXXXXXXXXXXXXXXXXXXXXXXoX",
"OX+X@X@X@X@X@X@X@X@X@X@X@X@X@X@X@X@X@X@X@X@X@X@X@X@X@X@X@X@X@X@X@X@X@X@X@X@X@X@X@X@X@X@X@X@X@X@X@X@X@X@X@X@X@X@X@X@X@X@X@X@X#X$X",
"%X&X&X&X&X&X&X&X&X&X&X&X&X&X&X&X&X&X&X&X&X&X&X&X&X&X&X&X&X&X&X&X&X&X&X&X&X&X&X&X&X&X&X&X&X&X&X&X&X&X&X&X&X&X&X&X&X&X&X&X&X&X*X=X",
"-X;X:X:X:X:X:X:X:X:X:X:X:X:X:X:X:X:X:X:X:X:X:X:X:X:X:X:X:X:X:X:X:X:X:X:X:X:X:X:X:X:X:X:X:X:X:X:X:X:X:X:X:X:X:X:X:X:X:X:X:X:X:X>X",
",X<X1X1X1X1X1X1X1X1X1X1X1X1X1X1X1X1X1X1X1X1X1X1X1X1X1X1X1X1X1X1X1X1X1X1X1X1X1X1X1X1X1X1X1X1X1X1X1X1X1X1X1X1X1X1X1X1X1X1X1X1X1X2X",
"3X4X4X4X4X4X4X4X4X4X4X4X4X4X4X4X4X4X4X4X4X4X4X4X4X4X4X4X4X4X4X4X4X4X4X4X4X4X4X4X4X4X4X4X4X4X4X4X4X4X4X4X4X4X4X4X4X4X4X4X4X4X4X5X",
"6X7X7X7X7X7X7X7X7X7X7X7X7X7X7X7X7X7X7X7X7X7X7X7X7X7X7X7X7X7X7X7X7X7X7X7X7X7X7X7X7X7X7X7X7X7X7X7X7X7X7X7X7X7X7X7X7X7X7X7X7X7X8X9X",
"0XqXwXwXwXwXwXwXwXwXwXwXwXwXwXwXwXwXwXwXwXwXwXwXwXwXwXwXwXwXwXwXwXwXwXwXwXwXwXwXwXwXwXwXwXwXwXwXwXwXwXwXwXwXwXwXwXwXwXwXwXwXwXeX",
"rXtXyXyXyXyXyXyXyXyXyXyXyXyXyXyXyXyXyXyXyXyXyXyXyXyXyXyXyXyXyXyXyXyXyXyXyXyXyXyXyXyXyXyXyXyXyXyXyXyXyXyXyXyXyXyXyXyXyXyXyXyXyXuX",
"iXpXpXpXpXpXpXpXpXpXpXpXpXpXpXpXpXpXpXpXpXpXpXpXpXpXpXpXpXpXpXpXpXpXpXpXpXpXpXpXpXpXpXpXpXpXpXpXpXpXpXpXpXpXpXpXpXpXpXpXpXpXpXaX",
"sXdXdXdXdXdXdXdXdXdXdXdXdXdXdXdXdXdXdXdXdXdXdXdXdXdXdXdXdXdXdXdXdXdXdXdXdXdXdXdXdXdXdXdXdXdXdXdXdXdXdXdXdXdXdXdXdXdXdXdXdXdXfXgX",
"hXjXkXkXkXkXkXkXkXkXkXkXkXkXkXkXkXkXkXkXkXkXkXkXkXkXkXkXkXkXkXkXkXkXkXkXkXkXkXkXkXkXkXkXkXkXkXkXkXkXkXkXkXkXkXkXkXkXkXkXkXkXkXlX",
"zXxXcXcXcXcXcXcXcXcXcXcXcXcXcXcXcXcXcXcXcXcXcXcXcXcXcXcXcXcXcXcXcXcXcXcXcXcXcXcXcXcXcXcXcXcXcXcXcXcXcXcXcXcXcXcXcXcXcXcXcXcXvXbX",
"nXmXmXmXmXmXmXmXmXmXmXmXmXmXmXmXmXmXmXmXmXmXmXmXmXmXmXmXmXmXmXmXmXmXmXmXmXmXmXmXmXmXmXmXmXmXmXmXmXmXmXmXmXmXmXmXmXmXmXmXmXmXMXNX",
"BXVXVXVXVXVXVXVXVXVXVXVXVXVXVXVXVXVXVXVXVXVXVXVXVXVXVXVXVXVXVXVXVXVXVXVXVXVXVXVXVXVXVXVXVXVXVXVXVXVXVXVXVXVXVXVXVXVXVXVXVXVXCXZX",
"AXSXDXDXDXDXDXDXDXDXDXDXDXDXDXDXDXDXDXDXDXDXDXDXDXDXDXDXDXDXDXDXDXDXDXDXDXDXDXDXDXDXDXDXDXDXDXDXDXDXDXDXDXDXDXDXDXDXDXDXDXDXDXFX",
"GXHXHXHXHXHXHXHXHXHXHXHXHXHXHXHXHXHXHXHXHXHXHXHXHXHXHXHXHXHXHXHXHXHXHXHXHXHXHXHXHXHXHXHXHXHXHXHXHXHXHXHXHXHXHXHXHXHXHXHXHXHXJXKX"
};
