/* XPM */
static char *result[] = {
/* columns rows colors chars-per-pixel */
"64 64 118 2 ",
"   c #030301",
".  c #151204",
"X  c #1B1705",
"o  c #4A3E0D",
"O  c #375D3E",
"+  c #385E3E",
"@  c #3D613D",
"#  c #4C410D",
"$  c #55480F",
"%  c #776515",
"&  c #43633C",
"*  c #48673A",
"=  c #4C693A",
"-  c #516B39",
";  c #5C7036",
":  c #657535",
">  c #3C6443",
",  c #3E6946",
"<  c #426B43",
"1  c #416D49",
"2  c #45734E",
"3  c #497A51",
"4  c #847017",
"5  c #E87B23",
"6  c #7F812F",
"7  c #579D4F",
"8  c #4E8256",
"9  c #50875B",
"0  c #528A5D",
"q  c #569756",
"w  c #5A9755",
"e  c #579A52",
"r  c #5B9A52",
"t  c #56925C",
"y  c #5C9559",
"u  c #629E4E",
"i  c #6A9C4D",
"p  c #759246",
"a  c #759947",
"s  c #7D9A44",
"d  c #74974B",
"f  c #749D4E",
"g  c #619755",
"h  c #639B52",
"j  c #689856",
"k  c #73A24C",
"l  c #7BA34A",
"z  c #558D62",
"x  c #9F871C",
"c  c #A2891D",
"v  c #A88F1E",
"b  c #85852D",
"n  c #8D892B",
"m  c #958D29",
"M  c #9A8F29",
"N  c #9F9228",
"B  c #859B3F",
"V  c #9B9C33",
"C  c #909A3A",
"Z  c #A39327",
"A  c #AD9925",
"S  c #A3982B",
"D  c #AE9E29",
"F  c #B59D24",
"G  c #B99F23",
"H  c #A19D31",
"J  c #95A43C",
"K  c #9FAA3B",
"L  c #B5A127",
"P  c #BDA021",
"I  c #B4A52C",
"U  c #B9A72C",
"Y  c #BAAA2D",
"T  c #A3B13E",
"R  c #BDB937",
"E  c #B4B53A",
"W  c #BCB73A",
"Q  c #B9B838",
"!  c #DF8222",
"~  c #D49A23",
"^  c #E58323",
"/  c #E88424",
"(  c #E09424",
")  c #EA9625",
"_  c #C2A522",
"`  c #CCA723",
"'  c #C6A822",
"]  c #CBAC24",
"[  c #DDAC26",
"{  c #D3B325",
"}  c #D8B726",
"|  c #DDBB27",
" . c #D6B92A",
".. c #DFBD28",
"X. c #C3BB35",
"o. c #CCBD34",
"O. c #C2B939",
"+. c #D1BF32",
"@. c #EAA126",
"#. c #E1BF28",
"$. c #DDC32F",
"%. c #D6C031",
"&. c #D8C130",
"*. c #E4C32A",
"=. c #EAC52A",
"-. c #ECC82A",
";. c #F1CC2B",
":. c #809D42",
">. c #8C9F40",
",. c #829D4A",
"<. c #84A647",
"1. c #85A846",
"2. c #8CAA44",
"3. c #80A44A",
"4. c #8BA549",
"5. c #92AB43",
"6. c #9BAD42",
"7. c #A8B040",
/* pixels */
"7 7 7 7 7 7 7 7 7 7 7 7 7 7 7 7 7 7 7 7 7 7 7 7 7 7 7 7 7 7 7 7 7 7 7 7 7 7 7 7 7 7 7 7 7 7 7 7 7 7 7 7 7 7 7 7 7 7 7 7 7 7 7 7 ",
"7 7 7 7 7 7 7 7 7 7 7 7 7 7 7 7 7 e 7 7 7 7 7 7 7 7 7 7 7 7 7 7 7 7 7 7 7 7 7 7 7 7 7 7 7 7 7 7 7 7 7 7 7 7 7 7 7 7 7 7 7 7 7 7 ",
"7 7 7 7 7 7 7 7 7 7 7 7 7 7 7 7 7 7 7 7 7 7 7 7 7 7 7 7 7 7 7 7 7 7 7 7 7 7 7 7 7 e 7 7 7 7 7 7 7 7 7 7 7 7 7 7 7 7 7 7 7 7 7 7 ",
"7 7 7 7 7 7 7 7 7 7 7 7 7 7 7 7 7 7 7 7 7 7 7 7 7 7 7 7 7 7 e 7 7 7 7 7 7 7 7 7 7 7 7 7 7 7 7 7 7 7 7 7 7 r 7 7 7 7 7 7 7 7 7 7 ",
"e 7 7 e 7 7 7 e 7 7 7 7 7 7 7 e 7 e 7 7 e 7 7 e 7 7 7 7 e 7 7 7 e 7 7 e 7 7 r 7 7 e 7 7 e 7 7 e 7 7 7 7 e 7 7 e e 7 7 7 7 7 7 7 ",
"7 e e 7 7 e 7 e 7 7 e 7 7 e 7 7 7 e 7 e 7 e 7 7 e 7 e 7 e 7 e 7 7 7 7 7 7 e 7 7 7 e 7 e 7 e 7 7 e 7 e 7 e 7 e 7 7 7 7 7 7 7 7 7 ",
"7 7 7 7 7 7 e 7 e e e 7 7 e e 7 7 7 7 7 7 e e 7 7 7 7 7 7 7 7 7 e 7 7 e 7 7 e 7 7 7 7 7 7 e e 7 7 7 7 7 7 7 7 7 e 7 7 e e 7 e e ",
"e e e e e e 7 e 7 e e 7 e 7 e e e e e e 7 e 7 e e e e e e e e e 7 e 7 e e e e e e e e e 7 e 7 r e e e e e e e e e e e e 7 e e 7 ",
"e e e 7 e e e 7 e 7 e e 7 e e 7 e 7 e e e 7 7 e e e e 7 e 7 7 e e e 7 e e 7 e e e e 7 e e 7 e e e e e 7 e e e e 7 e 7 e e 7 e e ",
"7 7 e e 7 7 e e 7 e 7 e e 7 7 e e 7 e 7 e e e e 7 7 e e e e e 7 u 7 e 7 e e e 7 7 e e e e 7 e 7 7 7 e e 7 7 e e r 7 e 7 7 e e 7 ",
"e e 7 e e e e e e e e e e e e e 7 e e e e 7 e 7 e e 7 e 7 e 7 u Q u e e e e e e e 7 7 e e e e e e e 7 e e e e e e e e e e e e e ",
"e e e e e e e e r e e e e e e e e e e e e e e e e e e u r e 7 l X.u r u e e e e e e e e e e e e e e e e e e e e e e e e e e e e ",
"e e e e e e e e e e e e e e e e e e e e e e e e e e e 2.E k e 1.Q u 2.E 7 e e e e e e e e e e e e e e e e e e e e e e e e e e e ",
"e e e e e e e q e e q e e e e e e e q e e q e e e e e u T %.k 1.Q 1.o.1.e e e q e e e e e q e e e e e e q e e e e q e e e e e e ",
"e e e e e q e e e q e e e e r e e e e q e e q e e e e e e 6.X.6.O.%.2.e r e e e e e e q e e e e e e e e e e q e e e e e e e r e ",
"q e e q e q e q e e e q e e e e q e e e e q e e q e e e e e T %.$.R e e e e e e e e e e e q e q q e e q q e e e e q q e e e e e ",
"e q e q e q e e e q e q e q e q e q e q e e e q e q e e i 3.7.$.-.R <.i w q e e q e q e e e q e e q e q e e q e e q e e e w e e ",
"q e q e q e q w e q q e e e q e e e e q q w q e e h 3.E %.-.-.-.-.-.*.&.E <.h e e e w e q q e e q e e e e q q e e q q e q q q e ",
"e e e e e e e e q e e e q q e e w e e e q e w r l O.*.-.-.-.-.-.-.-.-.-.-.*.R l w e e q w e e q e e w q e q e q q e w q q e e q ",
"q q q q q q q q e q q q q e q q q q q q e q r 5.&.-.-.-.-.-.-.-.-.-.-.-.-.-.-.$.5.e q e q q q q q q q e q e q q e q q e q q e q ",
"e q e q q e q q e q e q q e w q q q e q q h T =.-.-.-.-.-.-.-.-.-.-.-.-.-.-.-.-.#.K h q e q e e q q e q e q e e q e q e e e q q ",
"q q q e q q q q q q q q q q q q q q q q w T =.-.-.-.-.-.-.-.-.-.-.-.-.-.-.-.-.-.-.#.J q q q q q q q q q q q q q q q q q q q q q ",
"q q q q q q q q q q q q q q q q q q q q 2.*.-.-.-.-.-.-.-.-.-.-.-.-.-.-.-.-.-.-.=.;. .:.q q q q q q q q q q q q q q q q q q q q ",
"q q q q q q e q q q q q e q q q q q q k %.-.-.-.-.-.-.-.-.-.-.-.-.-.-.-.-.-.-.-.=.=.=.Y i q q q q e q q e q q q q q q q q q e q ",
"q q q q q q q q q q q q q q q q q q r E -.-.-.-.-.-.-.-.-.-.-.-.-.-.-.-.-.-.-.-.-.-.-.| V w q q q q q q q q q q q e q q q q q q ",
"q q q q q t q q q q q q q q q q q q l *.-.-.-.-.-.-.-.-.-.-.-.-.-.-.-.-.-.-.-.-.-.-.-.*._ a q q q q q q q q q q q q q q q q q q ",
"q q q q q q q q t q q q q q q q q y E -.-.-.-.-.-.-.-.-.-.-.-.-.-.-.-.-.-.-.-.-.-.-.-.-.{ V q q q q q q q q q t q q q q q q q t ",
"t q q q q q q q q q q q q q t q q k &.-.-.-.-.-.-.-.-.-.-.-.-.-.-.-.-.-.-.-.-.-.-.-.-.-.| L i q q t q t q q q q q t q q q q q q ",
"q q t q q q q t q q q t q q q q q 6.-.-.-.-.-.-.-.-.-.-.-.-.-.-.-.-.-.-.-.-.-.-.-.-.-.-.*._ B q q q q q q q q q q t t q t t q q ",
"t q q q q t q q q t q t t q q t y W -.-.-.-.-.-.-.-.-.-.-.-.-.-.-.-.-.-.-.-.-.-.-.-.-.-.=.` V q q t q t q t t q q q q q q q q t ",
"q q q q q q q t q q q q q q t q h &.-.-.-.-.-.-.-.-.-.-.;.-.-.-.-.-.-.-.-.-.-.-.-.-.-.-.=.] D h q q q t q q q q t q t q t q q t ",
"t t t t t t t q t t t q t q q t l $.-.-.-.-.-.-.-.-.-.P c  .-.-.-.-...c P *.-.-.-.-.-.-.-.{ F d t t q t t t t t q t q t q q t q ",
"t q t q t q q t q q q t q t t q 4.=.-.-.-.-.-.-.-.-.v X   $ #.-.-.*.$   X Z ;.=.-.-.=.-.-.} P s q t q t q t q q t q q q t t q t ",
"t t q t q t t q t t t q t q t t 6.-.-.-.-.-.-.-.-.-.%     X { -.-.{ X     % ;.-.-.-.-.-.-.{ P C t q q t t t t t t t t t t q q t ",
"q t q t t t t t t t t t t q t g Q -.-.-.-.-.-.-.-.;.M .   # ..;.-...#   . c ;.=.-.-.-.-.=.{ ' E q t t t t q t q q q t t t q t t ",
"t t t t q t q t t q t q t t t f $.-.-.-.-.-.-.-.=.-.#.c 4 ' -.;.-.-._ 4 x #.;.-.-.-.-.-.=.{ { $.f t t q t q t t t t t q t t t q ",
"t t t t t t q t t t t t t t t 6.-.-.-.-.-.-.-.=.-.-.-.=.#.-.-.;.-.-.-.#.*.-.-.-.-.-.-.-.=.{ *.-.6.t t t t t t t t t t t t t q t ",
"t q t t t t t t t t t q t t g W -.-.-.-.-.-.-.-.-.-.;.=.-.@.) ) @.) @.;.-.-.-.-.-.-.-.-.=.} =.-.W g t t t t t t t t q t t t t t ",
"t t t t t t t t t t t t t t g +.-.-.-.-.-.-.-.-.-.-.=.-.#./ 5 5 5 5 ^ #.-.-.-.-.-.-.-.=.#.#.-.-.o.j z t t t q t t t t t t t t t ",
"t t t t t t t t t t t t t z t E =.=.-.-.-.-.-.-.-.-.-.-.*./ 5 5 5 5 ^ =.-.-.-.-.-.-.-.=.} { *.=.7.g t t t t t t t t t t t t t t ",
"t t t t t t z t t t t t t t t j 4.+.-.-.-.-.-.-.-.-.-.-.=.( 5 5 5 5 ( -.-.-.-.-.-.-.-.=.' P I 4.j t t z t t z t t t t z t t t t ",
"t t t t t t t t t t t t t t t t z 7.-.-.-.-.-.-.-.-.-.-.-.[ ^ 5 5 5 [ -.-.-.-.=.-.-.-.| _ P C t t t t t t t y t t t t t t t t t ",
"t t t t t t t t t t t t t t t t t 3.$.-.-.-.-.-.-.-.-.-.-.#.~ 5 5 ~ #.-.-.-.-.-.-.-.-.] P G i t t t t t t t t t t t t t t t t t ",
"t t z t t z t t z t t t z t t z t g O.-.-.-.-.-.-.-.-.=.-.-...` ' #.-.-.-.-.-.-.-.-.} P G H q t z t t t t z t t t t t t t z t z ",
"t t t t t t t z t t z z t t t t t t ,.#.-.-.-.-.-.-.-.-.-.-.-.=.=.-.-.-.-.-.-.-.-.| _ P G 6 t t t t t t t z t t z t t t t t t z ",
"z t z t z t z t t z t t t z 0 z z 8 1 V -.-.-.-.-.-.-.-.-.-.-.-.-.-.-.-.-.-.-.-.*.' P P 6 , 8 t t z t z t t t z t t z z z t z y ",
"t z t z z t t t z y t z z t t t 9 , O = U -.-.-.-.-.-.-.-.-.-.-.-.-.-.-.-.=.-.| _ P P M * @ , 9 z t z t t z t t t t t t t t t t ",
"t t z t t z y z t z t t t z t t 3 + O > - U =.-.-.-.-.-.-.-.-.=.-.-.-.-.-.=.} _ P P N - @ @ O 3 t t z t t z z t z z t z z t z z ",
"z z t z t z t z t z t z t z t z 2 > O O O 1 Z @.=.-.;.-.;.-.-.;.-.-.-.#.} ` ~ _ ! M 1 O O O O 2 z z t z t z t z t t z t z t z t ",
"z t z t z t z t z t z t z t y t z > O O O O = 6 U ~ +.[ #.$.#.#.#.} ] _ G G F _ 6 > O O O O > z y z z t z t z t t z t z t z y z ",
"y z t z t z z t t t z z t t z z z 3 > O O O O > : 4 D ~ _ _ _ _ _ _ _ G G A n < > > O O O , z z t z z t t z z t z t t t z y z z ",
"z t z z z t z z z z z t z z z z z z z 2 > O O O , > < ; 4 m Z Z Z N C 4 : = O > O O O O 2 z z z z t z z z z t z z z z z z t z z ",
"z z z t z z z t z t z t z t z z z z z z z 2 2 > > O O O O > @ @ & @ @ O O O O > > 2 3 3 z z z z z t t z z t t z t z z t z z t z ",
"z z z z t z z z z z z z z z z z z z z z z z z z 3 3 2 2 1 > > > > > > 1 2 3 3 3 3 z z z z z z z z z z z z z z z z z z z z z z z ",
"t z z t z z z t z z z z z z z t z z z z z z z z z z z z z 3 z z z 9 z z z z z z z z z z z z z z z z z z z z z z z z z z z z z t ",
"z z z z z z z z z z z z t z z z z z z z z z z z z z z z z z z z z 9 z z z z z z z z z z z z z z z z t z z z t z z z z t z z z z ",
"z z z z z z z z t z z z z z z z z z z z z z z z z z z z z z z z z z z z 0 z z z z z z z z z z z z z z z z z z z t z z z z z z z ",
"z z z z z z z z z z z z z z z z z z z z z z z z z z z z z z z z z z z z z z z z z z z z z z z z z z z z z z z z z z z z z z z z ",
"z z z z z z z z z z z z z z z z z z z z z z z z z z z z z z z z z z z z z z z z z z z z z z z z z z z z z z z z z z z z z z z z ",
"z z z z z z z z z z z z z z z z z z z z z z z z z z z z z z z z z z z z z z z z z z z z z z z z z z z z z z z z z z z z z z z z ",
"z z z z z z z z z z z z z z z z z z z z z z z z z z z z z z z z z z z z z z z z z z z z z z z z z z z z z z z z z z z z z z z z ",
"z z z z z z z z z z z z z z z z z z z z z z z z z z z z z z z z z z z z z z z z z z z z z z z z z z z z z z z z z z z z z z z z ",
"z z z z z z z z z z z z z z z z z z z z z z z z z z z z z z z z z z z z z z z z z z z z z z z z z z z z z z z z z z z z z z z z ",
"z z z z z z z z z z z z z z z z z z z z z z z z z z z z z z z z z z z z z 3 z z z z z z z z z z z z z z z z z z z z z z z z z z "
};
