/* XPM */
static char *result[] = {
/* columns rows colors chars-per-pixel */
"64 64 137 2 ",
"   c #000000",
".  c #221C06",
"X  c #2D2608",
"o  c #312A09",
"O  c #375D3E",
"+  c #385E3E",
"@  c #3B613E",
"#  c #4D410D",
"$  c #5B4D10",
"%  c #665612",
"&  c #6F5E13",
"*  c #736214",
"=  c #42633C",
"-  c #4E6B3B",
";  c #586E37",
":  c #546B38",
">  c #5E7136",
",  c #647435",
"<  c #697733",
"1  c #6D7833",
"2  c #777D30",
"3  c #385F40",
"4  c #3B6343",
"5  c #3E6946",
"6  c #3F6A48",
"7  c #416D47",
"8  c #416D49",
"9  c #44724B",
"0  c #487A4F",
"q  c #477651",
"w  c #4A7D53",
"e  c #947D1A",
"r  c #D57F2B",
"t  c #E57C24",
"y  c #E87C23",
"u  c #7C802F",
"i  c #708038",
"p  c #579D4F",
"a  c #5E9C4F",
"s  c #4D8257",
"d  c #4E8359",
"f  c #518759",
"g  c #538B5E",
"h  c #569756",
"j  c #5C9656",
"k  c #579A52",
"l  c #5B9B52",
"z  c #56925C",
"x  c #5A925A",
"c  c #7E8D4C",
"v  c #6C964F",
"b  c #649C4F",
"n  c #6B9D4E",
"m  c #7C9A44",
"M  c #74974B",
"N  c #729F4F",
"B  c #7E9C4C",
"V  c #688F55",
"C  c #639356",
"Z  c #699054",
"A  c #639B52",
"S  c #6F9D52",
"D  c #759F50",
"F  c #6BA04D",
"G  c #75A34B",
"H  c #7AA44A",
"J  c #558D62",
"K  c #AF941F",
"L  c #88852D",
"P  c #8F892C",
"I  c #9B8F29",
"U  c #9C9029",
"Y  c #848631",
"T  c #8F9335",
"R  c #849C3F",
"E  c #8D9C3B",
"W  c #959330",
"Q  c #9B9D34",
"!  c #929B3A",
"~  c #A49326",
"^  c #AB9725",
"/  c #AE9A26",
"(  c #A09128",
")  c #A69E2F",
"_  c #AB9E2C",
"`  c #B49D25",
"'  c #BA9F22",
"]  c #A1873F",
"[  c #A29D30",
"{  c #9FA536",
"}  c #BDA021",
"|  c #B4A329",
" . c #B5AF33",
".. c #A3B13E",
"X. c #ACB43C",
"o. c #BEB634",
"O. c #B4B63A",
"+. c #BEB838",
"@. c #C9812F",
"#. c #D29F2F",
"$. c #E88323",
"%. c #E99725",
"&. c #EA9B26",
"*. c #C1A422",
"=. c #C7A923",
"-. c #CBAC24",
";. c #CFB126",
":. c #D4B425",
">. c #D8B726",
",. c #DDBB27",
"<. c #D4B628",
"1. c #DFBD28",
"2. c #C8B732",
"3. c #C3BB36",
"4. c #CBBE33",
"5. c #D0BF32",
"6. c #EAA026",
"7. c #EAAA27",
"8. c #E0BE27",
"9. c #EBB428",
"0. c #E1BE29",
"q. c #EBBF29",
"w. c #DDC22E",
"e. c #D6C130",
"r. c #E4C32A",
"t. c #EAC62A",
"y. c #ECC82A",
"u. c #828B4B",
"i. c #9C8740",
"p. c #998842",
"a. c #869941",
"s. c #84A746",
"d. c #87A846",
"f. c #8EAA45",
"g. c #82A549",
"h. c #93AC42",
"j. c #9AAD43",
/* pixels */
"p p p p p p p p p p p p p p p p p p p p p p p p p p p p p p p p p p p p p p p p p p p p p p p p p p p p p p p p p p p p p p p p ",
"p p p p p p p p p p p p p p p p p p p p p p p p p p p p p p p p p p p p p p p p p p p p p p p p p p p p p p p p p p p p p p p p ",
"p p p p p p p p p p p p p p p p p p p p p p p p p p p p k p p p p p p p p p p p p p p p p p p p p p p p p p k p p p p p p p p p ",
"p p p p p p p p p p p p p p p p p k p p p p p p p p p p p p p p p p p p p p p p p k p p p p p p p p p p p p p p p p p p p p p p ",
"k p p k p p p k p p p p p p p p p p p p p p p p p p k p p k p p p p p p p k p k k p p k p p p p p p p h p p p p p p p p p p p p ",
"p k k p p k p k p p k p p k p k k p p k p k p p p p p p k p k p p p k p p p p p p p p p k k p p p p p p p p k p l k p p p p p k ",
"p p p p p p k p k k k p p k k p k p k k k k p k k p l k p p p p k k p k k p k p k p p p p k k k p p p p p k p p p p p k p k k p ",
"k k k k k k p k k p k p k p k k p k p p k p k p k p k p k k k k p k k p k p k k p k l k k p p k h p k k h k k k k k k p k k p k ",
"p k k k k k k p k p p k p k k p p k k p k p k k p k k p p k p p k p k p h p p h p k p k p k k p p k k p k p k k k p p k k k p k ",
"k k p p p p k k p k k k k p p k k k p k k k p k k k p p k k p p a p k l p p k p p k p k k p p k k p k k p k p p k k k k p k p k ",
"k p p k k k k k k k k k k k k k k k k k k k k p k p p h k p p G X.a k k k k h p h p k k k k k k k k k k k k k k p l k p k p k k ",
"k k k k k k k k l k k k k k k k k k k k k k k k p h p A a h p f.O.A p A l k p k p k k k k k k k k k k k k k k k k k k k k k k k ",
"k k k k k k k k k k k k k k k k k k k k k k k k h p p j.X.F k h.O.p f...p l p k h k k k k k k k k k k k k k k k p h p h k p k k ",
"k k h k k k k h k k k h k k k k k k k h k k k k k h k A ..e.F f.O.h.e.G k k h k h p k k h k h k k k k k h k k k h p h p k h k h ",
"k k k k k h k k h k k k k k l k h k k h h k k h k k k h A X.O...+.e.H k k k k k k k l k k k h k k k k k k k l k p h l h p h k k ",
"k h k k k k h k h k k h k k k k k k k k k k k l h k h p k a O.e.w.O.p k k h k h h k k h k k k k k k h k h k k h k k h p h k k h ",
"h k k k h k h j k k k k k k k k k k k h k k h k h k h l A G ..w.y.O.d.G j k k k k h k k k k k k h k h l h k k h k h k h k h k h ",
"k h h k k h k k h k h h h h h h h h k h h k j h h h G ..e.w.y.y.y.y.t.w.3.h.S k j k k k j h k k k h k h k h h l h k l h h k h l ",
"h k h h h k h k k h h k k k h k k j k k h h k k A ..w.t.y.y.y.y.y.y.y.y.y.t.4.h.l k h h h h h k k h h k k k k k k k k k k k k k ",
"h k h k h k h h h h k h h h k h h h k h k k h H e.t.y.y.y.y.y.y.y.y.y.y.y.y.t.t.X.v p h h h k h h k h h h h h h h h h h h h h h ",
"h k h k k h h k h k h k h k h k h k h h h k d.e.y.y.y.y.y.y.y.y.y.y.y.y.y.y.y.y.y.o.n h h h h k h k h k h h k h h k h k h k h h ",
"h h h h h h h h h k h h h h h h h h h h h g.w.y.y.y.y.y.y.y.y.y.y.y.y.y.y.y.y.y.y.t. .b h h h h h h h h h h h h h h h h h h h h ",
"h h h h h h h h h h h h h h h h h h h k D 5.y.y.y.y.y.y.y.y.y.y.y.y.y.y.y.y.y.y.y.y.r.{ k h h h h h h k h k h h h h h h h h h h ",
"h h h k h h h h h h h k h h h h k h h j O.y.y.y.y.y.y.y.y.y.y.y.y.y.y.y.y.y.y.y.y.y.y.:.R h h h h h h h h h h h h h h h h h h k ",
"k h h h h h h h h h h h h h h h h h h f.t.y.y.y.y.y.y.y.y.y.y.y.y.y.y.y.y.y.y.y.y.y.y.r.| v h h h h h h h h h h k h h h h h h h ",
"h h h h h h h h h h h h h h h h h h A 4.y.y.y.y.y.y.y.y.y.y.y.y.y.y.y.y.y.y.y.y.y.y.y.y.:.! h h h h h h h h h h h h h h h h h h ",
"h h h h h h h h h h h z h z h h h z f.t.y.y.y.y.y.y.y.y.y.y.y.y.y.y.y.y.y.y.y.y.y.y.y.y.,.| b h h h h h h h h h h h h h h h h h ",
"h z h h h h z h h h h h h h h h h j +.y.y.y.y.y.y.y.y.y.y.y.y.y.y.y.y.y.y.y.y.y.y.y.y.y.t.=.R h z h h z h h h h h h h h h h z h ",
"h h h h h z h h z h h h h z h z h N w.y.y.y.y.y.y.y.y.y.y.y.y.y.y.y.y.y.y.y.y.y.y.y.y.y.y.-.[ k h h h z h h z z h h h h h h h z ",
"h z h z h h z h z h z h h h h h z h.t.y.y.y.y.y.y.y.y.y.y.y.y.y.y.y.y.y.y.y.y.y.y.y.y.y.y.:.| v h z h h z h h h z h z h z h h h ",
"z h z h z h z h h h z h z h h z h ..y.y.y.y.y.y.y.y.y.y.y.y.y.y.y.y.y.y.y.y.y.y.y.y.y.y.y.,.} m h h z h h h h h h h h z h z z h ",
"z h z h z h h z z h h z h g x h C e.y.y.<.<.y.y.y.y.y.y.y.y.y.y.y.y.y.y.y.y.y.y.y.y.y.y.y.,.} R z z h z z h z z z z z h z h z z ",
"h z z h z h z h h z z h z h z h A e.y.K X . e y.y.y.y.y.y.y.y.y.y.y.y.y.y.y.y.y.y.y.y.y.y.8.*.Q j h z h z h z z h z z h z h z h ",
"z h z h z h z h z h z z z z h z D r.t.$     o >.y.y.y.y.y.y.y.y.t.y.y.y.y.y.y.y.y.y.y.y.y.8.' ) x h z z h z z h h z h z h z z z ",
"z h h z h z z z z z z h z h h z D w.y.*     # 0.y.y.y.y.y.y.y.y.y.y.y.y.y.y.y.y.y.y.y.y.y.8.*.) j h h z h z z z z z z z z h z h ",
"z z z z z z h z z h z h z z x j B 0.y.-.& % ' y.y.y.y.y.y.y.y.y.y.y.y.y.y.y.y.y.y.y.y.y.y.,.} ) j z z z z z h h z h h z z z z z ",
"z h z z z z z z z z z h z z z u.@.$.6.t.0.,.q.y.y.y.y.y.y.y.y.y.y.y.y.y.y.y.y.y.y.y.y.y.y.>.} ) j x z z z h z z z z h z z z z z ",
"z z z z z z z z z z z z z z c @.t y y &.y.y.y.y.y.y.y.y.y.y.y.y.y.y.y.y.y.y.y.y.y.y.y.y.y.:.' [ j z z z z z z z z z z z z h z z ",
"z z z z z z z z z z z z z V @.y y y y y 9.y.y.y.y.y.y.y.y.y.y.y.y.y.y.y.y.y.y.y.y.y.y.y.t.=.' ! z z z z z z z z z z z z z z z z ",
"z z z z z z z z z z z z z ] t y y y y y 7.y.y.y.y.y.y.y.y.t.t.y.y.y.y.y.r.t.y.y.y.y.y.y.r.*.' a.g x z z z z z z z z z z z z z z ",
"z z z z z J z z J z z z C r t t y y y y 9.y.y.y.y.y.y.y.y.t.t.y.y.y.y.t.,.t.y.y.y.y.y.y.:.} | M z z z x z z z J z z z z z z J z ",
"z z z z z z z z z z z z x p.r t y y y %.y.y.y.y.y.y.y.y.y.t.0.t.y.y.y.w.:.y.y.y.y.y.t.t.=.} _ C z z z J z z z z z z z z z z z z ",
"z z z z z z z z z z z z g x Z u.p.] #.t.y.y.y.y.y.y.y.y.y.y.0.0.y.y.t.-.:.y.y.y.y.y.y.>.} } E z z z z z z z z z z z z z z z z z ",
"z z z z J z z J z z z J z J z z J z j.y.y.y.y.y.y.y.y.y.y.y.t.:.:.,.-.*.0.y.y.y.y.y.r.*.} ` M z z J z z z J z z z z z z z z J z ",
"J z z z z z z z z z z z J z z z z z Z 2.y.y.y.y.y.y.y.y.y.y.y.t.:.=.=.,.t.y.y.y.y.r.=.} } W h g z z z J J z z z z z z z J J z z ",
"z z J z z J z J J z J z z z J z J f 9 2 1.y.y.y.y.y.y.y.y.y.y.y.y.t.t.y.y.y.y.y.t.;.} } ~ - 0 g J z z z z z J z J z J J z z J z ",
"z J z J J z z J J z J z J z z J z 9 O + T t.y.y.y.y.y.y.y.y.y.y.y.y.y.y.y.y.y.r.-.} } K > 3 4 s z z J z x J J z z J z z z z z z ",
"J z z J z x J z x J z z J z z z d 4 O O 7 W w.y.y.y.y.y.y.y.y.y.y.y.y.y.y.y.,.=.} } ` < @ @ O 5 J J z J J z z J z z x J J z J J ",
"z J z J J z J z J J z J z J z J w 6 3 3 3 3 i.#.9.q.y.y.y.y.y.y.y.y.t.t.9.-.*.*.` @.: 3 3 3 3 6 J z J z z J z J J x J J x J z J ",
"J z J z z J z J J z J z J z J z J 6 3 3 3 3 3 , ^ =.<.,.0.0.0.0.8.>.-.=.*.' ' ' i.: 3 3 3 3 3 d x J z J J z J z z J J J z z J z ",
"z J x J J z J z J J z z x J z J J J q 3 O 3 3 O 7 e ( ' *.*.*.*.*.} ' *.' ` ( 1 4 3 3 3 3 3 q J z J J z z J z z J J z z z J z J ",
"J z J J z J J J z J z J J J z J J J J q 4 3 O O 3 + 7 ; 2 P ( ~ ~ ~ I L 1 : = 3 3 3 3 3 q q J J J z J J J J J J J z J J J z J J ",
"J J J z J J J z J z z z J z J J J J J J J q q 6 3 3 3 3 3 @ = = = = = + + + + 3 3 8 q w J J J J J J z J J z z J z J J J J J J J ",
"J J J J J J J z J J J J J J J J J J J J J J J J w q q 8 8 8 4 3 4 4 3 7 8 9 q w w J J J J J J J J z J J J J J J J J z z J z J z ",
"z J J J z J J J J J J J J J J J J J J J J J J J J J J J J f f f f g g g J J J J J J J J J J J J J J J J J z J J J J J J J z J J ",
"J J J z J J J J z J J z J J J J J J J J J J J J J J J J J J J J J J J J J J J J J J J J J J J J J J z J J J J J J J J J J J J J ",
"J J J J J J J J J J J J J J J J J J J J J J J J J J J J J J J J J J J J J g J J J J J J J J J J J J J J J J J J J J J J J z J J ",
"J J J J J J J J J J J J J J J J J J J J J J J J J J J J J J J J J J J J J J J J J J J J J J J J J J J J J J J J J J J J J J J J ",
"J J J J J J J J J J J J J J J J J J J J J J J J J J J J J J J J J J J J J J J J J J J J J J J J J J J J J J J J J J J J J J J J ",
"J J J J J J J J J J J J J J J J J J J J J J J J J J J J J J J J J J J J J J J J J J J J J J J J J J J J J J J J J J J J J J J J ",
"J J J J J J J J J J J J J J J J J J J J J J J J J J J J J J J J J J J J J J J J J J J J J J J J J J J J J J J J J J J J J J J J ",
"J J J J J J J J J J J J J J J J J J J J J J J J J J J J J J J J J J J J J J J J J J J J J J J J J J J J J J J J J J J J J J J J ",
"J J J J J J J J J J J J J J J J J J J J J J J J J J J J J J J J J J w J J J J J J J J J J J J J J J J J J J J J J J J J J J J J ",
"J J J J J J J J J J J J J J J J J J J J J J J J J J J J J J J J J J J J J J J J J J J J J J J J J J J J J J J J J J J J J J J J "
};
