/* XPM */
static char *result[] = {
/* columns rows colors chars-per-pixel */
"64 64 126 2 ",
"   c #020200",
".  c #1E1905",
"X  c #332B09",
"o  c #3A320A",
"O  c #375D3E",
"+  c #385E3E",
"@  c #3C613D",
"#  c #615311",
"$  c #766414",
"%  c #786515",
"&  c #7A6815",
"*  c #42633C",
"=  c #48663B",
"-  c #576E37",
";  c #587138",
":  c #617335",
">  c #6D7932",
",  c #60783A",
"<  c #747C32",
"1  c #395F40",
"2  c #3C6543",
"3  c #3F6A47",
"4  c #3F6A48",
"5  c #426F4B",
"6  c #45754D",
"7  c #47794E",
"8  c #48784F",
"9  c #467650",
"0  c #4B7E55",
"q  c #8A7518",
"w  c #E57D24",
"e  c #E87C23",
"r  c #7B8535",
"t  c #579D4F",
"y  c #4D8157",
"u  c #4F855A",
"i  c #538B5D",
"p  c #569756",
"a  c #5B9656",
"s  c #579A52",
"d  c #5A9A53",
"f  c #56925C",
"g  c #5B9359",
"h  c #758E4F",
"j  c #7F8C4C",
"k  c #629E4F",
"l  c #6C9E4D",
"z  c #739A47",
"x  c #749B48",
"c  c #799849",
"v  c #708F51",
"b  c #629555",
"n  c #689351",
"m  c #639B52",
"M  c #709B53",
"N  c #74A24C",
"B  c #7BA44A",
"V  c #558D62",
"C  c #A78D1D",
"Z  c #8B872C",
"A  c #9E9128",
"S  c #848932",
"D  c #889B3E",
"F  c #9C9730",
"G  c #9B9D34",
"H  c #919E39",
"J  c #BA8D2F",
"K  c #A39327",
"L  c #AD9824",
"P  c #A59628",
"I  c #A59E2E",
"U  c #AD9E2A",
"Y  c #B59C24",
"T  c #B89B20",
"R  c #A0873F",
"E  c #BA8335",
"W  c #BDA022",
"Q  c #AEA932",
"!  c #A4B13E",
"~  c #ABB23E",
"^  c #B9B237",
"/  c #BEB937",
"(  c #B5B739",
")  c #BAB73A",
"_  c #BBB838",
"`  c #CC802E",
"'  c #DC8522",
"]  c #D98C22",
"[  c #C39B21",
"{  c #E18024",
"}  c #E89324",
"|  c #C2A422",
" . c #C7A924",
".. c #CBAC24",
"X. c #C1AA28",
"o. c #D1AA24",
"O. c #C4B42F",
"+. c #D3B225",
"@. c #D8B726",
"#. c #DBBA27",
"$. c #D3B92C",
"%. c #DBBC29",
"&. c #C3BB35",
"*. c #CBBC33",
"=. c #D1BF32",
"-. c #EAA226",
";. c #E6A826",
":. c #EAAC27",
">. c #E1B627",
",. c #E1BF28",
"<. c #DDC22D",
"1. c #D5C130",
"2. c #DAC230",
"3. c #E4C32A",
"4. c #EAC62A",
"5. c #ECC82A",
"6. c #8C8A47",
"7. c #948944",
"8. c #85A746",
"9. c #86A845",
"0. c #8AAA44",
"q. c #80A34B",
"w. c #88A34C",
"e. c #91AB42",
"r. c #9CAE41",
"t. c #90A748",
/* pixels */
"t t t t t t t t t t t t t t t t t t t t t t t t t t t t t t t t t t t t t t t t t t t t t t t t t t t t t t t t t t t t t t t t ",
"t t t t t t t t t t t t t t t t t t t t t t t t t t t t t t t t t t t t t t t t t t t t t t t t t t t t t t t t t t t t t t t t ",
"t t t t t t t t t t t t t t t t t t t t t t t t t t t t t t t t t t t t t t t t t t t t t t t t t t t t t s s t t t t t t t t t ",
"t t t t t t t t t t t t t t t t t s t t t t t t t t t t t t t t t t t t t t t t t t t t t t t t t t t t t t t t t t t t t t t t ",
"s t t s t t t s t t t t t t t t s t t t t t t t t t t t s t t s t d t t t t t t t s t t t t t s t s s t t t t t s t t t t t t t ",
"t s s t t s t s t t s t t s t s t t s t t s t t t s s t t s s t t t t t t s t t s t t s s s t t t t t t s t t t t t s t t t t t ",
"t t t t t t s t s s s t t s s t s t t s d s t s t t t t t t t t s t t s s t s s t t t t t s t s s d t s s t s s s t t s s t s t ",
"s s s s s s t s s t s t s t s s t s s t s t s t s s d s s s s s s s s s t s t s s s s s s t t s s t s t t s t s t s s t s s t s ",
"s t t s t s s s s t s t s s t s t s t t s t s s s t t s s t t t t s t s t s t t s t s s d t s s s t t s t s s s s s s t s s s t ",
"s s s s s s t s t s t s s t s t s s s s s s t t t s s t t t s k t s s t s s s s t s s t t s s t s s s s s s t t t s s t s t s s ",
"t s s t s t s t s s s s s s s s s s s s s s s s s s s d s s k _ k s d s d s s s t s s s t s s s t s s t s t s s s t s s d s t s ",
"s s s s s s s s d s s s s s s s s s s s s s s s s s s d d s k &.B s s k t s s s s s d s s s s s s s s s s s s s s s s s d s s s ",
"s s s s s s s s s s s s s s s s s s s s s s s s s s s k ( 0.k _ 9.s l _ 9.t s s s s s s s s s s d s s s d s s s s s s s s s s s ",
"s s s d s s p s s s s s s s s s p s s s s s p s s s s s B 1.9.( 9.B 1.r.k s p s s s s s p s s p s s s s p p s s s s p s s s s s ",
"p s d p s s s p s p p p s s d s p d s s s s s s s s p s s e.1./ r.1.e.s s s s s s s s s s s p s p s s p s s s p s p p s p s s s ",
"s s s s p s s s s s p s s s s s s s s s s p s p s p s s s d ( 1.1.! s t s p p s p s s p s s s s s s s s s s s s s s s s s s s p ",
"s p p d s p d s s p s s p s p s p s p s p p s s p p s d N 0.1.4.<.r.N m p s s p p s p s p d s p p p s p s s p s p d s p s p s s ",
"p s s p p s s p p s p s s p s s s p d p s d p p p M r.1.<.3.5.5.5.4.3.&.r.l p d d p s d s p s s s s p d p s s p p s d p p d s p ",
"s s s s s p p s s p s p p d p p p d p s s p d k r.1.5.5.5.5.5.5.5.5.5.5.5.<.r.k s p s p p s s p s s s s s p p s s s s s s p p s ",
"p p p p p s p p s p p s s p p s s p p s p s x / 4.5.5.5.5.5.5.5.5.5.5.5.5.5.4.&.l p p s p p p s p p p p p s p p p p p p p s p p ",
"p p s p p s p s p s p p p p s p p s d p p N *.5.5.5.5.5.5.5.5.5.5.5.5.5.5.5.5.5.*.x s p d p s p p p s p s p p s s p s p p s p p ",
"p p p p p p p p p s p p p p p p p p p p N 1.5.5.5.5.5.5.5.5.5.5.5.5.5.5.5.5.5.5.4.O.l p p p p p p p p p p p p p p p p p p p p p ",
"p s s p p p p p p p p p p s s p p p p m &.5.5.5.5.5.5.5.5.5.5.5.5.5.5.5.5.5.5.5.4.4.Q m p p s p p p p p p p p s p p p s p p s p ",
"p p p p p p p p p p p p p p p p p p p ! 5.5.5.5.5.5.5.5.5.5.5.5.5.5.5.5.5.5.5.5.4.4.#.H p p p p s p p p p p p p p p p p p p p p ",
"p p p p p p p p p p p p s p p s p p B <.5.5.5.5.5.5.5.5.5.5.5.5.5.5.5.5.5.5.5.5.5.5.4.X.z p p p p p p p p p p p p p p p p p p p ",
"p p p p p p p p p p p p f s p f p d _ 5.5.5.5.5.5.5.5.5.5.5.5.5.5.5.5.5.5.5.5.5.5.5.5.@.G a p p p p p p p p p p p p p p p p p p ",
"f p p p s p p p p p p p p f p p p B 3.5.5.5.5.5.5.5.5.5.5.5.5.5.5.5.5.5.5.5.5.5.5.5.5.3.W z p f p p p f f p p p p p p p p p p p ",
"p p p p f s f p p p f p p p p f p ~ 5.5.5.5.5.5.5.5.5.5.5.5.5.5.5.5.5.5.5.5.5.5.5.5.5.5...H p p p p p p p p p p p p p p f p p p ",
"p p p p p p f p f p p p p p s p m 1.5.5.5.5.5.5.5.5.5.5.5.5.5.5.4.5.5.5.5.5.5.5.5.5.5.5.+.L a s p p f p p f p p p p p p p p p f ",
"p f f p p f s f p p f p p f f p q.3.5.5.5.5.5.5.5.5.5.5.5.5.5.5.5.5.5.5.5.5.5.5.5.5.5.5.#.W z f f p f p p p p f f p f f p f p p ",
"p p p p f p f p f p p p p p p f r.5.5.5.5.5.5.5.5.5.5.5.5.5.5.5.5.5.5.5.5.5.5.5.5.5.5.5.,.| w.f p f p p p f p p p p p p p p f p ",
"f f f f p f p f p i f f f f f p ) 5.5.5.5.5.5.5.5.5.5.5.5.5.5.5.5.5.5.5.5.5.5.5.5.3.@.#.,.| G p p p f f p f f f f f f p f f p f ",
"p p p f p f f p f p p p p p p b &.5.5.5.5.5.5.5.5.5.5.5.5.5.5.5.5.5.5.5.5.5.5.5.4.% . o T | I a g p p f p f p p p f p p f f p f ",
"f f f f f p f f f f f f f f f m =.5.5.5.5.5.5.5.5.5.5.5.5.5.5.5.5.5.5.5.5.5.5.5.+..     % | U b p f p f f f f f f f f f f p p f ",
"f f f p f p p f p f f p f f f m %.5.5.5.5.5.5.5.5.5.5.5.5.5.5.5.5.5.5.5.5.5.5.5.#.X     q  .U b p f f f f p f f p p f f f p f f ",
"f p f p f f f p p f f f p f V m 2.5.5.5.5.5.5.5.5.5.5.5.5.5.5.5.5.5.5.5.5.5.5.5.5.C # & ..| Y n f f f p f p f p f f f p f f f p ",
"f f f f f f f f f f f f f f f m 2.5.5.5.5.5.5.5.5.5.5.5.5.5.5.5.5.5.5.5.5.5.5.5.5.4.#.,.>.] { E v g f f f f f f f f f f f f p f ",
"f f f p f f f f f f f f f f f b *.5.5.5.5.5.5.5.5.5.5.5.5.5.5.5.5.5.5.5.5.5.5.5.5.5.5.4.} e e e w v f f f f f f f p f f f f f f ",
"f f f f f f f f f f f p f f f g &.5.5.5.5.5.5.5.5.5.5.5.5.5.5.5.5.5.5.5.5.5.5.5.5.5.5.:.e e e e w E f f p f f f f f f f f f f f ",
"f f f f f f f f f f f f f f f g ~ 5.5.5.5.5.5.5.5.5.5.5.5.5.5.5.5.5.3.5.5.5.5.5.5.5.5.-.e e e e w w 6.f f f f f f f f f f f f f ",
"f f f f f f f V f f V f f f f f w.5.5.5.5.5.5.5.5.5.5.4.5.5.5.5.5.3.#.5.5.5.5.5.5.5.5.;.e e e e w w E g f f f V f f V f f f f f ",
"f f f f f f f f f f f f f f f f M 2.5.5.5.5.5.5.5.5.5.3.,.5.5.5.5.@.@.5.5.5.5.5.5.5.5.o.' e e e w w 6.f f f f f f f f f f f f f ",
"f f f f f f f f f f f f f f f f g _ 5.5.5.5.5.5.5.5.5.4.#.3.5.5.,...<.5.5.5.5.5.5.5.#.| [ J R 7.v g g f f f f f f f f f f f V g ",
"V g V f f V f f f V f f V f V f V w.4.5.5.5.5.5.5.5.5.5.3.+.@.@. ...4.5.5.5.5.5.5.3. .W T c f f f V V f f V f f f f f f f V f f ",
"f f f f f f f V f f V f f f f f f g ^ 5.5.5.5.5.5.5.5.5.5.,.o. ...,.5.5.5.5.5.5.4...W W A d f f i g f f f V f V f f f f V f V f ",
"V f V V V f V f f f f V V V f f i 6 , $.5.5.5.5.5.5.5.5.5.5.5.4.4.5.5.5.5.5.5.5.+.W T L ; 6 i f V f V f f V f f V V f V f f V f ",
"f V f f V V f f V g f f f f g i 7 + + r 3.5.5.5.5.5.5.5.5.5.5.5.5.5.5.5.5.5.4.o.| W T > + + 7 f f f f f f f g V f f f f f f f f ",
"f f V f f g f V V f V V f V f i 2 + O 2 S %.5.5.5.5.5.5.5.5.5.5.5.5.5.5.5.,...W W T r + + + 2 i V V f V f V f V f V V f V V f V ",
"V V f V f V f V f f f V f V f V 4 1 1 O 1 : X.>.,.5.5.5.5.5.5.5.5.5.4.3.@.| W [ w : 1 1 1 1 4 V f V V V V f V f V f f V f V f V ",
"V f V f V f V f V V V V V f f f 9 1 1 O 1 1 5 w  .+.>.>.,.,.,.,.#.o...| T T W K 6 1 1 1 1 1 9 V V f f V f V f V V V f V V f V f ",
"g V f V f V f f f f V f V f V V V 9 1 1 1 1 1 * < C Y X.| | | [ W W T W Y P < = 1 1 1 1 1 9 V V f V V f f V V f f f V f V f f V ",
"V f V V V V V V V V f V V V V f V V 0 4 1 1 1 1 1 = 5 < Z A P K K A Z < - * O 1 1 1 1 4 9 V V V V f V V V f V V V V f V V V f V ",
"V V V f V V f V f V f V f V f V V V V V 0 5 4 1 1 1 O O + * * * * * + + 1 O 1 1 1 5 0 V V V V V V V V V V f V f f V V V V V V f ",
"f V V V V f V V V V V f V V V V V V V V V V V V 0 9 5 5 5 1 2 2 2 2 2 3 5 9 0 u V V V V V V V V V f f V f V V V V V f V V f V V ",
"V V V f V V V V V V V V V V V V V V V V V V V V V V V i u u i u u i i V V V V V V V V V V V V V V V V V V V V V V V V V V V V V ",
"V V V V V V V f V V V V V V f V V V V V V V V V V V V V V V V V V V V V V V V V V V V V V V V V V V f V V V V f V V V V V f V V ",
"V V V V V V V V V V V V V V V V V V V V V V V V V V V V V V V V V V V V i V f V V V V V V V V V V V V V V V V V V V V V V V V V ",
"V V V V V V V V V V V V f V V V V V V V V V V V V V V V V V V V V V V V V V V V V V V V V V V V V V V V V V V V f V V V V V V V ",
"V V V V V V V V V V V V V V V V V V V V V V V V V V V V V V V V V V V V V V V V V V V V V V V V V V V V V V V V V V V V V V V V ",
"V V V V V V V V V V V V V V V V V V V V V V V V V V V V V V V V V V V V V V V V V V V V V V V V V V V V V V V V V V V V V V V V ",
"V V V V V V V V V V V V V V V V V V V V V V V V V V V V V V V V V V V V V V V V V V V V V V V V V V V V V V V V V V V V V V V V ",
"V V V V V V V V V V V V V V V V V V V V V V V V V V V V V V V V V V 0 V V V V V V V V V V V V V V V V V V V V V V V V V V V V V ",
"V V V V V V V V V V V V V V V V V V V V V V V V V V V V V V V V V V V V V V V V V V V V V V V V V V V V V V V V V V V V V V V V ",
"V V V V V V V V V V V V V V V V V V V V V V V V V V V V V V V V V V V V V V V V V V V V V V V V V V V V V V V V V V V V V V V V "
};
