/* XPM */
static char *result[] = {
/* columns rows colors chars-per-pixel */
"64 64 96 2 ",
"   c #375D3E",
".  c #385E3E",
"X  c #3D613D",
"o  c #43633C",
"O  c #48673A",
"+  c #4C693A",
"@  c #516B39",
"#  c #5C7036",
"$  c #657535",
"%  c #3C6443",
"&  c #3E6946",
"*  c #426B43",
"=  c #416D49",
"-  c #45734E",
";  c #497A51",
":  c #7F812F",
">  c #579D4F",
",  c #4E8256",
"<  c #50875B",
"1  c #528A5D",
"2  c #569756",
"3  c #5A9755",
"4  c #579A52",
"5  c #5B9A52",
"6  c #56925C",
"7  c #5C9559",
"8  c #649D4F",
"9  c #6A994C",
"0  c #759246",
"q  c #759947",
"w  c #7D9A44",
"e  c #74974B",
"r  c #749D4E",
"t  c #619755",
"y  c #639C51",
"u  c #689856",
"i  c #73A14D",
"p  c #7CA34A",
"a  c #558D62",
"s  c #85852D",
"d  c #8D892B",
"f  c #958D29",
"g  c #9A8F29",
"h  c #9F9228",
"j  c #859B3F",
"k  c #9B9C33",
"l  c #909A3A",
"z  c #A39327",
"x  c #AD9925",
"c  c #A3982B",
"v  c #AE9E29",
"b  c #B59D24",
"n  c #B99F23",
"m  c #A19D31",
"M  c #95A43C",
"N  c #9FAA3B",
"B  c #B5A127",
"V  c #BDA021",
"C  c #B4A52C",
"Z  c #B9A72C",
"A  c #BAAA2D",
"S  c #A0A334",
"D  c #A5B13E",
"F  c #BDB937",
"G  c #B4B53A",
"H  c #BCB73A",
"J  c #C2A522",
"K  c #C6A822",
"L  c #CBAC24",
"P  c #C9B52C",
"I  c #D3B325",
"U  c #D8B726",
"Y  c #DDBB27",
"T  c #D5BC2D",
"R  c #DDBD28",
"E  c #C1BA36",
"W  c #CDBD33",
"Q  c #C2B939",
"!  c #D1BE33",
"~  c #E2BF28",
"^  c #DDC32F",
"/  c #D6C031",
"(  c #D8C130",
")  c #E4C32A",
"_  c #EAC62A",
"`  c #ECC82A",
"'  c #829E41",
"]  c #8C9F40",
"[  c #829D4A",
"{  c #84A747",
"}  c #8BA945",
"|  c #80A34C",
" . c #8BA549",
".. c #93AB43",
"X. c #9BAD42",
"o. c #A8B040",
/* pixels */
"> > > > > > > > > > > > > > > > > > > > > > > > > > > > > > > > > > > > > > > > > > > > > > > > > > > > > > > > > > > > > > > > ",
"> > > > > > > > > > > > > > > > > > > > > > > > > > > > > > > > > > > > > > > > 4 > > > > > > > > > > > > > > > > > > > > > > > ",
"> > > > > > > > > > > > > > > > 4 > > > > > > > > > > > > > > > > > > > > > > > > > > > > > > > > > > > > > > > > > > > > > > > ",
"> > > > > > > > > > > > > > > > > > > > > > > > > > > > > > > > > > > > > > > > > > > > > > > > > > > > > 4 > > > > > > > > > > ",
"4 > > 4 > > > 4 > > > > > > > 4 > > 5 4 4 > > > > > > 4 > 4 4 > 4 > > 4 > > 4 > > 4 > > > > > > > > 4 > 4 > > > > > > > > > > > ",
"> 4 4 > > 4 > 4 > > 4 > 4 > > > > > > > > > > > > > > 4 > > > 4 > > > > 4 > > > > > > 4 4 4 > > 4 > > > 4 > 4 > > > 4 > > > > 4 ",
"> > > > > > 4 > 4 4 4 > > 4 4 > > 4 > 4 4 > 4 4 > > 4 > 4 > 4 > 4 > 4 > > 4 4 4 > 4 4 > > 4 > 4 > > > > > > > > 4 4 4 > > 4 4 > ",
"4 4 4 4 4 4 > 4 > 4 > 4 4 > 4 4 4 > 4 4 > 4 > 4 4 4 > 4 4 > 4 > > 4 > 4 4 > 4 > 4 4 > 4 4 > 4 > 4 4 4 4 4 4 4 4 4 > 4 > 4 > 4 4 ",
"4 4 4 > 4 > 4 4 4 > 4 4 > 4 > 4 4 > 4 4 > 4 4 > 4 > > 4 4 > > 4 4 4 > 4 4 > 4 4 4 4 > 4 4 > 4 4 4 > > 4 4 > > 4 4 > 4 > 4 4 > 4 ",
"> > 4 4 4 4 4 4 > 4 > 4 4 > > 4 4 4 4 > > 4 4 > 4 4 5 4 > 4 4 4 4 > > 4 4 > 4 > > 4 > 4 4 4 4 > 4 4 4 > 4 4 4 4 > 4 > 4 4 > > 4 ",
"4 4 > 4 > 4 4 4 4 4 4 4 4 4 4 4 4 4 4 4 4 4 4 4 > 4 4 > 4 4 4 4 4 4 4 4 4 4 4 4 4 > 4 4 4 4 4 4 4 4 4 4 > 4 4 4 4 4 4 4 4 4 4 5 ",
"4 4 4 4 4 4 4 4 5 4 4 4 4 4 4 4 4 4 4 4 4 4 4 4 4 4 4 4 4 4 4 4 4 4 4 4 4 4 4 4 4 4 4 4 4 4 4 4 4 > 4 4 4 4 4 4 4 4 4 4 4 4 4 4 ",
"4 4 4 4 4 4 4 4 4 4 4 4 4 4 4 4 4 4 4 4 4 4 4 4 4 4 4 4 4 4 4 4 8 4 4 4 4 4 4 4 4 4 4 4 4 4 4 4 4 4 4 4 4 4 4 4 4 4 4 4 4 4 4 4 ",
"4 4 4 4 4 2 4 4 4 4 2 4 4 4 4 4 4 2 4 4 4 2 4 4 4 4 5 4 4 4 4 8 H 8 > 4 2 4 4 4 5 4 4 4 4 4 4 4 4 4 4 4 4 4 4 4 4 4 4 2 4 4 4 4 ",
"4 2 3 4 4 4 4 2 4 2 4 4 4 4 5 4 4 4 4 4 4 4 5 4 4 4 4 5 4 4 > p / 5 4 8 4 4 4 2 4 5 4 2 4 4 4 4 4 2 2 4 4 2 2 4 5 2 4 4 4 2 4 2 ",
"4 4 4 4 4 2 4 4 4 4 4 2 4 4 4 4 4 2 4 4 2 4 2 4 4 2 4 } G i > { G 4 } G 5 4 4 4 4 2 4 4 2 4 2 4 5 4 4 4 4 4 4 5 4 4 4 2 4 4 4 4 ",
"2 4 2 3 4 4 2 4 2 4 4 4 2 4 4 2 4 4 4 2 4 4 3 4 4 4 2 i G / X.G W D / X.3 4 4 4 4 4 4 4 4 2 4 4 2 2 4 2 4 2 5 4 2 4 2 4 2 5 4 2 ",
"4 2 4 4 4 2 3 2 4 2 2 4 4 2 4 2 2 2 4 4 2 4 4 3 2 y { o./ ` ` ` ) ) Y P S ' y 4 2 2 3 2 2 4 2 2 4 4 2 4 2 4 4 2 4 2 4 2 4 2 2 4 ",
"2 4 2 2 4 2 4 4 2 4 4 2 2 2 4 4 4 2 4 3 2 4 3 4 p H ^ ` ` ` ` ` _ Y K K U ~ F p 4 2 2 4 4 4 2 4 4 4 4 2 4 2 2 4 4 5 2 4 4 4 4 2 ",
"4 2 2 4 2 4 2 2 4 2 2 4 2 4 2 2 2 4 2 2 4 2 3 ..^ ` ` ` ` ` ` ` ` I I ) ` ` ` ( ..3 4 2 2 2 4 2 2 2 2 4 2 4 2 4 2 2 2 4 2 2 2 4 ",
"2 4 2 4 2 4 2 4 4 2 4 2 4 4 2 2 2 4 2 2 2 5 o._ ` ` ` ` ` ` ` ` _ Y _ _ ` ` ` ` _ N 5 2 4 2 2 4 2 2 4 2 2 4 2 2 2 > 2 4 2 4 2 2 ",
"2 2 2 2 2 2 2 2 2 2 2 2 2 2 2 2 2 2 2 2 3 o._ ` ` ` ` ` ` ` ` ` _ _ ` ` ` ` ` ` ` ) M 2 2 2 2 2 2 2 2 2 2 2 2 4 2 2 2 2 2 2 2 2 ",
"2 4 2 2 4 2 2 2 2 2 2 2 2 2 2 2 2 2 2 2 } ) ` ` ` ` ` ` ` ` ` ` ` ` ` ` ` ` ` ` ` ` U ' 2 2 2 2 2 2 2 2 2 2 2 2 2 2 2 2 2 2 2 2 ",
"2 2 2 2 2 2 2 2 4 2 2 2 2 2 2 2 2 2 2 i / ` ` ` ` ` ` ` ` ` ` ` ` ` ` ` ` ` ` ` ` ` _ A 9 2 2 2 2 4 2 2 2 2 2 2 2 2 2 2 2 2 4 2 ",
"2 2 2 2 2 2 2 2 2 2 2 2 2 2 2 2 2 2 4 G ` ` ` ` ` ` ` ` ` ` ` ` ` ` ` ` ` ` ` ` ` ` ` U k 3 2 2 2 2 2 2 2 2 2 2 2 2 2 2 2 2 2 2 ",
"2 2 2 2 2 2 2 2 2 2 2 2 2 2 2 2 2 2 { ^ ` ` ` ` ` ` ` ` ` ` ` ` ` ` ` ` ` ` ` ` ` ` ` _ J q 2 2 2 2 2 2 2 2 2 2 2 2 2 2 2 2 2 2 ",
"6 2 2 2 2 2 6 2 2 2 6 2 2 2 2 2 2 3 G ` ` ` ` ` ` ` ` ` ` ` ` ` ` ` ` ` ` ` ` ` ` ` ` ` I k 3 2 2 2 6 2 2 2 2 6 2 2 2 2 6 2 2 2 ",
"2 2 2 2 2 2 2 2 2 2 2 2 2 2 6 2 2 i ^ ` ` ` ` ` ` ` ` ` ` ` ` ` ` ` ` ` ` ` ` ` ` ` ` ` Y B 9 2 2 2 2 2 2 2 2 2 2 2 2 2 2 2 2 2 ",
"2 2 2 2 2 2 2 2 6 2 2 2 6 2 2 2 2 X.` ` ` ` ` ` ` ` ` ` ` ` ` ` ` ` ` ` ` ` ` ` ` ` ` ` ) J ' 3 6 6 2 2 2 2 2 2 2 2 2 2 2 2 2 6 ",
"2 6 6 2 2 6 2 6 6 2 6 2 2 2 2 6 u o.` ` ` ` ` ` ` ` ` ` ` ` ` ` ` ` ` ` ` ` ` ` ` ` ` ` _ L k 3 2 2 2 6 6 2 6 2 6 2 6 2 2 6 2 2 ",
"2 2 2 2 6 2 6 2 2 2 6 2 6 2 2 2 y / ` ` ` ` ` ` ` ` ` ` ` ` ` ` ` ` ` ` ` ` ` ` ` ` ` ` _ L v t 6 2 2 6 6 2 2 2 2 6 6 2 2 2 6 2 ",
"6 6 6 6 2 6 2 6 6 2 2 6 2 6 1 2 p _ ` ` ` ` ` ` ` ` ` ` ` ` ` ` ` ` ` ` ` ` ` ` ` ` ` ` ` I b 9 2 2 6 2 2 6 6 6 2 6 2 6 6 6 2 6 ",
"2 2 2 6 2 6 2 6 3 2 2 2 2 2 2 6  .) ` ` ` ` ` ` ` ` ` ` ` ` ` ` ` ` ` ` ` ` ` ` ` ` ` ` ` I n w 6 6 2 6 6 2 6 6 2 6 6 2 6 2 6 2 ",
"6 6 6 2 6 2 6 2 6 6 6 6 6 6 6 6 X.` ` ` ` ` ` ` ` ` ` ` ` ` ` ` ` ` ` ` ` ` ` ` ` ` ` ` ` I n ] 6 2 6 2 2 6 6 2 2 6 6 2 2 6 6 6 ",
"6 2 2 6 2 6 2 6 6 2 6 6 6 2 6 6 Q ` ` ` ` ` ` ` ` ` ` ` ` ` ` ` ` ` ` ` ` ` ` ` ` ` ` ` ` I J G 3 2 6 2 6 3 2 6 6 6 6 6 6 6 6 2 ",
"6 6 6 6 6 6 6 6 6 6 2 6 6 6 6 r / ` ` ` ` ` ` ` ` ` ` ` ` ` ` ` ` ` ` ` ` ` ` ` ` ` ` ` ` I I ) r 6 6 6 6 6 6 6 6 2 2 6 2 2 6 6 ",
"6 6 2 6 6 6 2 6 6 6 6 6 6 6 6 o.` ` ` ` ` ` ` ` ` _ ` ` ` ` ` ` ` ` ` ` ` ` ` ` ` ` ` ` _ I ) ` X.7 6 6 2 6 6 2 6 6 6 6 6 6 6 6 ",
"6 6 6 6 6 6 6 6 6 6 6 2 6 6 3 H ` ` ` ` ` ` ` ` ` ` ` ` ` ` ` ` ` ` ` ` ` ` ` ` ` ` ` ` ) U ` ` H 7 6 6 6 6 6 6 6 6 6 2 6 6 6 6 ",
"6 6 6 6 6 6 6 6 6 6 6 6 6 6 u / ` ` ` ` ` ` ` ` ` ` ` ` ` ` ` ` ` ` ` ` ` ` ` ` ` ` ` ` ~ ~ ` ` W u a 6 6 6 6 6 6 2 6 6 6 6 6 6 ",
"6 6 6 6 6 6 6 6 6 6 6 6 6 6 7 o.) ` ` ` ` ` ` ` ` ` ` ` ` ` ` ` ` ` ` ` ` ` ` ` ` ` ` ` U I ) _ o.t 6 6 6 6 6 6 6 6 6 6 6 6 6 6 ",
"6 6 6 6 6 6 6 6 6 6 6 6 6 6 6 u [ ! ` ` ` ` ` ` ` ` ` ` ` ` ` ` ` ` ` ` ` ` ` ` ` ` ` _ L V C  .u a 6 6 6 6 6 6 6 6 6 6 6 6 6 6 ",
"6 6 6 6 6 6 a 6 6 6 a 6 6 6 6 6 a o.` ` ` ` ` ` ` ` ` ` ` ` ` ` ` ` ` ` ` ` ` ` ` ` ` Y V V l 6 7 6 6 6 6 6 6 6 a 6 6 6 6 a 6 6 ",
"6 6 6 6 6 6 6 6 6 6 6 6 6 6 6 6 ;  .` ` ` ` ` ` ` ` ` ` ` ` ` ` ` _ ` ` ` ` ` ` ` ` _ L V n 9 6 a 6 6 6 6 6 6 6 6 a 6 6 6 6 6 6 ",
"6 a 6 a 6 a 6 6 6 6 a 6 6 a 6 6 a u Q ` ` ` ` ` ` ` ` ` ` ` ` ` ` ` ` ` ` ` ` ` ` _ U J V k 3 6 6 6 6 7 a a a 6 6 7 6 6 6 6 a 6 ",
"a 6 a 6 a 6 a 6 6 a 6 6 a u a a a ; [ ~ ` ` ` ` ` ` ` ` ` ` ` ` ` ` ` ` ` ` ` ` ` Y J V b : 6 6 a 6 a 6 6 6 6 6 a 6 a 6 6 6 a 6 ",
"6 6 6 6 6 6 a 6 6 6 6 a a a a a a ; = c ` ` ` ` ` ` ` ` ` ` ` ` ` ` ` ` ` ` ` ` ~ K V V : & , 6 6 6 a 6 a 6 a 6 6 6 6 6 a 6 a 6 ",
"6 6 6 a 6 6 6 6 6 a a a a 7 u a a -   + Z ` ` ` ` ` ` ` ` ` ` ` ` ` ` ` ` ` ` Y K V V g O X & < a 7 6 a 6 a 6 a a 6 6 6 6 6 6 6 ",
"a 6 a 7 a a 6 a a 7 a 7 a a a ; ; % . % - H ` ` ` ` ` ` ` ` _ _ ` ` ` ` ` _ U J V V z @ X X   ; 6 a 6 6 6 a 6 6 a 6 1 6 a a 6 a ",
"6 a 6 a 6 a 6 a 6 a a a a 6 6 a -         o z ~ ~ ) ) _ _ _ _ _ ~ ~ ~ ~ U L V V n g &         - a a 6 a 6 a 6 a 6 a a 6 a a 6 a ",
"a a a 6 a 6 a 6 a 6 6 a a 7 a 6 a %       % o : b L I ~ ~ ~ ~ ~ ~ U I J V V V b : %         % a 6 a a 6 a 6 a 6 a 6 6 a a a a 6 ",
"a 6 6 a 6 a a 6 6 6 6 6 a a 6 a a a %         % # d x Z V J J J L J V V V x d # % .       % a a 6 a 7 a 6 a a 6 6 6 a 6 a 6 6 a ",
"a a 6 a a a 6 a a a a a 6 6 a a a a a - %         % o $ : g z z z z g : $ + X % . .   % - a a a a 6 a a a 6 a a a a 6 a a a 6 a ",
"6 a a 6 a a 6 a a 6 a a a 6 a a a a a a a - - -     %     o o o o o . . % % % % % ; ; ; a a a a a a a 6 a a a 6 a a 6 a a a 6 a ",
"6 a a 6 a 6 a a a a a 6 a a 6 a a a a a a a a a ; - - - = % & = % % & & - ; - ; ; ; a a a a a a 6 a a a 6 a a a a a a a 6 a 6 a ",
"a a a a a a a a a a a a a 6 a a a a a a a a a a a a a a a ; a ; a ; ; ; a a a a a a a a a a a a a a a a a a a a 6 a 6 a a a a a ",
"a a a a a a 6 a a 6 a a a a a a a a a a a a a a a a a a a a a a a a a a a a a a a a a a a a a a a a a 6 a a a 6 a a a a a a 6 a ",
"a a a a a a a a a a a a a a 6 a a a a a a a a a a a a a a a a a a a a a a a a a a a a a a a a a a a a a a a a a a a a 6 a a a a ",
"a a a a a a a a a a a a a a a a a a a a a a a a a a a a a a a a a a a a a a a a a a a a a a a a a a a a a a a a a a a a a a a a ",
"a a a a a a a a a a a a a a a a a a a a a a a a a a a a a a a a a a a a a a a a a a a a a a a a a a a a a a a a a a a a a a a a ",
"a a a a a a a a a a a a a a a a a a a a a a a a a a a a a a a a a a a a a a a a a a a a a a a a a a a a a a a a a a a a a a a a ",
"a a a a a a a a a a a a a a a a a a a a a a a a a a a a a a a a a a a a a a a a a a a a a a a a a a a a a a a a a a a a a a a a ",
"a a a a a a a a a a a a a a a a a a a a a a a a a a a a a a a a a a a a a a a a a a a a a a a a a a a a a a a a a a a a a a a a ",
"a a a a a a a a a a a a a a a a a a a a a a a a a a a a a a a a a a a a a a a a a a a a a a a a a a a a a a a a a a a a a a a a ",
"a a a a a a a a a a a a a a a a a a a a a a a a a a a a a a a a a a a a a a a a a a a a a a a a a a a a a a a a a a a a a a a a "
};
