/* XPM */
static char *result[] = {
/* columns rows colors chars-per-pixel */
"64 64 67 1 ",
"  c #375C3E",
". c #385E3D",
"X c #3A623E",
"o c #47633C",
"O c #49613D",
"+ c #4A6A3F",
"@ c #616B3D",
"# c #76723B",
"$ c #7C753D",
"% c #395F41",
"& c #3B6244",
"* c #416D46",
"= c #406B49",
"- c #427146",
"; c #45754C",
": c #4B7F4F",
"> c #487753",
", c #4C7F57",
"< c #A5791D",
"1 c #807C3E",
"2 c #937C39",
"3 c #A77B20",
"4 c #AA7D22",
"5 c #579D4F",
"6 c #4D8154",
"7 c #4F845B",
"8 c #518B56",
"9 c #5F8E54",
"0 c #52875E",
"q c #548D5E",
"w c #569756",
"e c #579B51",
"r c #5C9C51",
"t c #56935B",
"y c #629456",
"u c #669C53",
"i c #689E51",
"p c #558D63",
"a c #AF8027",
"s c #AF8128",
"d c #B3842C",
"f c #B78731",
"g c #B88731",
"h c #BB8A35",
"j c #B38A3C",
"k c #BF8C39",
"l c #C18E3B",
"z c #C4923E",
"x c #8B8F4A",
"c c #8B924A",
"v c #B89241",
"b c #8AA352",
"n c #94A454",
"m c #9AA455",
"M c #B3A955",
"N c #C79540",
"B c #C89642",
"V c #CC9A45",
"C c #CF9E48",
"Z c #D09F49",
"A c #D5A54E",
"S c #CBAB55",
"D c #D0AE56",
"F c #DBAC54",
"G c #DFB057",
"H c #E0B157",
"J c #E0B158",
/* pixels */
"5555555555555555555555555555555555555555555555555555555555555555",
"5555555555555555555555555555555555555555555555555555e55555555555",
"5555555555555555e5e555555555555555555555555555555555555555555555",
"5555e55555555555555555555555555555555555555555555555555555555555",
"e55e5ee55e5e55e55e5555ee555e5e5e5e5e5e5e5e5ee5e55e5e5e5e55e55e5e",
"5ee5e55e55ee5ee55e5e5e5e55e5e5e5e5e5e5e5e5e55e5ee5e5e5e5ee5e55e5",
"e5e55e55e5eeeee5eeeeeewe5e5e5e5e5e5e555e5eeee55555e55e555ee5555e",
"eeeeeeeruuiiiiiiuuiiiiuuiiuiiuiuuuuiuuuuuiuuiiiiuuuuiuuueeeeeeee",
"eeeeeeiMDDDDDDDDDDDDDDFDDDDDDDDFDDDDDDDDDDDDSDDDDDDDDDDSbeee5eee",
"eeeeeenGGGGGGGGGGGGGGGJJJGJFGGGGGGGGGGGGGGGGGGHHFGGGGJJGSueeeeee",
"eeeeeemGGGGGGGAAZAAAAZAZAACAAAZAAAAAAAAAAAAFGGGGJJGGGGGGDu5eeee5",
"eeeeeemGGGGGGAzzNlNNNNNNNNNNNNNNzzzzzzzzzCAGGGGGGJGGGGGGDueeeeee",
"eeeeeemGGGGGGAVAFAFFFFAFAFFAAFAFFFAFFAFFGHGGGGGGGJJJGGGGSueeeeee",
"eweweemGGGGGGAVGGGFJFGJGFJGGGGJJGGGGGGGGHHGGGGGGGFJFGGGGDuewwewe",
"weweeenGGGGGGAVGGGGGGGGGGGGGGGGGGGGGGGGGGGGHGGFFCAGJGGGGDuweewew",
"eeweeemGGGGGGAVGGGGGGGGGGGGGGGGGGGGGGGGGGGGFFCzzlCFGGGGJDueeweee",
"weewermHGGGGGAVGGGGGGGGGGGGGGGGGGGGGGGGGFACNlNNCAFGGGGGGDuwewrwe",
"wwwewwmHGGGGGABGGGGGGGGGGGGGGGGGGGGGGFAVBlNNVFFGGGGGGGGGDuweewew",
"eewwwwmHGGGGGAVGGGGGGGGGGGGGGGGGGGFACNNlBZAGGGGGGGGGGGGGDuwewewe",
"wwewewmHGGGGGAVGGGGGGGGGGGGJGGGFAVNkNBCFFGGGGGGGGGGGGGGGDywwewww",
"wewewemHGGGGGFAGGGGGGGGGJGGGFAVNNNNCFFGGGGGGGGGGGGGGGGGGDuwwwwew",
"wwwwwwmFGGGGGGJGGGGGGGGGFFABNlNBCFFFGGGGGGGGGGGGGGGGGGGGDuewwwww",
"wwwwwwmHGGGGGGGGGGGGGFFZBNNNBZFFGGJGGGGGGGGGGGGGGGGGGGGGDywwwwww",
"wwwwwwmHGGGGGGGGGGFFANNNNBCFFJGGGGGGGGGGGGGGGGGGGGGGGGGGDuwewwww",
"wwwwwwmGGGGGGGGGGGFAZAZAFGGGJJJGGGGGGGGGJGGGGGGGGGGGGGGGDywwwwww",
"wwwwwwmGGGGGGGGGGGGJGGJJJJGGFFGGGGGGGGGGFFGGGGGFGGGGGGGGDuwwwwww",
"wwwwwwmFFFFFFFFFFFFFFFFFFFFFFFFFFFFAFAFFFFFFFFFAFFFFFFFFDytwwwww",
"wwwwwwczNzNllNNNNlNNNlNNlNNNNlNNNNNNNNNNNlNNNNNNzNzzzNzNvyttwwwt",
"wtwwwwclllllllllklllllllllllllllllllklllllllkkllklllllllvywwwwww",
"twtwwtcllllklllllllllllNlllllllNllllvlllkNllNNklkllllkllvutttttw",
"wwwwttcllllllllNlNlNlNlNlNlNlNlNllBNlNllNlkkkkllllllllkzjywwtwwt",
"tttttwcllllllh4444444444444444444444444444dhkllllllllllkvyttwtwt",
"trttppxllllllg<ajddddddfdddddgddh444k4g44hhllllllllllllljpttettw",
"ttttppxllllllg<gllllllllllllllllNBkNNlzBllllllllllllllllN9tttttt",
"ttttytxllllllg<gllllllllllllllllllllllzlllllllllllllllllj9ppwtwt",
"ttttttxllllllg<gllllllllllllllllllllllllllllllllllllllllj9pytttt",
"tttt,,2llllllg<glllllllllllllklllllllllllllllllllkllllllg+-8tttt",
"tttt>%$Blllllg<gllllllllllllllllllllllllllllllll44lllllljoX;tttt",
"tttt>O#llllllg<glllllllllllllllllllllllllllllk4444lllllljo.-tttt",
"tttt>O#llllllg<gllllllllllllllllllllllllllll43<4hklllllljo.*tttt",
"ttpt6X$llllllg<gllllllllllllllllllllllllll4444hllllllllljoX&wttt",
"tttt6o$llllllg<gllllllllllllllllllllllll44444llllllllllljoX+tttt",
"tttt6X$zlllllg<gllllllllllllllllllllzlg4<4gllllllllllllljo.-tttt",
"ttpt6X$llllllg<glllllllllllllllllllk44<44klllllllllllllljo.Xptqt",
"tttq6X$llllllg<glllllllllllllllklk44444llllllllllllllllljoX;qqtt",
"pptt6X$llllllg<glllllllllllllllk44<44klllllllllllllllllljo.&tttp",
"tttt8X$llllllgajlllllllllllllkg4444lzlllllllllllllllllkljoX*tpqq",
"tpqt6X$lllllllklllllllllllllg4<34lzzlllllllllllllllllllkjo&&ttpt",
"ptpt6X$llllllllllllllllllkg433aklllllllllllllllllllllllljO.=qptp",
"tppt,X$llllllllllllllllkj4334klllllllllllllllllllllllllljO%;qtpt",
"pttp6X$lllllllllllllllga<34klllllllllllllllllllllllllllljO &pttp",
"tptp,&$zlllllllllllkga3<4glllllllllllllllllllllllllllllljO &qptp",
"pptp6&$lllllllllllkd33jjlllllllllllllllllllllllllllllllljo&&qtpp",
"ptpp6&$kllllllllllkggklllllllllllllllllllllllllllllllllljo&;qptp",
"pppp,.$zlllllllklllllllllllllllllllllllllllllllllllllllljO%&qppp",
"pppt,&$llllllllllllllllllllllllllllllllllllllllllllllllljO&&qptp",
"pppp,%@vlllllllzjBllllzlzllzlzzBllBNllzlBzlllzBNlNNNlNvN2 %&pppp",
"pppp,%%@$$$$$$$$$$$$$$$$$$$$$$$$$$$$$$$$$$$$$$$$#$$$#$$#O %;ppqp",
"ppppp>&&&&&%&&&&&&&&&&&&&&&&&&&&&=&=&&&&=&&>&=&=%%&&%%%&%&&ppqpp",
"ppppppp,00p0000000000000000000pp,,,,,p,,p,,,,,,,p,,pp,0000pppppp",
"pppppppppppppppppppppppppppppppppppppppppppppppppppppppppppppppp",
"pppppppppppppppppppppppppppppppppppppppppppppppppppppppppppppppp",
"pppppppppppppppppppppppppppppppppppppppppppppppppppppppppppppppp",
"ppppppppppppppppppppppppppppppppppppppppppppp,pppppppppppppppppp"
};
